<svg xmlns="http://www.w3.org/2000/svg" width="400" height="300" fill="none" viewBox="0 0 400 300">
  <g class="Email" clip-path="url(#a)">
    <path fill="#F6D4A0" d="M245.525 31.25s-108.26 3-165 92c-52.03 81.6-2.5 87 21 100.5s12.5 59.5 80 60.5 125-69.5 146.5-121 18.505-149-82.5-132Z" class="shade10"/>
    <path fill="#A6C2EA" d="M325.345 45.565a6.75 6.75 0 1 0 0-13.5 6.75 6.75 0 0 0 0 13.5Z" class="shade50"/>
    <path fill="#28192D" d="M187.145 293.75A68.3 68.3 0 0 1 173 292.215c-15.405-3.175-29.87-10.82-43-22.73a.257.257 0 0 1-.054-.08.237.237 0 0 1-.019-.095c0-.033.006-.065.019-.095a.257.257 0 0 1 .054-.08.254.254 0 0 1 .355 0c13.05 11.85 27.44 19.455 42.755 22.61a66.409 66.409 0 0 0 16.83 1.465c2.13-.24 4.35-.5 6.84-.735 11.675-2.1 22.775-7 32.97-14.635a.247.247 0 0 1 .088-.042.27.27 0 0 1 .098-.006.25.25 0 0 1 .21.283.26.26 0 0 1-.096.165c-10.26 7.655-21.43 12.61-33.2 14.73-2.5.25-4.725.5-6.87.74-.95.02-1.89.04-2.835.04ZM93 105.5a.25.25 0 0 1-.13-.04.256.256 0 0 1-.114-.152.246.246 0 0 1 .03-.188c.064-.11 6.564-10.815 21.499-24.56 13.76-12.665 37.715-30.595 73.65-44.06a.25.25 0 0 1 .175.465c-35.855 13.415-59.745 31.3-73.47 43.94-14.875 13.695-21.35 24.355-21.415 24.46a.24.24 0 0 1-.225.135Z" class="shade90"/>
    <path fill="#F6D4A0" d="m241.53 88.31 12.26-24.235 66.52-23.935-72.84 16.54-5.94 31.63Z" class="shade10"/>
    <path fill="#28192D" d="M241.53 88.56h-.08a.256.256 0 0 1-.165-.28l5.94-31.63a.243.243 0 0 1 .19-.195l72.84-16.555a.245.245 0 0 1 .295.17.248.248 0 0 1-.155.305l-66.425 23.9-12.215 24.15a.25.25 0 0 1-.225.135Zm6.155-31.67L242.1 86.63l11.47-22.665a.237.237 0 0 1 .054-.077.228.228 0 0 1 .081-.048l62.67-22.55-68.69 15.6Z" class="shade90"/>
    <path fill="#fff" d="M273.295 70.025 241.53 88.31l12.26-24.235 19.505 5.95Z" class="shade0"/>
    <path fill="#28192D" d="M241.53 88.56a.254.254 0 0 1-.244-.21.247.247 0 0 1 .024-.155l12.26-24.23a.253.253 0 0 1 .123-.12.252.252 0 0 1 .172-.01l19.5 5.95a.265.265 0 0 1 .18.21.254.254 0 0 1-.125.245l-31.765 18.285a.215.215 0 0 1-.125.035Zm12.39-24.185-11.785 23.3 30.535-17.58-18.75-5.72Z" class="shade90"/>
    <path fill="#fff" d="m247.47 56.68-20.525-20.67 95.07 3.615-48.33 45.015-19.895-20.565 66.52-23.935-72.84 16.54Z" class="shade0"/>
    <path fill="#28192D" d="M273.685 84.89a.242.242 0 0 1-.18-.08L253.61 64.25a.254.254 0 0 1-.06-.23.232.232 0 0 1 .155-.18l62.67-22.55-68.85 15.635a.251.251 0 0 1-.235-.065l-20.5-20.675a.236.236 0 0 1-.05-.275.25.25 0 0 1 .235-.15l95.07 3.615a.256.256 0 0 1 .225.165c.017.046.02.097.008.145a.248.248 0 0 1-.073.125l-48.33 45a.252.252 0 0 1-.19.08ZM254.24 64.18l19.455 20.11 47.71-44.435-93.835-3.57 20 20.12 72.705-16.5a.244.244 0 0 1 .295.17.248.248 0 0 1-.155.305l-66.175 23.8Z" class="shade90"/>
    <path fill="#A6C2EA" d="M204.945 92.6a6.5 6.5 0 0 0-7.91 0l-76.78 59.1v88.235h161.47V151.7l-76.78-59.1Z" class="shade50"/>
    <path fill="#28192D" d="M281.725 151.95a.253.253 0 0 1-.15-.055L204.79 92.8a6.225 6.225 0 0 0-7.6 0l-76.785 59.095a.255.255 0 0 1-.185.05.252.252 0 0 1-.165-.095.254.254 0 0 1 .045-.35l76.785-59.095a6.718 6.718 0 0 1 8.21 0L281.88 151.5c.052.04.086.1.095.166a.254.254 0 0 1-.25.284Z" class="shade90"/>
    <path fill="#fff" d="M258.52 111.105H138.93v109.84h119.59v-109.84Z" class="shade0"/>
    <path fill="#28192D" d="M258.5 221.195H138.925a.254.254 0 0 1-.25-.25v-109.84a.25.25 0 0 1 .25-.25H258.5a.25.25 0 0 1 .25.25v109.84a.25.25 0 0 1-.25.25Zm-119.345-.5H258.27v-109.34H139.175l-.02 109.34Z" class="shade90"/>
    <path fill="#ECA3B5" d="M209.28 121.665h-53.825v3.765h53.825v-3.765Zm32.715 0H222.46v3.765h19.535v-3.765Zm-66.525 9.495h-20.015v3.765h20.015v-3.765Zm66.525 0H185.54v3.765h56.455v-3.765Z" class="shade40"/>
    <path fill="#28192D" d="M249.75 146.425h-4.445a.25.25 0 0 1 0-.5h4.445a.252.252 0 0 1 .25.25.252.252 0 0 1-.25.25Zm-11.935-.01H198.92a.25.25 0 0 1-.175-.075.25.25 0 0 1-.075-.175.25.25 0 0 1 .25-.25h38.9a.25.25 0 0 1 .25.25.251.251 0 0 1-.255.25Zm-54.51.01a.25.25 0 0 1 0-.5h8.615a.252.252 0 0 1 .25.25.252.252 0 0 1-.25.25h-8.615Zm-7.755 0h-27.765a.25.25 0 0 1-.25-.25.254.254 0 0 1 .25-.25h27.77a.258.258 0 0 1 .176.074.25.25 0 0 1 .055.273.25.25 0 0 1-.139.135.269.269 0 0 1-.097.018Zm74.2 7.36H147.78a.256.256 0 0 1-.25-.25.252.252 0 0 1 .25-.25h101.97a.249.249 0 0 1 .25.25.25.25 0 0 1-.25.25Zm-46.705 7.445c-5.04 0-9.59 0-13.92-.085a.237.237 0 0 1-.095-.019.246.246 0 0 1-.15-.231.25.25 0 0 1 .25-.25c6.775.09 14.075.11 22.975.06a.25.25 0 1 1 0 .5c-3.21.015-6.215.025-9.06.025Zm-32.32-.085H147.78a.252.252 0 0 1-.25-.25.252.252 0 0 1 .25-.25h33.535a.254.254 0 0 1 .25.25.25.25 0 0 1-.25.25h-10.59Zm28.545 7.355h-21.1a.256.256 0 0 1-.25-.255c0-.033.006-.065.019-.095a.246.246 0 0 1 .231-.15h29.66a.25.25 0 1 1 0 .5h-8.56Zm-37.665 0H153a.27.27 0 0 1-.097-.019.25.25 0 0 1-.153-.236.244.244 0 0 1 .155-.228A.235.235 0 0 1 153 168h20.66a.25.25 0 0 1 .25.245.255.255 0 0 1-.25.255h-12.055Zm-13.105 0h-.695a.258.258 0 0 1-.25-.255.25.25 0 0 1 .25-.245h.695a.252.252 0 0 1 .25.25.252.252 0 0 1-.25.25Zm45.235 7.39H169.01a.249.249 0 0 1-.176-.425.254.254 0 0 1 .176-.075c11.055 0 23 .025 38.735 0a.25.25 0 1 1 0 .5h-14.01ZM162 175.865h-10.19a.249.249 0 0 1-.25-.25.25.25 0 0 1 .25-.25h10.185a.252.252 0 0 1 .25.25.247.247 0 0 1-.072.175.247.247 0 0 1-.173.075Zm70.145 7.385c-5.32 0-10.22 0-14.97-.04a.244.244 0 0 1-.228-.155.235.235 0 0 1-.017-.095.25.25 0 0 1 .25-.25c7.73.045 15.855.055 25.565.025a.25.25 0 0 1 .005.5l-10.605.015Zm-45.35.005H175.11a.252.252 0 0 1-.25-.25.252.252 0 0 1 .25-.25c10.19 0 22.245 0 34.34-.04a.249.249 0 0 1 .25.25.25.25 0 0 1-.25.25c-7.725.03-15.45.04-22.655.04Zm-26.67 0c-3.8 0-8 0-12.345-.045a.252.252 0 0 1-.25-.25.244.244 0 0 1 .074-.18.253.253 0 0 1 .083-.054.255.255 0 0 1 .098-.016c7.32.055 14.275.05 19.5.035a.249.249 0 0 1 .25.25.25.25 0 0 1-.25.25l-7.16.01Zm55.34 7.365c-11 0-21.66 0-32.16-.05a.25.25 0 0 1-.177-.077.251.251 0 0 1 0-.353.243.243 0 0 1 .177-.07c18.895.06 38.295.065 59.31 0a.255.255 0 0 1 .25.25.252.252 0 0 1-.25.25c-9.335.04-18.355.05-27.15.05Zm-53.795-.005c-4.64 0-9.28 0-13.89-.045a.255.255 0 0 1-.25-.255.25.25 0 0 1 .25-.245c9.215.06 18.555.06 27.76 0a.249.249 0 0 1 .25.25.25.25 0 0 1-.25.25c-4.595.03-9.23.045-13.87.045Zm81.6 7.385c-2.14 0-4.26 0-6.4-.06a.25.25 0 1 1 0-.5c4.27.08 8.5.08 12.865 0a.25.25 0 1 1 0 .5c-2.175.025-4.33.06-6.465.06Zm-53.385 0c-11.96 0-24.12 0-36.62-.045a.249.249 0 0 1-.25-.25.25.25 0 0 1 .25-.25c26.815.065 52.065.06 77.19 0a.252.252 0 0 1 .25.25.255.255 0 0 1-.25.25c-13.41.01-26.86.045-40.57.045Z" class="shade90"/>
    <path fill="#A6C2EA" d="M250.525 159.76h-35.13v17.5h35.13v-17.5Z" class="shade50"/>
    <path fill="#28192D" d="M250.525 177.5h-35.13a.254.254 0 0 1-.25-.25v-17.5a.254.254 0 0 1 .25-.25h35.13a.252.252 0 0 1 .25.25v17.5a.252.252 0 0 1-.25.25Zm-34.88-.5h34.63v-17h-34.63v17Z" class="shade90"/>
    <path fill="#A6C2EA" d="M202.755 239.935h-82.5V151.7l82.5 40.145v48.09Z" class="shade50"/>
    <path fill="#A6C2EA" d="M199.225 239.935h82.5V151.7l-82.5 40.145v48.09Z" class="shade50"/>
    <path fill="#28192D" d="M202.755 240.185h-82.5a.25.25 0 0 1-.25-.25V151.7c0-.042.01-.084.03-.122a.26.26 0 0 1 .085-.093.247.247 0 0 1 .245 0l82.5 40.145a.257.257 0 0 1 .14.225v48.09a.252.252 0 0 1-.25.24Zm-82.25-.5H202.5V192l-82-39.9.005 87.585Z" class="shade90"/>
    <path fill="#28192D" d="M281.725 240.185h-82.5a.254.254 0 0 1-.25-.25v-48.09a.254.254 0 0 1 .14-.225l82.5-40.145a.247.247 0 0 1 .245 0 .251.251 0 0 1 .084.093.246.246 0 0 1 .031.122v88.245a.252.252 0 0 1-.25.25Zm-82.25-.5H281.5V152.1l-82 39.9-.025 47.685Z" class="shade90"/>
    <path fill="#A6C2EA" d="M201 179.5a6.5 6.5 0 0 0-3.955 1.345l-76.79 59.09h161.47l-76.78-59.095A6.505 6.505 0 0 0 201 179.5Z" class="shade50"/>
    <path fill="#fff" d="M237.535 223.265h-12.74a5.63 5.63 0 0 0-5.63 5.63v1.305a5.63 5.63 0 0 0 5.63 5.63h12.74a5.63 5.63 0 0 0 5.63-5.63v-1.305a5.63 5.63 0 0 0-5.63-5.63Z" class="shade0"/>
    <path fill="#28192D" d="M281.725 240.185h-161.47a.253.253 0 0 1-.232-.172.25.25 0 0 1 .077-.278l76.785-59.095a6.733 6.733 0 0 1 8.21 0l76.785 59.095a.255.255 0 0 1 .089.127.248.248 0 0 1-.244.323Zm-160.735-.5H281l-76.2-58.65a6.24 6.24 0 0 0-7.6 0l-76.21 58.65Z" class="shade90"/>
    <path fill="#28192D" d="M219.88 197.82a.283.283 0 0 1-.16-.055c-1.12-.92-2.3-1.79-3.445-2.625-1.41-1.04-2.87-2.11-4.25-3.3a.246.246 0 0 1 .147-.435.256.256 0 0 1 .183.055c1.36 1.18 2.81 2.245 4.215 3.275 1.15.845 2.335 1.715 3.47 2.64a.25.25 0 0 1-.16.445Zm19.085-65.11c-2.685 0-4.045-1.855-4.045-5.5v-13a.25.25 0 1 1 .5 0v13c0 3.38 1.16 5 3.545 5 3.105 0 3.76-2.615 3.76-4.81V110c0-1.57-.365-5.23-3.76-5.23a5.019 5.019 0 0 0-3.528 1.472 5.019 5.019 0 0 0-1.472 3.528V111a.25.25 0 1 1-.5 0v-1.205a5.496 5.496 0 0 1 5.5-5.5c2.67 0 4.26 2.145 4.26 5.73V127.4c0 3.425-1.515 5.31-4.26 5.31Zm17.075-52.93-4.98 2.865-.045-.07 5-2.84.025.045Zm-14.515 8.44-9.495 5.63-.11-.185 9.53-5.575.075.13Zm-18.96 11.31-9.455 5.7-.155-.255 9.47-5.68.14.235Zm-18.875 11.455-9.385 5.815-.185-.295 9.405-5.795.165.275Zm-18.735 11.685-9.31 5.94-.215-.335 9.325-5.915.2.31Zm-18.575 11.945-9.21 6.085-.245-.37 9.225-6.065.23.35Zm-18.36 12.255-9.085 6.27-.28-.4 9.1-6.255.265.385Zm-18.1 12.635-8.925 6.49-.275-.37 8.915-6.515.285.395Zm-17.725 13.15-8.635 6.865-.26-.32 8.625-6.895.27.35Zm-17.03 14.015c-2.75 2.44-5.44 4.94-8.04 7.54l-.26-.26a185.5 185.5 0 0 1 8.04-7.575l.26.295ZM79.74 202.365a53.674 53.674 0 0 0-3.225 4.44c-1 1.545-1.93 3.12-2.78 4.74l-.285-.15a64.736 64.736 0 0 1 2.785-4.765c1-1.555 2.08-3.057 3.235-4.5l.27.235Zm-9.715 19.44a18.076 18.076 0 0 0-.1 5.42 13.499 13.499 0 0 0 1.81 5.075l-.23.145a13.792 13.792 0 0 1-1.86-5.175 18.18 18.18 0 0 1 .086-5.5l.294.035ZM80 239.185a43.231 43.231 0 0 0 10.5 3.19v.145a43.207 43.207 0 0 1-10.565-3.14l.065-.195Zm21.465 4.315a75.9 75.9 0 0 0 5.745 0v.05c-1.915.095-3.83.09-5.75.04l.005-.09Zm179.955-51.04c1.905-.23 3.82-.36 5.735-.435v.095a70.94 70.94 0 0 0-5.735.39v-.05Zm17.04-.515c.925.145 1.865.285 2.785.525a8.41 8.41 0 0 1 2.645 1.11 8.176 8.176 0 0 1 2.06 2c.56.776 1.026 1.615 1.39 2.5l-.245.1c-.351-.871-.8-1.698-1.34-2.465a7.983 7.983 0 0 0-2-1.97 8.557 8.557 0 0 0-2.57-1.1c-.91-.24-1.84-.385-2.765-.54l.04-.16Zm10.355 17.235a18.29 18.29 0 0 1-3.575 8.055l-1.795 1.8-.22-.245 1.775-1.77a17.91 17.91 0 0 0 3.5-7.895l.315.055Zm-15.055 15.625a76.776 76.776 0 0 1-10.35 4.58l-.135-.37a75.975 75.975 0 0 0 10.315-4.515l.17.305Zm-20.985 8.1-.445.18h-.035c-3.5.825-6.92 2-10.43 2.935l-.12-.44c3.5-.93 6.925-2.085 10.455-2.905l.395-.165.18.395ZM251 239.095c-3.633.967-7.273 1.918-10.92 2.855l-.12-.47 10.91-2.855.13.47Zm-21.905 5.405-11.065 2.24-.08-.415 11.045-2.265.1.44Zm-22.18 4.19-11.12 1.905-.06-.355 11.115-1.93.065.38Zm-22.23 3.82-11.095 2.02-.055-.295 11.09-2.045.06.32Zm-22.155 4.21-11.015 2.405-.04-.175 11-2.49.055.26Zm-21.96 5.15-5.535 1.55-.015-.05 5.525-1.59.025.09ZM315.78 35.75a.283.283 0 0 1-.11 0 .255.255 0 0 1-.127-.144.259.259 0 0 1 .012-.191c.065-.14 6.54-13.695 2.735-23.275-1.465-3.68-4.27-6.335-8.35-7.885a.247.247 0 0 1-.14-.132.264.264 0 0 1-.022-.096c0-.033.005-.066.017-.097a.255.255 0 0 1 .325-.145c4.215 1.605 7.12 4.355 8.635 8.175 3.885 9.78-2.685 23.535-2.75 23.67a.242.242 0 0 1-.225.12Zm33.005 10.505a.268.268 0 0 1-.11-.025c-15.185-7.35-24.915-1.575-25-1.5a.25.25 0 0 1-.326-.093.249.249 0 0 1 .066-.332c.1-.06 10.045-6 25.5 1.5a.248.248 0 0 1 .127.14.25.25 0 0 1-.007.19.255.255 0 0 1-.25.12Zm-12.99-15.315a.236.236 0 0 1-.205-.11.261.261 0 0 1-.039-.09.245.245 0 0 1 .104-.256c2.08-1.414 4.175-2.804 6.2-4.15 2.025-1.344 4.265-2.83 6.41-4.29a.254.254 0 0 1 .35.065.26.26 0 0 1-.065.35c-2.15 1.46-4.32 2.9-6.415 4.29a890.073 890.073 0 0 0-6.2 4.146.232.232 0 0 1-.14.045Zm-12.325 8.25a.251.251 0 0 1-.234-.343.249.249 0 0 1 .104-.122c.69-.42 1.35-.88 2-1.33.65-.45 1.225-.855 1.83-1.225a.256.256 0 0 1 .345.085.254.254 0 0 1 .03.19.247.247 0 0 1-.115.155c-.59.355-1.18.77-1.8 1.205-.62.435-1.31.92-2 1.35a.239.239 0 0 1-.16.035ZM300.12 240.3c-.575 0-1.145 0-1.78-.065a.261.261 0 0 1-.095-.024.282.282 0 0 1-.078-.059.245.245 0 0 1-.062-.182.241.241 0 0 1 .082-.174.242.242 0 0 1 .183-.061c1.165.084 2.335.084 3.5 0a.27.27 0 0 1 .265.235.265.265 0 0 1-.013.097.261.261 0 0 1-.127.144.261.261 0 0 1-.095.024 24.61 24.61 0 0 1-1.78.065Z" class="shade90"/>
    <path fill="#28192D" d="M200.955 240.3c-29.785 0-59.585 0-89.19-.065a.249.249 0 0 1-.25-.25.25.25 0 0 1 .25-.25c59.21.085 119.2.085 178.295 0a.252.252 0 0 1 .25.25.252.252 0 0 1-.25.25c-29.56.045-59.32.065-89.105.065Z" class="shade90"/>
    <path fill="#ECA3B5" d="M147.775 287.9c10.358 0 18.755-8.397 18.755-18.755 0-10.358-8.397-18.755-18.755-18.755-10.359 0-18.755 8.397-18.755 18.755 0 10.358 8.396 18.755 18.755 18.755Z" class="shade40"/>
    <path fill="#28192D" d="M147.77 288.15a18.997 18.997 0 0 1-17.554-11.729 19.002 19.002 0 0 1 13.847-25.906 19.003 19.003 0 0 1 19.504 8.079 19 19 0 0 1 3.203 10.556 19.028 19.028 0 0 1-19 19Zm0-37.5a18.503 18.503 0 0 0-17.092 11.42 18.501 18.501 0 1 0 35.592 7.08 18.524 18.524 0 0 0-18.5-18.51v.01Z" class="shade90"/>
    <path fill="#fff" d="M152.87 278.115a12.147 12.147 0 0 1-5.93 1.33c-5.465 0-10.1-4-10.1-10.4 0-6.865 4.765-12.795 12.165-12.795 5.8 0 9.7 4.065 9.7 9.63 0 5-2.8 7.935-5.935 7.935-1.33 0-2.565-.9-2.465-2.935h-.135c-1.165 1.965-2.695 2.935-4.695 2.935-2 0-3.6-1.57-3.6-4.2a7.858 7.858 0 0 1 2.303-5.593 7.868 7.868 0 0 1 5.592-2.307 8.804 8.804 0 0 1 3.57.7l-1.135 6.03c-.5 2.535-.1 3.7 1 3.735 1.7.035 3.6-2.235 3.6-6.1 0-4.83-2.9-8.3-8.065-8.3-5.435 0-10 4.3-10 11.065 0 5.57 3.635 9 8.565 9 1.749.04 3.481-.36 5.035-1.165l.53 1.435Zm-1.83-14.4a5.761 5.761 0 0 0-1.665-.235c-2.935 0-5.3 2.765-5.3 6 0 1.465.73 2.535 2.2 2.535 1.93 0 3.695-2.47 4.065-4.535l.7-3.765Z" class="shade0"/>
    <path fill="#28192D" d="M216.27 84.255H183.5a.252.252 0 0 1-.25-.25v-24.75a.25.25 0 0 1 .25-.25h32.75a.251.251 0 0 1 .25.25V84a.25.25 0 0 1-.23.255Zm-32.5-.5H216V59.5h-32.25l.02 24.255Z" class="shade90"/>
    <path fill="#fff" d="m198.225 77.73-8.245-7.29.33-.375 7.88 6.965 13.145-14.445.37.34-13.48 14.805Z" class="shade0"/>
    <path fill="#28192D" d="M256.025 164a.252.252 0 0 1-.25-.25v-39.5a.252.252 0 0 1 .25-.25.249.249 0 0 1 .25.25v39.5a.25.25 0 0 1-.25.25Z" class="shade90"/>
    <path fill="#fff" d="M159.705 80.275c0-12.065-11.255-17.145-29-17.145-17.745 0-34.575 5.08-34.575 17.145s16.835 21.85 34.575 21.85c2.006.001 4.01-.126 6-.38l20.58 16.41s-5-7.84-8.615-19.765c8.55-3.925 11.035-10.575 11.035-18.115Z" class="shade0"/>
    <path fill="#28192D" d="M157.295 118.405a.225.225 0 0 1-.155-.055l-20.5-16.345c-1.966.246-3.945.37-5.925.37-18.555 0-34.825-10.325-34.825-22.1 0-5.665 3.73-10.275 10.785-13.325 6.07-2.625 14.605-4.07 24.04-4.07 19.13 0 29.24 6 29.24 17.395 0 8.93-3.5 14.735-11 18.25 3.575 11.64 8.5 19.42 8.53 19.5a.25.25 0 0 1 .008.257.253.253 0 0 1-.223.128l.025-.005Zm-20.58-16.905a.26.26 0 0 1 .155.055l19.5 15.555a93.202 93.202 0 0 1-7.945-18.64.247.247 0 0 1 .135-.3c7.425-3.415 10.88-9.1 10.88-17.89 0-11.21-9.67-16.895-28.74-16.895-15.835 0-34.325 4.425-34.325 16.895 0 11.5 16.04 21.6 34.325 21.6 1.996.001 3.99-.125 5.97-.38h.045Z" class="shade90"/>
    <path fill="#A6C2EA" d="M113.65 83.815a3.18 3.18 0 1 0 0-6.36 3.18 3.18 0 0 0 0 6.36Zm12.525 0a3.18 3.18 0 1 0 0-6.36 3.18 3.18 0 0 0 0 6.36Zm12.52 0a3.18 3.18 0 1 0 0-6.36 3.18 3.18 0 0 0 0 6.36Z" class="shade50"/>
    <path fill="#28192D" d="M240.195 227.265H222.13a.25.25 0 0 1-.25-.25.25.25 0 0 1 .075-.175.25.25 0 0 1 .175-.075h18.065a.25.25 0 1 1 0 .5ZM239 230.14h-13.055a.252.252 0 0 1-.25-.25.252.252 0 0 1 .25-.25H239a.254.254 0 0 1 .25.25.25.25 0 0 1-.25.25Zm40.775-77.64a.246.246 0 0 1-.14-.04L263 141.215a.246.246 0 0 1-.042-.329.247.247 0 0 1 .322-.081l16.625 11.25a.25.25 0 0 1-.14.455l.01-.01Z" class="shade90"/>
    <path fill="#fff" d="M360.485 135.48h-97.92l-.53-36.09 98.45 1.915v34.175Z" class="shade0"/>
    <path fill="#28192D" d="M360.5 135.73h-97.935a.25.25 0 0 1-.173-.073.254.254 0 0 1-.077-.172l-.53-36.09a.246.246 0 0 1 .075-.18.307.307 0 0 1 .18-.075l98.46 1.915a.244.244 0 0 1 .228.155c.012.03.018.063.017.095V135.5a.25.25 0 0 1-.245.23Zm-97.675-.5h97.41v-33.68l-97.945-1.905.535 35.585Z" class="shade90"/>
    <path fill="#28192D" d="M280.5 131.85a14.277 14.277 0 0 1-14.011-17.065 14.282 14.282 0 0 1 19.473-10.407 14.276 14.276 0 0 1 4.626 23.285 14.294 14.294 0 0 1-10.088 4.187Zm0-28.055a13.776 13.776 0 0 0-12.735 8.503 13.779 13.779 0 0 0 24.187 12.933 13.773 13.773 0 0 0 2.323-7.656 13.798 13.798 0 0 0-13.775-13.78Z" class="shade90"/>
    <path fill="#A6C2EA" d="m299.715 109.715 55.03 1.74-.305 2.265-54.425-2.04-.3-1.965Zm44.125-3.44L303.26 105c-.04.66-.07 1.315-.095 2l40.5 1.5c.045-.755.11-1.5.175-2.225Z" class="shade50"/>
    <path fill="#28192D" d="M350.31 119.44c-5.285 0-10.58-.135-15.735-.265-6.635-.165-13.5-.34-20.255-.225a.237.237 0 0 1-.099-.012.24.24 0 0 1-.156-.233.255.255 0 0 1 .245-.255c6.775-.115 13.64.06 20.28.225 6.5.165 13.215.335 19.85.235a.252.252 0 0 1 .25.25.252.252 0 0 1-.25.25c-1.37.02-2.747.03-4.13.03Zm-43.94-.58a32.75 32.75 0 0 0-4.625-.055.241.241 0 0 1-.1-.006.223.223 0 0 1-.146-.13.224.224 0 0 1-.019-.099.245.245 0 0 1 .062-.181.248.248 0 0 1 .173-.084 33.82 33.82 0 0 1 4.7.055.24.24 0 0 1 .094.029.255.255 0 0 1 .122.148.27.27 0 0 1-.018.192.25.25 0 0 1-.146.122.228.228 0 0 1-.097.009Zm47.095 4.295a11.423 11.423 0 0 1-1.545-.145 6.246 6.246 0 0 0-2.395-.035.254.254 0 0 1-.194-.031.254.254 0 0 1-.085-.353.26.26 0 0 1 .159-.116 6.628 6.628 0 0 1 2.595.025 6.01 6.01 0 0 0 2.39.03.257.257 0 1 1 .125.5c-.343.088-.696.13-1.05.125Zm-11.19-.255c-5.88 0-11.785-.135-17.5-.25-7.545-.15-15.345-.305-23.08-.215a.25.25 0 0 1-.176-.427.247.247 0 0 1 .176-.073c7.745-.09 15.55.065 23.095.215 5.705.115 11.605.235 17.5.25a.246.246 0 0 1 .245.25.236.236 0 0 1-.02.098.244.244 0 0 1-.141.136.254.254 0 0 1-.099.016Zm8.615 7.165h-17.68a.25.25 0 0 1-.175-.075.25.25 0 0 1-.075-.175.25.25 0 0 1 .25-.25h17.68a.25.25 0 1 1 0 .5ZM278 119.545c2.5.24 5.035 0 7.16-1.41 1.94-1.31 3.5-3.32 4.78-5.245.4-.595.77-1.205 1.105-1.83-1.135-.405-6.955-8.82-7.5-11.09-1.16-4.63-7.56-6.66-7.56-6.66l-.5.69-7.5 4.375s-.5 1.335-.21 4.24c.17 1.795 7.18 12.66 9.165 16.795.33.055.68.09 1.06.135Z" class="shade90"/>
    <path fill="#ECA3B5" d="m270.952 128.193 3.548-18.533 2.04-2.27c4.805 2.945 4.94 8.445 4.94 8.445-.041.248-.02.739.013 1.491.09 2.096.266 6.218-.573 12.744-.075.582-.156 1.175-.24 1.778l-.18.002a14.276 14.276 0 0 1-9.548-3.657Z" class="shade40"/>
    <path fill="#28192D" d="M270.738 127.996c.142.134.288.264.436.392l3.576-18.668a.251.251 0 0 0-.04-.188.258.258 0 0 0-.16-.107.256.256 0 0 0-.295.2l-3.517 18.371Zm10.204 3.846c-.147.005-.294.008-.442.008h-.064c.084-.611.164-1.212.239-1.8.579-4.215.772-8.474.575-12.725-.036-.499-.036-1 0-1.5 0 0-.19-5.375-4.82-8.195a.252.252 0 0 1-.065-.332.256.256 0 0 1 .144-.11.252.252 0 0 1 .181.017c4.768 2.906 5.046 8.372 5.06 8.645v.01a9.682 9.682 0 0 0 0 1.465 69.985 69.985 0 0 1-.58 12.81c-.072.558-.148 1.128-.228 1.707Z" class="shade90"/>
    <path fill="#ECA3B5" d="M273.32 118.18c-.17-1.34.145-3.165.53-4.74l1.54-4.255a8.233 8.233 0 0 1 3.535-2.315c3.51-1.325 10.26 2.085 10.645 5.12.144 1.132.35 3.467.591 6.195.256 2.889.55 6.221.85 9.036a14.294 14.294 0 0 1-10.511 4.629c-.718 0-1.431-.054-2.135-.16l-1.8-9.955s-2.875-.66-3.245-3.555Z" class="shade40"/>
    <path fill="#28192D" d="M291.256 126.948c-.292-2.762-.578-5.988-.826-8.793l-.01-.109c-.236-2.65-.442-4.966-.585-6.086-.16-1.285-1.36-2.69-3.295-3.85-2.225-1.34-5.46-2.31-7.68-1.475a.25.25 0 1 0 .175.47c1.745-.665 4.745-.07 7.245 1.43 1.775 1.085 2.915 2.37 3.06 3.5.138 1.079.331 3.259.557 5.812l.033.368c.248 2.954.556 6.372.87 9.231.156-.163.308-.329.456-.498Zm-13.17 4.697c.18.031.361.058.543.082l-1.814-10.032a.238.238 0 0 0-.19-.2c-.11-.025-2.71-.665-3.05-3.345a14.12 14.12 0 0 1 .5-4.65.245.245 0 0 0-.185-.3.25.25 0 0 0-.3.18c-.5 2.045-.68 3.67-.53 4.83.33 2.625 2.635 3.525 3.27 3.725l1.756 9.71Z" class="shade90"/>
    <path fill="#ECA3B5" d="m288.532 129.366-2.357-13.056-2.26-9.2c5.575.745 7.915 5.745 7.915 5.745.063.241.392.957.889 2.038.51 1.11 1.198 2.605 1.954 4.364a14.295 14.295 0 0 1-6.141 10.109Z" class="shade40"/>
    <path fill="#28192D" d="M288.309 129.515c.153-.1.303-.202.452-.308l-2.341-12.962a.25.25 0 0 0-.104-.161.252.252 0 0 0-.186-.044.255.255 0 0 0-.2.196.236.236 0 0 0 0 .099l2.379 13.18Zm6.299-9.781c.05-.328.09-.659.117-.992a115.8 115.8 0 0 0-1.77-3.922l-.331-.731c-.305-.674-.517-1.14-.569-1.339l-.002-.003c-.07-.143-2.517-5.134-8.108-5.887a.25.25 0 0 0-.28.215.249.249 0 0 0 .048.186.24.24 0 0 0 .167.094c5.365.72 7.705 5.565 7.705 5.565.269.717.575 1.419.915 2.105a114.547 114.547 0 0 1 2.108 4.709Z" class="shade90"/>
    <path fill="#A6C2EA" d="M269 96.5a5.759 5.759 0 0 0-1.165 3.77c.205 2.075 2.215 3.2 2.215 3.2l.305-5.57" class="shade50"/>
    <path fill="#28192D" d="M277.435 104.535a4.28 4.28 0 0 0 2.65-2.63c.795-2.14-.445-6.845-2.94-8.19-2.495-1.345-8.45 1.315-8.315 3.5.135 2.185 8.605 7.32 8.605 7.32Z" class="shade90"/>
    <path fill="#fff" d="m276.63 108.645-.03-.035-2.75-4.41 2.5-3.335 5.765 5.93c-.145.13-2.19 3.36-2.26 3.6-.495 1.715-2.575-.94-3.225-1.75Z" class="shade0"/>
    <path fill="#28192D" d="M279.275 111.21c-.79 0-1.8-1.115-2.78-2.335l-.06-.075-.045-.055-2.75-4.415a.249.249 0 0 1 0-.28l2.5-3.335a.263.263 0 0 1 .081-.071.253.253 0 0 1 .104-.029.24.24 0 0 1 .195.075l5.765 5.93a.24.24 0 0 1 .07.185.216.216 0 0 1-.023.097.236.236 0 0 1-.062.078c-.195.225-2.09 3.235-2.185 3.5a.876.876 0 0 1-.655.725.73.73 0 0 1-.155.005Zm-2.45-2.72.06.07c1.21 1.5 2.03 2.23 2.445 2.145.12 0 .21-.15.275-.38.065-.23 1.635-2.75 2.175-3.5l-5.415-5.575-2.21 2.96 2.66 4.27-.185.165.195-.155Z" class="shade90"/>
    <path fill="#28192D" d="m276.34 100.865.65.79c.44 2.19.18 4.315-1.58 5.045l-1.56-2.5 2.49-3.335Z" class="shade90"/>
    <path fill="#fff" d="M272.78 95.335a4 4 0 0 0-4.335 3.05 9.275 9.275 0 0 0 .175 4.9c1.39 4.835 7.5 5.06 7.775-.25.225-4.07-.815-7.31-3.615-7.7Z" class="shade0"/>
    <path fill="#28192D" d="M272.93 107.215c-1.77 0-3.805-1.265-4.55-3.86a9.595 9.595 0 0 1-.175-5.035 4.221 4.221 0 0 1 4.61-3.235c2.695.375 4.09 3.28 3.83 7.96-.155 2.8-1.815 3.975-3.315 4.145a3.564 3.564 0 0 1-.4.025Zm-.665-11.665a3.752 3.752 0 0 0-3.575 2.895 8.996 8.996 0 0 0 .175 4.77c.725 2.53 2.765 3.66 4.41 3.5 1.295-.145 2.735-1.19 2.87-3.675.245-4.39-1-7.105-3.4-7.44a3.847 3.847 0 0 0-.48-.05Z" class="shade90"/>
    <path fill="#fff" d="M276.145 102.375c.265-.16 1.595-1.03 1.455-2.335-.155-1.45-1.72-1-1.755.045" class="shade0"/>
    <path fill="#28192D" d="M277.205 101.29h-.09a.251.251 0 0 1-.145-.32c.24-.65-.09-.81-.13-.825a.255.255 0 0 1-.132-.136.248.248 0 0 1-.003-.19.241.241 0 0 1 .127-.137.25.25 0 0 1 .188-.007c.295.11.755.555.42 1.465a.253.253 0 0 1-.235.15Zm-.605-2.35-.55 1.675s-.845-2.405-1.215-3.095l-.37-.695c-1.166.09-2.338.07-3.5-.06-2.075-.215-2.32.675-2.32.675s.405-.76.65-1.23 2.66-1.165 2.66-1.165l2.35.04.945.63 1.36 3.08m-5.11 5.5a.6.6 0 0 1-.24-.05.5.5 0 0 1-.31-.685c.038-.137.059-.278.065-.42 0-.035-.125-.385-.185-.55-.06-.165-.06-.195-.075-.23a.257.257 0 0 1 .022-.198.27.27 0 0 1 .065-.078.265.265 0 0 1 .288-.024.259.259 0 0 1 .125.155c0 .035.04.115.07.215.106.23.177.474.21.725a2.111 2.111 0 0 1-.085.535v.075h.045c.1.05.345-.08.58-.33a.24.24 0 0 1 .175-.073.24.24 0 0 1 .175.073.264.264 0 0 1 .055.081.27.27 0 0 1 .019.097.265.265 0 0 1-.019.096.264.264 0 0 1-.055.081c-.233.28-.564.46-.925.505Zm.525.83a.261.261 0 0 1-.138-.043.247.247 0 0 1-.093-.301.25.25 0 0 1 .131-.136c.65-.28 1.705-.93 1.765-1.475a.253.253 0 0 1 .094-.165.252.252 0 0 1 .181-.055.24.24 0 0 1 .168.091.24.24 0 0 1 .052.184c-.11 1-1.86 1.795-2.06 1.88a.342.342 0 0 1-.1.02Zm-2.205-2.104c.075-.036.097-.146.049-.245-.047-.1-.147-.152-.221-.116-.075.036-.097.145-.05.245.048.1.147.152.222.116Zm2.955-.965c.074-.036.096-.146.049-.245-.048-.1-.147-.152-.222-.116-.075.036-.097.146-.049.245.048.1.147.152.222.116Z" class="shade90"/>
    <path fill="#fff" d="M285.22 105a.274.274 0 0 1-.125-.03c-1.83-1-2.43-2.795-3-4.5a17.123 17.123 0 0 0-.84-2.165c-.33-.96-1.155-1.835-2.46-2.64a.247.247 0 0 1-.128-.155.236.236 0 0 1-.007-.102.253.253 0 0 1 .199-.212.252.252 0 0 1 .196.044c1.405.865 2.3 1.83 2.66 2.87.337.712.621 1.447.85 2.2.575 1.705 1.115 3.32 2.78 4.24a.249.249 0 0 1 .029.41.252.252 0 0 1-.149.055l-.005-.015Z" class="shade0"/>
    <path fill="#28192D" d="M268.725 96.82s2.42 3.085 4.45 3.25a8.087 8.087 0 0 0 2.94-.145l.06-.64c-.809.136-1.625.221-2.445.255-1.31.05-3.26-1.685-3.26-1.685s3.23 1.235 4.63 1a4.638 4.638 0 0 0 2.26-1.055l-1.655-2.395-6.98 1.415Z" class="shade90"/>
    <path fill="#28192D" d="M269.835 97.18s.61 2.135-.5 3.445a13.229 13.229 0 0 1-1.565 1.645s-.945-3.56.14-4.89a2.813 2.813 0 0 1 2.305-1.195l-.38.995Z" class="shade90"/>
    <path fill="#28192D" d="M269.79 97.455c.255.875-.095 1.82-.35 2.65-.135.43-.332.838-.585 1.21a2.203 2.203 0 0 1-.395.445 1.973 1.973 0 0 0-.39.315c-.2.255.235.5.43.25 0 0 .14-.075.175-.1a3.56 3.56 0 0 0 .255-.21c.144-.151.27-.319.375-.5.278-.411.491-.863.63-1.34.166-.45.287-.916.36-1.39a3.903 3.903 0 0 0-.025-1.5.258.258 0 0 0-.318-.182.26.26 0 0 0-.182.317l.02.035Zm11.36 24.94a.25.25 0 0 1-.245-.21c-.755-4.5-1.85-11.22-1.85-11.22l.5-.08s1.095 6.725 1.85 11.22a.25.25 0 0 1-.205.285l-.05.005Z" class="shade90"/>
    <path fill="#fff" d="m274.2 134.875-4.91 14.885 13.8-14.96" class="shade0"/>
    <path fill="#28192D" d="M269.29 150a.23.23 0 0 1-.125-.035.24.24 0 0 1-.11-.29l4.91-14.885a.231.231 0 0 1 .046-.086.25.25 0 0 1 .172-.087.228.228 0 0 1 .097.013c.063.02.115.065.145.124.03.059.035.128.015.191l-4.55 13.79 13-14.115a.25.25 0 1 1 .35.355L269.5 149.93a.244.244 0 0 1-.21.07Z" class="shade90"/>
    <path fill="#fff" d="M127.255 230.27h-97.92l-.53-36.095 98.45 1.915v34.18Z" class="shade0"/>
    <path fill="#28192D" d="M127.255 230.5h-97.92a.24.24 0 0 1-.177-.07.246.246 0 0 1-.073-.175l-.53-36.09a.242.242 0 0 1 .075-.18.274.274 0 0 1 .18-.075l98.45 1.915a.26.26 0 0 1 .172.076.259.259 0 0 1 .073.174v34.175a.25.25 0 0 1-.25.25ZM29.58 230H127v-33.665l-97.94-1.905.52 35.57Z" class="shade90"/>
    <path fill="#A6C2EA" d="M47.24 226.39c7.748 0 14.03-6.281 14.03-14.03 0-7.748-6.282-14.03-14.03-14.03-7.749 0-14.03 6.282-14.03 14.03 0 7.749 6.281 14.03 14.03 14.03Z" class="shade50"/>
    <path fill="#28192D" d="M47.24 226.64a14.277 14.277 0 0 1-13.207-8.801 14.282 14.282 0 0 1 10.394-19.483A14.279 14.279 0 0 1 61.5 212.36a14.293 14.293 0 0 1-14.26 14.28Zm0-28.06a13.778 13.778 0 0 0-13.537 16.456 13.778 13.778 0 0 0 18.786 10.057A13.781 13.781 0 0 0 61 212.36a13.8 13.8 0 0 0-13.76-13.78Z" class="shade90"/>
    <path fill="#A6C2EA" d="M101.355 207.76v-2.155l-27.53-.87v2l27.525 1.035.005-.01Zm9.255-6.7-40.58-1.28c-.045.655-.075 1.31-.095 1.97l40.5 1.5c.065-.72.11-1.455.175-2.19Z" class="shade50"/>
    <path fill="#28192D" d="M117.085 214.225c-5.285 0-10.58-.13-15.735-.26-6.64-.17-13.5-.34-20.265-.23a.24.24 0 0 1-.176-.07.248.248 0 0 1-.057-.271.248.248 0 0 1 .228-.159c6.77-.11 13.64.06 20.28.23 6.5.16 13.215.33 19.845.23a.25.25 0 1 1 0 .5c-1.365.025-2.74.03-4.12.03Zm-43.95-.58h-.025a33.361 33.361 0 0 0-4.625-.055.251.251 0 0 1-.03-.5 33.134 33.134 0 0 1 4.705.05.255.255 0 0 1 .145.439.254.254 0 0 1-.17.066Zm47.095 4.295a10.615 10.615 0 0 1-1.54-.145 6.246 6.246 0 0 0-2.395-.035.257.257 0 0 1-.305-.18.249.249 0 0 1 .027-.19.267.267 0 0 1 .065-.073.274.274 0 0 1 .088-.042 6.738 6.738 0 0 1 2.59.025c.785.17 1.596.18 2.385.03a.248.248 0 0 1 .19.027.24.24 0 0 1 .073.065c.02.026.034.056.042.088a.246.246 0 0 1-.087.263.239.239 0 0 1-.088.042 4.129 4.129 0 0 1-1.045.125Zm-11.185-.255c-5.885 0-11.79-.13-17.5-.245-7.54-.155-15.34-.31-23.07-.22a.26.26 0 0 1-.176-.076.263.263 0 0 1-.08-.174.252.252 0 0 1 .25-.25c7.74-.09 15.54.065 23.086.22 5.705.115 11.61.23 17.5.245a.252.252 0 0 1 .23.348.247.247 0 0 1-.142.136.252.252 0 0 1-.098.016Zm8.615 7.165H100a.25.25 0 1 1 0-.5h17.68a.25.25 0 1 1 0 .5h-.02Zm-67.69-30.21s.39-.5.15-2.355c-.24-1.855-.75-2.93-2.11-3.215-1.36-.285-5.965 2-6.745 2.865v.03a4.431 4.431 0 0 0 .12 6.035c.348.358.72.693 1.114 1 1.675 1.32 3.615 2.36 5.206 1.575 1.59-.785 0-7.77 0-7.77" class="shade90"/>
    <path fill="#fff" d="m49.69 199.45.054 3.45.135.215a2.425 2.425 0 0 1 .227 2.15 2.43 2.43 0 0 1-1.577 1.48 2.434 2.434 0 0 1-2.465-.635l-2.915-2.585a15.964 15.964 0 0 0 2.095-6.81c.335-4.095 3.9-1.215 4.445 2.735Z" class="shade0"/>
    <path fill="#28192D" d="M47.814 207.105a2.672 2.672 0 0 1-1.93-.825L43 203.71a.24.24 0 0 1-.045-.32A15.959 15.959 0 0 0 45 196.695c.155-1.9 1-2.21 1.45-2.22h.05c1.43 0 3.105 2.38 3.455 4.94.003.01.003.02 0 .03l.055 3.38.095.155a2.694 2.694 0 0 1-2.275 4.125h-.015ZM43.47 203.5l2.76 2.445a2.182 2.182 0 0 0 2.225.555 2.187 2.187 0 0 0 1.413-1.333 2.194 2.194 0 0 0-.198-1.932l-.135-.21a.25.25 0 0 1-.04-.13l-.055-3.44c-.34-2.435-1.9-4.5-2.96-4.5-.715 0-.915 1.11-.965 1.76a16.53 16.53 0 0 1-2.045 6.785Z" class="shade90"/>
    <path fill="#28192D" d="M47.91 200.64c-.605-.61-2.05-1.23-2.5-2a3.142 3.142 0 0 1-.295-.78c.065-.36.115-.735.15-1.13.315-3.895 3.755-1.085 4.27 2.67l.04 3.12a21.51 21.51 0 0 0-1.665-1.88Z" class="shade90"/>
    <path fill="#fff" d="M46.444 190.13s2.05.365 3.5 3.385c1.45 3.02 2.205 5.5.1 6.545s-4.94-.905-6.455-4.425c-1.515-3.52.785-5.135 2.855-5.505Z" class="shade0"/>
    <path fill="#28192D" d="M48.82 200.595a3.634 3.634 0 0 1-1.25-.235c-1.655-.605-3.235-2.335-4.22-4.625-.64-1.5-.68-2.775-.115-3.82a4.335 4.335 0 0 1 3.165-2.03h.1c.085 0 2.195.42 3.67 3.525 1.28 2.685 2.44 5.655 0 6.875a2.941 2.941 0 0 1-1.35.31Zm-2.38-10.21c-.645.12-2.09.5-2.765 1.77-.5.9-.445 2.04.135 3.38.93 2.165 2.405 3.795 3.935 4.355a2.674 2.674 0 0 0 2.18-.055c1.845-.92 1.285-3.06-.215-6.21-1.25-2.625-2.99-3.165-3.27-3.24Z" class="shade90"/>
    <path fill="#fff" d="M45.054 197.85a1.603 1.603 0 0 1-1.885-.355c-1.1-1.065.325-2 1.065-1.5" class="shade0"/>
    <path fill="#28192D" d="M44.34 198.265a1.9 1.9 0 0 1-1.34-.59c-.636-.615-.545-1.23-.245-1.595a1.272 1.272 0 0 1 1.624-.31.255.255 0 0 1 .07.35.26.26 0 0 1-.35.07.773.773 0 0 0-.954.2c-.216.265-.14.59.204.925a1.358 1.358 0 0 0 1.606.31.256.256 0 0 1 .19-.01.247.247 0 0 1 .14.13.25.25 0 0 1-.125.335 1.97 1.97 0 0 1-.82.185Z" class="shade90"/>
    <path fill="#fff" d="M43.41 196.435a1.659 1.659 0 0 0 .59 1.23" class="shade0"/>
    <path fill="#28192D" d="M49.528 194.229c.082-.065.083-.202.001-.306-.082-.105-.215-.137-.297-.072-.083.065-.084.202-.002.306.082.105.215.137.298.072Zm-2.672 1.461c.083-.065.084-.202.002-.306-.082-.105-.215-.137-.298-.072-.082.065-.083.202-.001.306.081.104.215.137.297.072Zm2.144 1.1a.245.245 0 0 1-.225-.145.25.25 0 0 1 .12-.335.885.885 0 0 0 .375-.415c-.095 0-.17-.025-1.64-1.45a.251.251 0 0 1-.055-.274.251.251 0 0 1 .41-.081c.59.575 1.26 1.205 1.42 1.33a.49.49 0 0 1 .332.287.5.5 0 0 1-.022.438 1.411 1.411 0 0 1-.605.625.276.276 0 0 1-.11.02Zm-1.25-3.64a.24.24 0 0 1-.096-.02.24.24 0 0 1-.08-.055.251.251 0 0 1-.054-.274.251.251 0 0 1 .054-.081c.34-.296.736-.519 1.165-.655a.249.249 0 0 1 .31.165.251.251 0 0 1-.16.315c-.352.11-.678.291-.96.53a.254.254 0 0 1-.18.075ZM44.785 195a.253.253 0 0 1-.237-.169.249.249 0 0 1 .012-.191 2.224 2.224 0 0 1 1.41-1.11.258.258 0 0 1 .265.103.26.26 0 0 1 .042.192.26.26 0 0 1-.106.165.257.257 0 0 1-.091.04 1.739 1.739 0 0 0-1.08.835.25.25 0 0 1-.215.135Z" class="shade90"/>
    <path fill="#fff" d="M44.044 201.66a7.829 7.829 0 0 0 1.62 3.34 6.307 6.307 0 0 0 2.78 1.76c-.317.249-.61.527-.875.83a2.001 2.001 0 0 0-.5 1.685s-3.33-.5-4.255-1.595a24.361 24.361 0 0 1-2.14-3.68 38.776 38.776 0 0 0 3.37-2.34Z" class="shade0"/>
    <path fill="#28192D" d="M47.09 209.525h-.035c-.14 0-3.435-.5-4.41-1.685a23.852 23.852 0 0 1-2.195-3.735.246.246 0 0 1 .1-.325 38.545 38.545 0 0 0 3.345-2.32.247.247 0 0 1 .24-.032.25.25 0 0 1 .155.187 7.588 7.588 0 0 0 1.56 3.215 5.994 5.994 0 0 0 2.65 1.67c.047.012.09.038.123.075a.246.246 0 0 1 .062.13.247.247 0 0 1-.115.25 7.52 7.52 0 0 0-.825.795 1.792 1.792 0 0 0-.415 1.46.26.26 0 0 1-.06.225.27.27 0 0 1-.081.064.263.263 0 0 1-.1.026Zm-6.09-5.43a22.019 22.019 0 0 0 2.03 3.405c.635.76 2.715 1.265 3.78 1.46a2.196 2.196 0 0 1 .58-1.56c.24-.255.425-.435.56-.565a6.662 6.662 0 0 1-2.45-1.665 7.717 7.717 0 0 1-1.59-3.085c-1.625 1.19-2.535 1.775-2.91 2.01Z" class="shade90"/>
    <path fill="#fff" d="M49.7 202.5a7.227 7.227 0 0 1-.335 2.455c-.425 1.42-1 1.81-1 1.81.44.347.852.726 1.235 1.135.22.303.39.641.5 1a10.873 10.873 0 0 0 1.56-2.025c.73-1.225.5-3.455.5-3.455l-2.46-.92Z" class="shade0"/>
    <path fill="#28192D" d="M50.095 209.145h-.065a.238.238 0 0 1-.175-.17 3.23 3.23 0 0 0-.46-.935 11.785 11.785 0 0 0-1.2-1.095.26.26 0 0 1-.095-.205.245.245 0 0 1 .115-.195 3.317 3.317 0 0 0 .91-1.68 7.044 7.044 0 0 0 .325-2.365.258.258 0 0 1 .1-.225.284.284 0 0 1 .24-.035l2.46.94a.233.233 0 0 1 .112.081.232.232 0 0 1 .048.129c0 .09.225 2.325-.54 3.605a10.71 10.71 0 0 1-1.605 2.08.241.241 0 0 1-.17.07Zm-1.365-2.415a9 9 0 0 1 1.05 1c.171.215.31.454.41.71a10.88 10.88 0 0 0 1.255-1.69c.57-.96.5-2.64.5-3.15l-1.97-.75a7.889 7.889 0 0 1-.35 2.16 4.465 4.465 0 0 1-.895 1.72Z" class="shade90"/>
    <path fill="#fff" d="m42.872 194.127-.439.24.946 1.728.438-.239-.945-1.729Z" class="shade0"/>
    <path fill="#28192D" d="m42.62 195.875 1.684.545.41-.145-1.094-2.025s2.315-1.03 2.415-1.87a2.625 2.625 0 0 0 0-1.15s4.375 0 3.77-2.305a2.391 2.391 0 0 0-1.313-1.7 2.393 2.393 0 0 0-2.148.035 1.295 1.295 0 0 0-.5 1.13 8.815 8.815 0 0 0-2.65.455c-1.07.44-1.07 1.03-1.07 1.03s-.6 0-1.425.955c-.825.955.44 3.67 1.92 5.045Zm6.13 2.48a4.16 4.16 0 0 1-.84-.09.244.244 0 0 1-.195-.22.253.253 0 0 1 .155-.255l.685-.3c.391-.19.748-.446 1.055-.755a.243.243 0 0 1 .177-.076.246.246 0 0 1 .178.076.25.25 0 0 1 .073.175.244.244 0 0 1-.073.175 4.38 4.38 0 0 1-1 .77 1.36 1.36 0 0 0 .47-.105l.605-.265a.248.248 0 0 1 .19-.005c.062.023.112.07.14.13a.257.257 0 0 1-.13.33l-.605.27a2.192 2.192 0 0 1-.885.145Z" class="shade90"/>
    <path fill="#fff" d="m116.705 196.29 10.25-21.4-19.545 21.325" class="shade0"/>
    <path fill="#28192D" d="M116.705 196.54a.29.29 0 0 1-.11 0 .268.268 0 0 1-.078-.059.258.258 0 0 1-.062-.182.252.252 0 0 1 .025-.094l9.5-19.89-18.405 20.09a.259.259 0 0 1-.177.092.246.246 0 0 1-.246-.15.259.259 0 0 1-.001-.199.246.246 0 0 1 .059-.083l19.54-21.325a.25.25 0 0 1 .322-.037.246.246 0 0 1 .088.312l-10.25 21.405a.247.247 0 0 1-.205.12Zm14.735-94.155h-.735a.258.258 0 0 1-.095-.021.271.271 0 0 1-.079-.056.262.262 0 0 1-.051-.083.256.256 0 0 1 .144-.323.243.243 0 0 1 .096-.017c7.04.185 11.06-2.365 11.1-2.39a.25.25 0 0 1 .334.082.253.253 0 0 1 .036.181.251.251 0 0 1-.1.157c-.16.085-3.92 2.47-10.65 2.47Z" class="shade90"/>
  </g>
  <defs>
    <clipPath id="a" class="a">
      <path fill="#fff" d="M0 0h400v300H0z"/>
    </clipPath>
  </defs>
</svg>
