<svg xmlns="http://www.w3.org/2000/svg" width="400" height="300" fill="none" viewBox="0 0 400 300">
  <g class="Guy with Phone Account">
    <path fill="#F6D4A0" d="M13.305 293.27h344.44s22.155-49.845 20.94-92.935c-.555-19.705-29.4-37.17-48.25-10.925-22.38 31.155-41.32 80-42.64 43.775-2.425-66.765-40.97 36.115-44.61 2.73-3.64-33.385-122.595 40.745-132.615 14.035-15.175-40.45-49.315 33.55-75.415 12.29-14.655-11.92-21.85 31.03-21.85 31.03Z" class="shade10"/>
    <path fill="#fff" d="M108.77 93.315h-2.345a1.28 1.28 0 0 0-1.28 1.28v18.28c0 .707.573 1.28 1.28 1.28h2.345a1.28 1.28 0 0 0 1.28-1.28v-18.28a1.28 1.28 0 0 0-1.28-1.28Z" class="shade0"/>
    <path fill="#28192D" d="M108.77 114.405h-2.34a1.534 1.534 0 0 1-1.535-1.53V94.6a1.537 1.537 0 0 1 1.535-1.535h2.34a1.536 1.536 0 0 1 1.53 1.535v18.275a1.535 1.535 0 0 1-1.53 1.53Zm-2.34-20.84a1.034 1.034 0 0 0-1.035 1.035v18.275a1.033 1.033 0 0 0 1.035 1.03h2.34a1.038 1.038 0 0 0 1.03-1.03V94.6a1.036 1.036 0 0 0-1.03-1.035h-2.34Z" class="shade90"/>
    <path fill="#fff" d="M108.77 65.755h-2.345a1.28 1.28 0 0 0-1.28 1.28v18.28c0 .707.573 1.28 1.28 1.28h2.345a1.28 1.28 0 0 0 1.28-1.28v-18.28a1.28 1.28 0 0 0-1.28-1.28Z" class="shade0"/>
    <path fill="#28192D" d="M108.77 86.845h-2.34a1.538 1.538 0 0 1-1.535-1.535V67.04a1.537 1.537 0 0 1 1.535-1.535h2.34a1.535 1.535 0 0 1 1.53 1.535v18.27a1.534 1.534 0 0 1-1.53 1.535ZM106.43 66a1.034 1.034 0 0 0-1.035 1.035v18.27a1.035 1.035 0 0 0 1.035 1.035h2.34a1.035 1.035 0 0 0 1.03-1.035V67.04a1.036 1.036 0 0 0-1.03-1.035L106.43 66Z" class="shade90"/>
    <path fill="#fff" d="M249.775 65.755h-2.345a1.28 1.28 0 0 0-1.28 1.28V96.27c0 .707.573 1.28 1.28 1.28h2.345a1.28 1.28 0 0 0 1.28-1.28V67.035a1.28 1.28 0 0 0-1.28-1.28Z" class="shade0"/>
    <path fill="#28192D" d="M249.77 97.8h-2.34a1.528 1.528 0 0 1-1.53-1.53V67.04a1.534 1.534 0 0 1 1.53-1.535h2.34a1.538 1.538 0 0 1 1.535 1.535v29.23a1.532 1.532 0 0 1-1.535 1.53ZM247.43 66a1.034 1.034 0 0 0-1.03 1.035v29.23a1.031 1.031 0 0 0 1.03 1.03h2.34a1.033 1.033 0 0 0 1.035-1.03V67.04a1.035 1.035 0 0 0-1.035-1.035L247.43 66Z" class="shade90"/>
    <path fill="#fff" d="M108.77 45.005h-2.345a1.28 1.28 0 0 0-1.28 1.28v10.81c0 .707.573 1.28 1.28 1.28h2.345a1.28 1.28 0 0 0 1.28-1.28v-10.81a1.28 1.28 0 0 0-1.28-1.28Z" class="shade0"/>
    <path fill="#28192D" d="M108.77 58.625h-2.34a1.535 1.535 0 0 1-1.535-1.53V46.29a1.537 1.537 0 0 1 1.535-1.535h2.34a1.535 1.535 0 0 1 1.53 1.535v10.805a1.53 1.53 0 0 1-1.53 1.53Zm-2.34-13.37a1.034 1.034 0 0 0-1.035 1.035v10.805a1.033 1.033 0 0 0 1.035 1.03h2.34a1.03 1.03 0 0 0 1.03-1.03V46.29a1.036 1.036 0 0 0-1.03-1.035h-2.34Z" class="shade90"/>
    <path fill="#fff" d="M219.79 10.26h-82.335c-15.981 0-28.935 12.955-28.935 28.935v225.37c0 15.98 12.954 28.935 28.935 28.935h82.335c15.98 0 28.935-12.955 28.935-28.935V39.195c0-15.98-12.955-28.935-28.935-28.935Z" class="shade0"/>
    <path fill="#28192D" d="M219.79 293.75h-82.335a29.216 29.216 0 0 1-29.185-29.185V39.19A29.21 29.21 0 0 1 137.455 10h82.335A29.215 29.215 0 0 1 249 39.19v225.375a29.223 29.223 0 0 1-29.21 29.185ZM137.455 10.5a28.713 28.713 0 0 0-28.685 28.68v225.385a28.712 28.712 0 0 0 28.685 28.685h82.335a28.722 28.722 0 0 0 28.71-28.685V39.19a28.718 28.718 0 0 0-28.71-28.69h-82.335Z" class="shade90"/>
    <path fill="#28192D" d="M129.74 288.735h97.215a16.697 16.697 0 0 0 15.407-10.341A16.696 16.696 0 0 0 243.62 272V29.31a16.699 16.699 0 0 0-16.665-16.74H129.74a16.7 16.7 0 0 0-16.66 16.74V272a16.702 16.702 0 0 0 16.66 16.735Z" class="shade90"/>
    <path fill="#fff" d="M227.26 15.785h-11.58A2.188 2.188 0 0 0 213.5 18a8.001 8.001 0 0 1-8 8h-53.815a7.995 7.995 0 0 1-5.673-2.334A8 8 0 0 1 143.66 18a2.19 2.19 0 0 0-2.19-2.19h-11.58a13.627 13.627 0 0 0-12.594 8.417 13.617 13.617 0 0 0-1.036 5.218V270.6a13.622 13.622 0 0 0 8.413 12.597 13.632 13.632 0 0 0 5.217 1.038h97.37a13.635 13.635 0 0 0 13.635-13.635V29.42a13.636 13.636 0 0 0-13.635-13.635Z" class="shade0"/>
    <path fill="#fff" d="M227.26 15.785h-11.58A2.188 2.188 0 0 0 213.5 18a8.001 8.001 0 0 1-8 8h-53.815a7.995 7.995 0 0 1-5.673-2.334A8 8 0 0 1 143.66 18a2.19 2.19 0 0 0-2.19-2.19h-11.58a13.627 13.627 0 0 0-12.594 8.417 13.617 13.617 0 0 0-1.036 5.218V270.6a13.622 13.622 0 0 0 8.413 12.597 13.632 13.632 0 0 0 5.217 1.038h97.37a13.635 13.635 0 0 0 13.635-13.635V29.42a13.636 13.636 0 0 0-13.635-13.635Z" class="shade0"/>
    <path fill="#28192D" d="M227.26 284.5h-97.37a13.9 13.9 0 0 1-12.834-8.582A13.883 13.883 0 0 1 116 270.6V29.42a13.9 13.9 0 0 1 13.88-13.885h11.58a2.448 2.448 0 0 1 2.269 1.522c.122.3.184.62.181.943a7.781 7.781 0 0 0 7.775 7.77h53.785a7.778 7.778 0 0 0 7.77-7.77 2.445 2.445 0 0 1 2.44-2.44h11.58a13.9 13.9 0 0 1 13.885 13.885V270.6c0 3.684-1.462 7.217-4.066 9.823a13.896 13.896 0 0 1-9.819 4.077ZM129.89 16.035A13.395 13.395 0 0 0 116.5 29.42V270.6a13.377 13.377 0 0 0 1.018 5.126 13.38 13.38 0 0 0 7.246 7.252A13.4 13.4 0 0 0 129.89 284h97.37a13.4 13.4 0 0 0 13.385-13.385V29.42a13.397 13.397 0 0 0-13.385-13.385h-11.58A1.94 1.94 0 0 0 213.74 18a8.283 8.283 0 0 1-8.27 8.27h-53.785A8.28 8.28 0 0 1 143.41 18a1.94 1.94 0 0 0-1.94-1.94l-11.58-.025Z" class="shade90"/>
    <path fill="#A6C2EA" d="m138.535 247.065 82.81.045c2.69 0 4.86 2.675 4.845 5.97 0 3.3-2.2 5.975-4.89 5.975L138.4 259c-2.69 0-4.84-2.68-4.8-6 .04-3.265 2.245-5.935 4.935-5.935Z" class="shade50"/>
    <path fill="#fff" d="M251.3 33.465c7.721 0 13.98-6.26 13.98-13.98 0-7.721-6.259-13.98-13.98-13.98s-13.98 6.259-13.98 13.98c0 7.72 6.259 13.98 13.98 13.98Z" class="shade0"/>
    <path fill="#fff" d="M251.3 33.465c7.721 0 13.98-6.26 13.98-13.98 0-7.721-6.259-13.98-13.98-13.98s-13.98 6.259-13.98 13.98c0 7.72 6.259 13.98 13.98 13.98Z" class="shade0"/>
    <path fill="#28192D" d="M251.285 33.715a14.233 14.233 0 0 1-13.544-9.903 14.236 14.236 0 0 1 5.301-15.918 14.23 14.23 0 0 1 21.708 16.23 14.26 14.26 0 0 1-13.465 9.59Zm.025-27.96a13.732 13.732 0 0 0-13.706 14.71 13.735 13.735 0 0 0 8.297 11.644 13.729 13.729 0 0 0 18.379-8.15 13.726 13.726 0 0 0-12.97-18.204Z" class="shade90"/>
    <path fill="#28192D" d="M251.285 33.715a14.233 14.233 0 0 1-13.544-9.903 14.236 14.236 0 0 1 5.301-15.918 14.23 14.23 0 0 1 21.708 16.23 14.26 14.26 0 0 1-13.465 9.59Zm.025-27.96a13.732 13.732 0 0 0-13.706 14.71 13.735 13.735 0 0 0 8.297 11.644 13.729 13.729 0 0 0 18.379-8.15 13.726 13.726 0 0 0-12.97-18.204Z" class="shade90"/>
    <path fill="#28192D" d="M242.1 13.81c1.785 3.5 3.5 7.23 5.055 10.84l-.555-.22c1.3-.57 2.6-1.145 3.92-1.67a299.74 299.74 0 0 1 7.915-3.16c1.265-.42 2.83-1.15 4.03-1.405l-15.725 6.68c0-.05-4.785-11.065-4.64-11.065Z" class="shade90"/>
    <path fill="#A6C2EA" d="M231.65 89.335c-.08 24.945-16.925 46.135-39.835 52.805a54.828 54.828 0 0 1-15.375 2.185A54.275 54.275 0 0 1 135 125.13a52.142 52.142 0 0 1-3-3.855 54.074 54.074 0 0 1-9.865-31.95c.385-30.095 25.145-54.455 55.19-54.46a54.284 54.284 0 0 1 54.325 54.47Z" class="shade50"/>
    <path fill="#28192D" d="M176.44 144.575a54.571 54.571 0 0 1-41.635-19.28 55.474 55.474 0 0 1-3-3.875 54.152 54.152 0 0 1-9.91-32.1c.39-30.16 25.26-54.7 55.44-54.705a54.535 54.535 0 0 1 54.565 54.72c-.075 24.395-16.53 46.21-40 53.045a55.247 55.247 0 0 1-15.46 2.195Zm.895-109.46c-29.91 0-54.555 24.32-54.94 54.21a53.66 53.66 0 0 0 9.82 31.805 53.302 53.302 0 0 0 2.97 3.84 54.291 54.291 0 0 0 56.56 16.93c23.255-6.775 39.58-28.4 39.655-52.565a54.035 54.035 0 0 0-33.334-50.1 54.03 54.03 0 0 0-20.731-4.12Z" class="shade90"/>
    <path fill="#F6D4A0" d="M203.89 96.35 201 109.235c-2.28 6.5-6.69 23.3-9.175 33a56.477 56.477 0 0 1-15.375 2.115 55.18 55.18 0 0 1-35.875-13.07c-2.675-.285-5.06-1.15-6.575-2.435l1-3.05 2.35-7.135s6.85-15.75 12.97-26.915c2.71-4.935 5.27-8.975 7.035-10.365 5.76-4.55 18.79-1.215 22.12 0 3.33 1.215 13.64 8.5 21.22 12.12a7.426 7.426 0 0 1 3.195 2.85Z" class="shade10"/>
    <path fill="#28192D" d="M176.44 144.575a55.622 55.622 0 0 1-35.975-13.075c-2.72-.305-5.13-1.205-6.635-2.5l-.13-.11 3.405-10.35c.08-.18 6.935-15.905 13-26.955 3.105-5.665 5.5-9.18 7.1-10.445 5.885-4.645 19.135-1.21 22.365-.035 1.605.58 4.785 2.54 8.47 4.81 4.125 2.54 8.8 5.415 12.765 7.32a7.682 7.682 0 0 1 3.31 2.97l.055.085-.025.1-2.9 12.885c-2.295 6.54-6.735 23.47-9.175 33l-.04.14-.135.04a57.058 57.058 0 0 1-15.455 2.12Zm-42.16-15.835c1.455 1.165 3.74 2 6.315 2.265h.075l.06.045a55.098 55.098 0 0 0 35.71 13 56.515 56.515 0 0 0 15.17-2.05c2.45-9.545 6.865-26.36 9.145-32.855l2.87-12.76a7.202 7.202 0 0 0-3.045-2.695c-4-1.915-8.68-4.8-12.815-7.345-3.66-2.255-6.82-4.2-8.38-4.77-3.17-1.15-16.18-4.535-21.88-.035-1.55 1.225-3.895 4.685-6.97 10.29-6.045 11.03-12.89 26.735-12.96 26.89l-3.295 10.02Z" class="shade90"/>
    <path fill="#F6D4A0" d="M162 104.285s-9.165 27.89-14.62 35.165c-3.15 4.195-10.595-32.74-7.53-39.565" class="shade10"/>
    <path fill="#28192D" d="M146.85 140.03a.965.965 0 0 1-.47-.135c-3.445-2.035-9.745-33.45-6.755-40.115l.455.205c-2.805 6.265 3.325 37.57 6.555 39.5.18.105.34.12.55-.16 5.365-7.16 14.5-34.815 14.585-35.095l.475.155c-.095.28-9.245 28-14.66 35.24a.918.918 0 0 1-.735.405Z" class="shade90"/>
    <path fill="#ECA3B5" d="M226.25 166.505h-99.045v5.005h99.045v-5.005Z" class="shade40"/>
    <path fill="#28192D" d="m226.345 160.58 2.2 9.71s-8.27 1.5-13.885.605-11.305-4.095-11.305-4.095l-2.43-4.25" class="shade90"/>
    <path fill="#ECA3B5" d="M202.165 149.06h-50.88v7.715h50.88v-7.715Z" class="shade40"/>
    <path fill="#fff" d="m138.61 202.19 82.655.035c2.685 0 4.85 2.665 4.84 5.95 0 3.285-2.2 5.95-4.885 5.95l-82.72-.04c-2.685 0-4.83-2.67-4.79-5.955.015-3.285 2.22-5.94 4.9-5.94Z" class="shade0"/>
    <path fill="#28192D" d="m221.22 214.375-82.72-.04a4.555 4.555 0 0 1-3.235-1.415 6.685 6.685 0 0 1-1.805-4.79c.04-3.415 2.36-6.19 5.17-6.19l82.655.035a4.602 4.602 0 0 1 3.245 1.415 6.774 6.774 0 0 1 1.845 4.785c-.035 3.42-2.335 6.2-5.155 6.2Zm-82.61-11.935c-2.54 0-4.635 2.555-4.67 5.695a6.213 6.213 0 0 0 1.66 4.435 4.055 4.055 0 0 0 2.88 1.265l82.74.04c2.545 0 4.625-2.555 4.635-5.7a6.247 6.247 0 0 0-1.7-4.43 4.091 4.091 0 0 0-2.89-1.27l-82.655-.035Zm82.69 56.865-82.9-.045a4.57 4.57 0 0 1-3.235-1.42 6.735 6.735 0 0 1-1.815-4.81c.04-3.425 2.365-6.215 5.18-6.215l82.81.045a4.602 4.602 0 0 1 3.245 1.415 6.753 6.753 0 0 1 1.85 4.805c-.005 3.42-2.31 6.225-5.135 6.225Zm-82.77-12c-2.545 0-4.645 2.565-4.68 5.72a6.242 6.242 0 0 0 1.65 4.475 4 4 0 0 0 2.88 1.27l82.9.045c2.55 0 4.63-2.57 4.64-5.725a6.268 6.268 0 0 0-1.705-4.455 4.053 4.053 0 0 0-2.89-1.265l-82.81-.045.015-.02ZM336.81 293.1H14.52v.5h322.29v-.5Z" class="shade90"/>
    <path fill="#fff" d="M195.43 15.925h-33.46v1.515h33.46v-1.515Z" class="shade0"/>
    <path fill="#28192D" d="m390.16 198.875-.5-.12c.035-.125 3.085-12.91-3.5-22.74-3.96-5.91-10.575-9.59-19.655-10.94C350.785 162.74 339.32 170 332.5 176.5a57.673 57.673 0 0 0-11.225 14.85l-.45-.22a58.254 58.254 0 0 1 11.32-15c6.93-6.58 18.53-13.93 34.465-11.56 9.225 1.37 15.955 5.125 20 11.16 6.685 10.03 3.58 23.015 3.55 23.145Zm-347.035 52.95a6.32 6.32 0 0 1-3.715-1.215c-7.545-5.325-21.035-.92-21.17-.875l-.16-.5c.14-.045 13.865-4.53 21.62.945a5.91 5.91 0 0 0 4.735 1c6.175-1.265 12.145-10.835 12.205-10.93l.425.265c-.25.4-6.15 9.85-12.53 11.15a6.895 6.895 0 0 1-1.41.16Z" class="shade90"/>
    <path fill="#A6C2EA" d="M87.55 137.955c-.2 8.085-1.6 15.42-5.44 22.14a30.771 30.771 0 0 1-15.154 13.35 3.297 3.297 0 0 1-2.73 0c-9-3.805-14.835-10.5-18-19.63a48.324 48.324 0 0 1-2.47-19.04 1.5 1.5 0 0 1 1.38-1.55c4.794-.945 9.534-2.135 13.89-4.415 1.97-1.03 3.75-2.43 5.58-3.72.73-.5 1.265-.635 1.885-.05 3.39 3.195 7.56 4.915 11.904 6.25 2.5.765 5.086 1.315 7.636 1.94 1.04.255 1.325.555 1.38 1.625.06 1.18.09 2.36.14 3.1Zm-3.59 1.43v-.96c.04-1.815-.09-2-1.84-2.415-5.57-1.37-10.96-3.165-15.764-6.425a1.864 1.864 0 0 0-1.535 0c-.755.403-1.487.849-2.19 1.335-4.35 2.5-9.066 4-13.92 5.15-1.26.3-1.5.595-1.5 1.895a44.092 44.092 0 0 0 2.575 15.31c2.694 7.35 7.39 12.925 14.53 16.33a2.641 2.641 0 0 0 2.45.045 27.003 27.003 0 0 0 11.944-10.765c3.556-5.935 4.94-12.475 5.25-19.5Z" class="shade50"/>
    <path fill="#28192D" d="M65.595 174a3.734 3.734 0 0 1-1.465-.315c-8.77-3.705-14.875-10.36-18.145-19.78a48.932 48.932 0 0 1-2.5-19.135 1.74 1.74 0 0 1 1.6-1.77c4.53-.895 9.34-2.04 13.825-4.39a35.87 35.87 0 0 0 4.315-2.82c.41-.295.82-.595 1.235-.885.665-.465 1.39-.79 2.205-.025 3.565 3.36 7.97 5 11.8 6.19 1.835.56 3.745 1 5.59 1.45.68.16 1.355.32 2.035.5 1.175.285 1.5.685 1.57 1.85.04.87.08 1.735.11 2.43l.03.685c-.225 9.04-1.965 16.115-5.475 22.255a31.119 31.119 0 0 1-15.275 13.455c-.46.199-.954.303-1.455.305Zm.06-49.09c-.335.037-.65.175-.905.395-.415.29-.825.585-1.23.88a36.947 36.947 0 0 1-4.38 2.86c-4.54 2.375-9.39 3.535-13.96 4.435a1.258 1.258 0 0 0-1.18 1.31 48.446 48.446 0 0 0 2.455 18.945c3.22 9.275 9.23 15.83 17.865 19.5a3.005 3.005 0 0 0 2.53 0 30.626 30.626 0 0 0 15.035-13.245c3.47-6.065 5.185-13.06 5.41-22l-.03-.67c-.03-.69-.07-1.56-.11-2.425-.04-.865-.235-1.155-1.19-1.39l-2.03-.5c-1.855-.435-3.77-.89-5.62-1.46-3.89-1.19-8.355-2.87-12-6.3a.97.97 0 0 0-.66-.345v.01Z" class="shade90"/>
    <path fill="#fff" d="M83.96 139.385c-.31 7.025-1.695 13.565-5.25 19.5a27.003 27.003 0 0 1-11.945 10.765 2.627 2.627 0 0 1-2.45-.045c-7.14-3.405-11.835-9-14.53-16.33a44.092 44.092 0 0 1-2.575-15.31c0-1.3.245-1.595 1.5-1.895 4.855-1.14 9.57-2.645 13.92-5.15a22.54 22.54 0 0 1 2.19-1.335 1.863 1.863 0 0 1 1.535 0c4.805 3.26 10.195 5.055 15.765 6.425 1.75.43 1.88.6 1.84 2.415-.005.385 0 .77 0 .96Zm-33.58 2.065a32.153 32.153 0 0 0 1.055 8.68c1.915 7.26 5.965 12.775 13 15.855a2.65 2.65 0 0 0 2.295 0 21.1 21.1 0 0 0 9.455-7.78c3.805-5.785 4.895-12.255 4.595-19.05-.035-.69-.46-.95-1.07-1.085-1.5-.345-3.065-.66-4.56-1.105-3.245-.975-6.385-2.165-8.925-4.535-.5-.46-.91-.28-1.405.09a25.588 25.588 0 0 1-3.195 2.21c-3.135 1.72-6.565 2.635-10.055 3.32-.81.155-1.2.54-1.185 1.36.005.685-.005 1.365-.005 2.04Z" class="shade0"/>
    <path fill="#A6C2EA" d="M50.38 141.45v-2.035c0-.82.375-1.205 1.185-1.36 3.5-.685 6.92-1.6 10.055-3.32a25.695 25.695 0 0 0 3.195-2.21c.5-.37.91-.55 1.405-.09 2.54 2.37 5.68 3.56 8.925 4.535 1.5.445 3.035.76 4.56 1.105.61.135 1.035.395 1.07 1.085.3 6.795-.79 13.265-4.595 19.05a21.101 21.101 0 0 1-9.455 7.79 2.65 2.65 0 0 1-2.295 0c-7.03-3.08-11.08-8.595-13-15.855a32.155 32.155 0 0 1-1.05-8.695Zm13.33 11.61c-.32-.4-.585-.715-.835-1.035-1.245-1.615-2.5-3.235-3.73-4.845-.83-1.065-2-1.27-2.935-.525s-1.03 1.885-.24 2.915c2.064 2.693 4.14 5.382 6.23 8.065a1.922 1.922 0 0 0 1.59.836 1.926 1.926 0 0 0 1.59-.836c.165-.205.305-.435.455-.65l9.22-13.345c.74-1.075.61-2.24-.32-2.89-1-.71-2.135-.5-2.915.605-1.225 1.74-2.425 3.5-3.635 5.245l-4.475 6.46Z" class="shade50"/>
    <path fill="#fff" d="m63.71 153.06 4.5-6.5c1.21-1.75 2.41-3.5 3.635-5.245.78-1.1 1.9-1.315 2.915-.605.93.65 1.06 1.815.32 2.89l-9.22 13.345c-.15.215-.29.445-.455.65a1.93 1.93 0 0 1-3.18 0 730.103 730.103 0 0 1-6.23-8.065c-.79-1.03-.68-2.175.24-2.915.92-.74 2.105-.54 2.935.525 1.245 1.61 2.5 3.23 3.73 4.845.225.36.49.675.81 1.075Z" class="shade0"/>
    <path fill="#28192D" d="M63.77 158.705a2.229 2.229 0 0 1-1.755-.92c-1.895-2.43-3.935-5.07-6.235-8.065-.86-1.125-.75-2.435.285-3.26a2.117 2.117 0 0 1 1.585-.5 2.586 2.586 0 0 1 1.7 1.055l2.26 2.93 1.5 1.91c.165.215.33.42.5.65l.1.12 5.23-7.58c.895-1.295 1.785-2.59 2.69-3.87.85-1.2 2.13-1.46 3.265-.67 1.035.725 1.19 2.06.38 3.235l-9.35 13.54c-.105.16-.215.32-.335.47a2.29 2.29 0 0 1-1.82.955Zm-6.365-12.24c-.38.005-.748.141-1.04.385-.815.655-.895 1.66-.2 2.565 2.3 3 4.34 5.635 6.235 8.065a1.727 1.727 0 0 0 1.36.725 1.822 1.822 0 0 0 1.415-.75c.11-.14.21-.29.31-.435l.135-.205 9.215-13.345c.66-.95.555-1.97-.255-2.54-.91-.64-1.87-.435-2.565.545a410.296 410.296 0 0 0-2.685 3.87l-5.605 8.155-.5-.64c-.19-.23-.36-.445-.5-.66l-1.5-1.91c-.75-.98-1.503-1.957-2.26-2.93a2.063 2.063 0 0 0-1.365-.86.993.993 0 0 0-.195-.035Z" class="shade90"/>
    <path fill="#ECA3B5" d="M295.37 219a4.142 4.142 0 0 1-.755 1.285c-.575 1.575-2 2.55-3.61 2.945l26.885 31.035 4.59-4L295.37 219Z" class="shade40"/>
    <path fill="#28192D" d="m317.865 254.59-27.315-31.53.395-.095c1.69-.42 2.94-1.435 3.435-2.795l.045-.075c.305-.357.546-.765.71-1.205l.15-.4 27.545 31.795-4.965 4.305Zm-26.41-31.25 26.46 30.545 4.21-3.65-26.68-30.795a4.277 4.277 0 0 1-.61.945 5.06 5.06 0 0 1-3.38 2.955Z" class="shade90"/>
    <path fill="#ECA3B5" d="M261.145 184.1a25.498 25.498 0 0 0 1.047 39.41 25.508 25.508 0 0 0 28.262 2.027 25.502 25.502 0 0 0-10.79-47.597 25.503 25.503 0 0 0-18.519 6.16ZM293.11 221a23.316 23.316 0 1 1 2.355-32.89A23.323 23.323 0 0 1 293.11 221Z" class="shade40"/>
    <path fill="#28192D" d="M277.86 229.115a25.736 25.736 0 0 1-24.128-16.744A25.738 25.738 0 0 1 261 183.915a25.757 25.757 0 0 1 23.23-5.503 25.747 25.747 0 0 1 19.196 28.153 25.76 25.76 0 0 1-13.61 19.614 25.748 25.748 0 0 1-11.936 2.936h-.02Zm-16.715-45 .16.19a25.254 25.254 0 0 0-7.423 27.056 25.259 25.259 0 0 0 8.467 11.967 25.25 25.25 0 0 0 34.576-36.473 25.282 25.282 0 0 0-35.62-2.55l-.16-.19Zm16.73 42.845c-.57 0-1.14 0-1.715-.065a23.379 23.379 0 1 1 1.715.065Zm-.07-46.635a23.083 23.083 0 0 0-10.681 2.643 23.074 23.074 0 0 0-12.167 17.57 23.071 23.071 0 0 0 7.484 20.019 23.06 23.06 0 0 0 20.709 5.28 23.061 23.061 0 0 0 9.795-5.012 23.064 23.064 0 0 0-15.14-40.515v.015Z" class="shade90"/>
    <path fill="#28192D" d="m298.065 197.31-6.95-3.43c-5.825-2.88-11.845-5.855-17.68-8.675l.215-.45c5.84 2.825 11.86 5.8 17.685 8.675l6.955 3.43-.225.45Zm-7.832 2.381-.21.455 7.853 3.615.209-.454-7.852-3.616Zm-11.292-5.21-.21.455 5.755 2.649.209-.454-5.754-2.65Z" class="shade90"/>
    <path fill="#F6D4A0" d="M308.56 105.855a6.03 6.03 0 1 0 0-12.06 6.03 6.03 0 0 0 0 12.06ZM74.885 49.71a6.03 6.03 0 1 0 0-12.06 6.03 6.03 0 0 0 0 12.06ZM176.27 96.9s-1.62-5.615-2.73-8.65c-1.11-3.035-3.24-9-3.24-9l-5.6-.25s5-2.765 10.255-2.765c5.255 0 17.3 8.595 18.615 10 1.315 1.405 1.11 3.945 1.11 3.945s-3.755 4.535-7 5.955S180.215 99 180.215 99" class="shade10"/>
    <path fill="#28192D" d="m180.295 99.21-.16-.475c.04 0 4.265-1.44 7.45-2.835 2.945-1.285 6.385-5.275 6.85-5.825 0-.425.05-2.5-1.05-3.68-1.385-1.5-13.39-9.93-18.43-9.93-3.875 0-7.65 1.545-9.285 2.315l4.83.22.055.16c.025.06 2.14 6 3.24 9s2.705 8.615 2.705 8.67l-.5.14c0-.055-1.63-5.64-2.725-8.635-1-2.725-2.84-7.88-3.185-8.845l-6.31-.3.77-.425c.05-.03 5.11-2.8 10.375-2.8s17.34 8.5 18.795 10.095c1.375 1.5 1.19 4 1.18 4.135v.075l-.05.06c-.155.19-3.835 4.605-7.085 6.025s-7.43 2.84-7.47 2.855Z" class="shade90"/>
    <path fill="#28192D" d="M173.5 80.215a13.498 13.498 0 0 0-5.295-.82l-.045-.5a13.708 13.708 0 0 1 5.525.855l-.185.465Z" class="shade90"/>
    <path fill="#fff" d="m170.355 107.635-.5-.115.2-.815c1.635-6.75 3.33-13.73 3.675-20.5h.5c-.35 6.805-2.05 13.81-3.69 20.585l-.185.845Z" class="shade0"/>
    <path fill="#fff" d="M173.97 87.14a.885.885 0 1 0 0-1.77.885.885 0 0 0 0 1.77ZM187.23 112l-.5-.12c1.755-7.205 2.735-13.095 3.09-18.54l.5.03c-.32 5.48-1.32 11.4-3.09 18.63Z" class="shade0"/>
    <path fill="#fff" d="M190.05 94.27a.885.885 0 1 0 0-1.77.885.885 0 0 0 0 1.77Zm-21.735 48.28-.475-.16c6.89-20.675 10.975-47.135 11-47.4l.5.075c-.03.265-4.12 26.765-11.025 47.485Z" class="shade0"/>
    <path fill="#28192D" d="M211.625 189.84h-74.2v.5h74.2v-.5Zm0 49.39h-74.2v.5h74.2v-.5Z" class="shade90"/>
    <path fill="#fff" d="M200.69 169.115s-6.435-.955-9.19-.615c-2.755.34-11.1 1.32-15.12 1.765-4.02.445-1.84 4.825 2 4.765a19.402 19.402 0 0 1 6.825 1.14 47.373 47.373 0 0 0 7.05 3.63c4.535 1.945 7.11 1.04 7.11 1.04" class="shade0"/>
    <path fill="#28192D" d="M197.61 181.295a13.997 13.997 0 0 1-5.5-1.275 48.94 48.94 0 0 1-7.07-3.635 19.122 19.122 0 0 0-6.705-1.115c-2.5.05-4.29-1.64-4.385-3.165-.075-1.14.81-1.925 2.365-2.095 4-.445 12.37-1.44 15.115-1.765 2.745-.325 9 .585 9.28.625l-.075.5c-.065 0-6.435-.945-9.145-.625-2.71.32-11.1 1.32-15.12 1.765-1.275.14-1.975.715-1.925 1.57.075 1.15 1.585 2.72 3.88 2.695a19.226 19.226 0 0 1 6.92 1.16l.05.025a48.161 48.161 0 0 0 7 3.605c4.395 1.885 6.905 1.045 6.93 1.035l.165.475a6.079 6.079 0 0 1-1.78.22Zm-61.06-95.36-7.785-5.695s3.75-3.13 7-5.555S145.91 68.5 145.91 68.5l-8.975 16.15" class="shade90"/>
    <path fill="#fff" d="M199.33 168s-6.45.14-11.17 2.95c-9.86 5.875-7.31 12.93-1.88 17.745a4.62 4.62 0 0 1 2 .43 38.885 38.885 0 0 1 4.79 2.54c.66.425 1.355.87 1.97 1.355l.065.05h.03c.355.17.675.615 1.06.5 2.735-.645 14.95-18.5 14.95-18.5L199.33 168Z" class="shade0"/>
    <path fill="#28192D" d="M196.08 193.86a1.333 1.333 0 0 1-.755-.35 1.673 1.673 0 0 0-.31-.21l-.14-.095c-.555-.435-1.18-.84-1.785-1.235l-.165-.11a40.086 40.086 0 0 0-4.76-2.5 4.344 4.344 0 0 0-1.88-.405h-.1l-.075-.06c-3.42-3.04-5.14-6.445-4.84-9.59.3-3.145 2.575-6.065 6.765-8.56 4.715-2.81 11.225-3 11.29-3h.075l.06.04L211.5 175l-.15.22c-.5.73-12.3 17.94-15.095 18.605a.612.612 0 0 1-.175.035Zm-.85-1c.141.073.275.16.4.26.185.14.36.275.5.245 2.13-.5 11.15-13.09 14.65-18.185l-11.5-6.93c-.715 0-6.635.33-10.975 2.915-4.045 2.405-6.24 5.16-6.525 8.175-.285 3.015 1.355 6.195 4.61 9.105a4.918 4.918 0 0 1 2 .45 40.474 40.474 0 0 1 4.82 2.56l.17.105c.615.4 1.245.81 1.82 1.265l.03.035Z" class="shade90"/>
    <path fill="#fff" d="m208.95 178.105 21.39-19.7-23.79-.975-5.975 4.02-5.91 8.055" class="shade0"/>
    <path fill="#28192D" d="m209.12 178.29-.34-.365 20.945-19.295-23.105-.95-5.87 3.955-5.88 8.02-.405-.295 5.97-8.115 6.045-4.07.08.005 24.39 1-21.83 20.11Z" class="shade90"/>
    <path fill="#F6D4A0" d="M201.465 94s26.42 10.685 34.345 14.975c7.925 4.29 11.875 11.895 8.69 22.965-3.185 11.07-16.19 38.11-16.19 38.11s-2.33-2.07-11.155-2.5c-8.825-.43-16.58-6.075-16.58-6.075s5.045-8.5 7.375-12.86c2.33-4.36 10.05-19.925 10.05-19.925l-19.675-10.295L201.46 102" class="shade10"/>
    <path fill="#28192D" d="m228.395 170.445-.25-.22s-2.415-2.025-11-2.455c-8.795-.435-16.635-6.06-16.715-6.115l-.185-.135.12-.195c.05-.085 5.07-8.56 7.37-12.855 2.15-4 9-17.765 9.935-19.675l-19.625-10.265 3.17-16.57.5.095-3.1 16.205 19.725 10.32-.11.22c-.075.155-7.745 15.605-10.05 19.905-2.11 3.935-6.5 11.36-7.265 12.675 1.23.84 8.36 5.5 16.26 5.895 7.34.365 10.23 1.845 11.05 2.38 1.37-2.855 13.075-27.465 16.045-37.8 2.94-10.21 0-18.055-8.57-22.68-7.82-4.23-34.055-14.85-34.32-14.96l.19-.46c.26.105 26.5 10.74 34.37 15 6.12 3.31 12.615 10.03 8.81 23.255-3.155 10.965-16.075 37.88-16.205 38.15l-.15.285ZM195 53.395s-4-2.25-7.725 2c-3.725 4.25-1.885 7-3.39 9.33a8.694 8.694 0 0 1-2.72 2.475c.07.83.18 1.655.32 2.5.1.565.215 1.13.345 1.69.035.15.185.65.225.795a32.82 32.82 0 0 0 1.375 3.5c1.565-.195 3.25-1.125 4.7-3 2.815-3.66 16.46-11.535 16.46-11.535L195 53.395Z" class="shade90"/>
    <path fill="#28192D" d="m193.97 54.87-4.095-1.62s-4.5 2.225-4.855 3.795a11.587 11.587 0 0 0-.355 2.125l.61-.91s-.305 1.665-1 4.295A7.501 7.501 0 0 1 182 66.4l.5.155 1.215.2L189 65.44" class="shade90"/>
    <path fill="#fff" d="M124.225 69.5s-6.6-5.14-9.5-5.855c-2.9-.715-.285-3.335 1.555-3.355 1.84-.02 6.605 2.5 8.12 4.1 1.515 1.6-.175 5.11-.175 5.11Z" class="shade0"/>
    <path fill="#28192D" d="m124.315 69.89-.245-.19c-.065-.05-6.585-5.11-9.4-5.805-1.4-.345-1.525-1.1-1.5-1.5.125-1.095 1.745-2.315 3.09-2.33h.025c1.945 0 6.72 2.555 8.275 4.175 1.555 1.62-.06 5.24-.135 5.39l-.11.26Zm-8-9.345c-1.07 0-2.5 1.055-2.6 1.89-.065.565.56.84 1.1.975 2.625.645 8.075 4.735 9.335 5.7.35-.845 1.235-3.355.1-4.545-1.5-1.535-6.14-4.02-7.94-4.02h.005Z" class="shade90"/>
    <path fill="#fff" d="M121.885 57.145s-2.105 3.76-2.115 7.15c-.01 3.39 9.5 10 9.5 10l3.435 8.935 10.355-5.845-3.405-10.475s.035-1.545-1.445-4.67S133 55.5 133 55.5s3.91-2.235 3.7-3.43c-.21-1.195-5.535.06-5.535.06l-1.385.34a5.528 5.528 0 0 0-1.695.725l-1.235 1.895-4.965 2.055Z" class="shade0"/>
    <path fill="#28192D" d="m132.55 83.6-3.5-9.135c-.9-.63-9.535-6.8-9.5-10.17.035-3.37 2.06-7.115 2.145-7.27l.045-.075 4.95-2.08 1.27-1.91a5.967 5.967 0 0 1 1.77-.755l1.39-.335c.45-.11 4.445-1 5.5-.315a.676.676 0 0 1 .315.45c.205 1.17-2.5 2.905-3.54 3.5.845.86 3.74 3.9 5.025 6.615 1.365 2.885 1.465 4.445 1.47 4.73l3.445 10.65-10.785 6.1Zm-10.5-26.26c-.29.545-2.03 3.93-2.04 6.955 0 3.22 9.275 9.74 9.37 9.805l.06.045 3.36 8.735 9.92-5.6-3.35-10.325v-.04s0-1.545-1.42-4.56c-1.42-3.015-5.12-6.66-5.155-6.695l-.24-.235.29-.16c1.56-.895 3.7-2.465 3.575-3.17 0 0 0-.065-.095-.125-.675-.44-3.5 0-5.13.385l-1.39.335a5.304 5.304 0 0 0-1.57.665l-1.25 1.915-4.935 2.07Z" class="shade90"/>
    <path fill="#28192D" d="M123.875 61.66a.249.249 0 0 1-.245-.19 9.39 9.39 0 0 1 .6-5.83.249.249 0 0 1 .335-.115.26.26 0 0 1 .078.06.269.269 0 0 1 .049.084.259.259 0 0 1-.012.191c-1.265 2.56-.57 5.46-.565 5.5.008.032.01.064.005.097a.23.23 0 0 1-.032.09.25.25 0 0 1-.153.112h-.06Zm3.56-2.48a.25.25 0 0 1-.25-.235c-.035-.5-.32-4.805.725-5.94a.248.248 0 0 1 .404.081.246.246 0 0 1-.054.274c-.76.825-.685 4.3-.59 5.565a.254.254 0 0 1-.136.243.26.26 0 0 1-.094.027l-.005-.015Z" class="shade90"/>
    <path fill="#fff" d="M186.41 68.5a17.631 17.631 0 0 1-3.41 6.12c-2.425 2.73-7.185 5.825-7.185 5.825l.5 7.915a7.378 7.378 0 0 0 5.41 6.055 7.376 7.376 0 0 0 8.37-3.605l4.81-8.85-8.5-13.785" class="shade0"/>
    <path fill="#28192D" d="M183.65 94.915a7.749 7.749 0 0 1-1.96-.255 7.622 7.622 0 0 1-5.595-6.265l-.5-8.08.12-.08c.05-.03 4.76-3.11 7.135-5.78a17.49 17.49 0 0 0 3.335-6.045l.11.03-.08-.13.425-.265 8.595 13.905-4.88 9a7.604 7.604 0 0 1-6.705 3.965Zm-7.555-14.345.5 7.775a7.125 7.125 0 0 0 5.812 5.954 7.13 7.13 0 0 0 7.498-3.61l4.74-8.724-8.095-13.09a17.847 17.847 0 0 1-3.34 5.91c-2.21 2.48-6.35 5.28-7.115 5.785Z" class="shade90"/>
    <path fill="#28192D" d="M187.075 71.095c.05 2.585-.255 5.17-.105 7.75a7.62 7.62 0 0 0 1.245 4.045c.68.96 1.38 1.185 2.5 1.235.939.04 1.867.217 2.755.525l1.46-2.69-7.895-12.775c.05.675.025 1.355.04 1.91Zm15.87 5.755a11.28 11.28 0 0 0 4.91-4.605 19.132 19.132 0 0 0 2.22-6.67l-6-3.95" class="shade90"/>
    <path fill="#fff" d="M207.43 65.38s-.45 10.43-5.89 15.42c-5.44 4.99-9.22 3.54-11.5.925-3-3.5-3.71-12.03 0-18.93s15.53-4.085 17.39 2.585Z" class="shade0"/>
    <path fill="#28192D" d="M194.805 84.37h-.345c-1.715-.1-3.26-.935-4.59-2.475-3.085-3.565-3.835-12.135-.035-19.21 1.595-2.97 4.875-4.5 8.77-4.055 4.375.5 8.1 3.235 9.065 6.69v.08a34.625 34.625 0 0 1-.91 5.885c-.735 3-2.205 7.09-5.06 9.71-2.44 2.235-4.76 3.375-6.895 3.375Zm2.5-25.32c-3.14 0-5.72 1.395-7.045 3.86-3.65 6.79-2.945 15.28-.03 18.65a6.033 6.033 0 0 0 4.245 2.3c2.085.13 4.405-.975 6.885-3.245 5.135-4.71 5.765-14.5 5.8-15.205-.925-3.245-4.465-5.83-8.625-6.295a11.485 11.485 0 0 0-1.215-.065h-.015Z" class="shade90"/>
    <path fill="#fff" d="M187.875 71.31s-3.05-1.91-2.46-4.95c.59-3.04 3.38-2.5 3.59-.88a7.059 7.059 0 0 1-.145 1.945" class="shade0"/>
    <path fill="#28192D" d="M187.74 71.5c-.03 0-3.185-2.035-2.57-5.205.35-1.805 1.455-2.41 2.33-2.39a1.792 1.792 0 0 1 1.755 1.525 7.11 7.11 0 0 1-.15 2l-.5-.09c.131-.612.18-1.24.145-1.865a1.286 1.286 0 0 0-1.275-1.09c-.68 0-1.53.5-1.825 2-.55 2.83 2.315 4.67 2.345 4.685l-.255.43Z" class="shade90"/>
    <path fill="#fff" d="M186.88 65.595s-.955.865-.54 2.785Z" class="shade0"/>
    <path fill="#28192D" d="M186.095 68.435c-.44-2.04.575-3 .62-3.025l.335.37-.17-.185.17.185c-.035.03-.845.81-.465 2.55l-.49.105Z" class="shade90"/>
    <path fill="#fff" d="M200.245 74.39s-.055-.165-.05 1.15c.005 1.315.165 1.875-.695 2.235-.86.36-2.435-1-2.59-1.555" class="shade0"/>
    <path fill="#28192D" d="M199.185 78.08a2.042 2.042 0 0 1-.865-.225c-.735-.36-1.5-1.105-1.65-1.57l.5-.135a3.21 3.21 0 0 0 1.39 1.255c.259.157.569.208.865.14.56-.235.575-.5.55-1.5v-.5c0-1.275 0-1.365.25-1.405l.215-.035.07.21-.23.075.22.075c-.032.357-.04.716-.025 1.075v.5c0 .95.035 1.58-.86 1.955a1.089 1.089 0 0 1-.43.085Zm-7.59-22.74s-2.535 1.61-2.875 4.17c-.25 1.91-.35 5.965-.38 7.91l.5.205c.675-1.11 1.5-.9 2.34-2.5 1.26-2.385 3.525-6.28 3.525-6.28l-3.11-3.505Z" class="shade90"/>
    <path fill="#F6D4A0" d="M146.025 68.245s-1.945 4.655-9 8.37c-7.055 3.715-8.335 3.33-8.335 3.33s-.605 6-1.32 14.155c-1.27 14.455-2.875 35.585-2 41.54.415 2.86 5.205 8.73 8.475 9.575 7.35 1.89 16.935-3.815 16.39-18.615-1.12-30.6-4.21-58.355-4.21-58.355Z" class="shade10"/>
    <path fill="#28192D" d="M136.625 145.81a11.296 11.296 0 0 1-2.835-.355c-3.32-.855-8.225-6.8-8.66-9.78-.84-5.83.63-25.84 2-41.595.705-8.05 1.315-14.1 1.32-14.16l.03-.3.29.085c.045 0 1.46.215 8.15-3.315 6.86-3.62 8.845-8.195 8.86-8.245l.375-.885.105.955c.03.28 3.105 28.13 4.225 58.375.265 7.22-1.89 13.05-6.075 16.42a12.501 12.501 0 0 1-7.785 2.8Zm-7.69-65.61c-.12 1.185-.67 6.765-1.295 13.92-1.13 12.88-2.895 35.395-2 41.5.405 2.785 5.185 8.565 8.29 9.365a11.718 11.718 0 0 0 10.19-2.35c4.06-3.265 6.15-8.955 5.89-16-1-27.305-3.615-52.665-4.13-57.5-.86 1.5-3.275 4.87-8.705 7.735s-7.555 3.295-8.24 3.33Zm68.458-10.349c.2-.25.216-.57.037-.712-.18-.143-.487-.055-.686.196-.2.25-.216.57-.036.712.179.143.486.055.685-.196Zm6.181 4.296c.2-.25.216-.57.036-.712-.179-.142-.486-.055-.685.196-.2.25-.216.57-.037.712.18.143.487.055.686-.196Z" class="shade90"/>
    <path fill="#fff" d="M198.13 78.87s-1.77-1.215-2.45-2.28a9.13 9.13 0 0 1-.975-2.88s-1.225 3.615-.57 5.335a.417.417 0 0 1 0 .05 1.754 1.754 0 0 0 2.89.54 3.865 3.865 0 0 1 1.105-.765Z" class="shade0"/>
    <path fill="#28192D" d="M195.765 80.425a2.27 2.27 0 0 1-.41-.04 1.924 1.924 0 0 1-1.43-1.195v-.055c-.685-1.785.5-5.355.565-5.5l.325-.955.155 1c.161.973.478 1.914.94 2.785.645 1 2.365 2.195 2.385 2.21l.355.24-.39.19a3.472 3.472 0 0 0-1 .715 2.044 2.044 0 0 1-1.495.605ZM194.39 79a1.431 1.431 0 0 0 1.065.89 1.55 1.55 0 0 0 1.415-.435 3.88 3.88 0 0 1 .79-.62 10 10 0 0 1-2.19-2.11 7.289 7.289 0 0 1-.8-2c-.31 1.165-.72 3.14-.3 4.235l-.215.14.235-.1Z" class="shade90"/>
    <path fill="#fff" d="M185.385 172.82s-15.82 17.645-16.385 20.77c-.565 3.125 2.36 1.555 7.665-2.605s7.14-7.825 7.14-7.825" class="shade0"/>
    <path fill="#28192D" d="M169.72 195.5a1.094 1.094 0 0 1-.56-.14c-.44-.265-.57-.855-.4-1.805.565-3.16 15.79-20.165 16.44-20.89l.37.335c-5.455 6.085-15.885 18.225-16.32 20.645-.085.5-.13 1.105.17 1.285 1.035.62 5.595-2.96 7.095-4.135 5.19-4.07 7.055-7.705 7.075-7.74l.445.225c-.075.15-1.925 3.76-7.215 7.91-3.82 2.995-5.955 4.31-7.1 4.31Z" class="shade90"/>
    <path fill="#fff" d="M183.155 184.325s-2.42 2.77-1.67 4.56c.75 1.79 3.345 1.775 5.82-.915" class="shade0"/>
    <path fill="#28192D" d="M183.425 190.375a2.985 2.985 0 0 1-.5-.04 2.192 2.192 0 0 1-1.69-1.355c-.8-1.91 1.61-4.705 1.71-4.82l.38.33c-.025 0-2.31 2.675-1.63 4.3a1.68 1.68 0 0 0 1.315 1.05c1.195.21 2.72-.55 4.09-2.04l.365.34c-1.29 1.43-2.775 2.235-4.04 2.235Z" class="shade90"/>
    <path fill="#fff" d="M187.45 187.905s-2.075 2.115-1.325 3.9c.75 1.785 3.58 1.66 6.05-1.03" class="shade0"/>
    <path fill="#28192D" d="M188.08 193.25a2.998 2.998 0 0 1-.5-.045 2.13 2.13 0 0 1-1.67-1.3c-.805-1.92 1.29-4.085 1.38-4.175l.355.35s-1.95 2-1.275 3.63a1.653 1.653 0 0 0 1.3 1c1 .175 2.665-.285 4.34-2.105l.365.335c-1.375 1.465-2.945 2.31-4.295 2.31Z" class="shade90"/>
    <path fill="#fff" d="M192.38 190.67s-2.075 2.11-1.325 3.9c.75 1.79 3.64 1.04 6.11-1.645" class="shade0"/>
    <path fill="#28192D" d="M192.63 195.79a2.384 2.384 0 0 1-.43-.035 1.733 1.733 0 0 1-1.375-1.09c-.805-1.92 1.29-4.08 1.38-4.17l.355.35s-1.95 2-1.275 3.625a1.256 1.256 0 0 0 1 .795c1.23.21 3.12-.795 4.7-2.5l.365.34c-1.55 1.67-3.35 2.685-4.72 2.685Z" class="shade90"/>
    <path fill="#ECA3B5" d="M150.575 210.225c-.555.805-1 1.465-1.465 2.14a1.21 1.21 0 0 1-.824.666 1.2 1.2 0 0 1-1.031-.241c-.725-.5-.57-1.145-.1-1.76l1.62-2.145c-.9-.28-1.675-.5-2.44-.755-.765-.255-1.35-.725-.91-1.465a2.038 2.038 0 0 1 1.62-.67c.73.04 1.44.44 2.365.755v-2.4c0-.75.275-1.315 1.16-1.325.885-.01 1.135.58 1.145 1.34.01.76 0 1.435 0 2.375.88-.295 1.595-.5 2.285-.765.825-.315 1.455-.12 1.745.71.29.83-.29 1.24-1 1.47-.71.23-1.46.44-2.4.715.575.765 1.085 1.425 1.58 2.09.495.665.7 1.365-.11 1.865-.705.435-1.375.255-1.84-.5-.385-.67-.845-1.285-1.4-2.1Zm16.655 0c-.555.805-1 1.465-1.465 2.14a1.2 1.2 0 0 1-.824.666 1.2 1.2 0 0 1-1.031-.241c-.725-.5-.57-1.145-.1-1.76l1.62-2.145c-.9-.28-1.675-.5-2.44-.755-.765-.255-1.345-.725-.91-1.465a2.04 2.04 0 0 1 1.625-.67c.725.04 1.435.44 2.36.755v-2.4c0-.75.275-1.315 1.16-1.325.885-.01 1.135.58 1.145 1.34.01.76 0 1.435 0 2.375.885-.295 1.595-.5 2.285-.765.825-.315 1.455-.12 1.745.71.29.83-.29 1.24-1 1.47-.71.23-1.46.44-2.4.715.575.765 1.085 1.425 1.58 2.09.495.665.7 1.365-.11 1.865-.705.435-1.375.255-1.84-.5-.385-.67-.845-1.285-1.4-2.1Zm16.655 0c-.555.805-1 1.465-1.465 2.14a1.21 1.21 0 0 1-.824.666 1.2 1.2 0 0 1-1.031-.241c-.725-.5-.57-1.145-.1-1.76l1.62-2.145c-.9-.28-1.675-.5-2.435-.755s-1.35-.725-.915-1.465a2.04 2.04 0 0 1 1.625-.67c.725.04 1.435.44 2.365.755v-2.4c0-.75.275-1.315 1.16-1.325.885-.01 1.135.58 1.145 1.34.01.76 0 1.435 0 2.375.885-.295 1.595-.5 2.285-.765.825-.315 1.455-.12 1.745.71.29.83-.29 1.24-1 1.47-.71.23-1.46.44-2.4.715.58.765 1.085 1.425 1.58 2.09.495.665.7 1.365-.11 1.865-.705.435-1.375.255-1.84-.5-.39-.67-.85-1.285-1.405-2.1Zm13.21-136.795a3.851 3.851 0 0 1-3.561-2.38 3.86 3.86 0 0 1 .835-4.2 3.854 3.854 0 1 1 2.726 6.58Zm0-7.21a3.357 3.357 0 0 0-3.29 4.01 3.353 3.353 0 0 0 4.574 2.445 3.358 3.358 0 0 0 2.071-3.1 3.358 3.358 0 0 0-3.355-3.355Zm7.055 11.535a3.855 3.855 0 1 1-.01-7.71 3.855 3.855 0 0 1 .01 7.71Zm0-7.21a3.353 3.353 0 0 0-3.296 4.006 3.356 3.356 0 0 0 6.646-.651 3.358 3.358 0 0 0-3.35-3.355Z" class="shade40"/>
    <path fill="#ECA3B5" d="m199.874 71.3-.232.444 1.594.835.232-.443-1.594-.835Zm-11.382-6.668-.256.43 5.465 3.245.255-.43-5.464-3.245Z" class="shade40"/>
    <path fill="#fff" d="M119.845 63.385s1.55-16.405 3.65-17.6c2.1-1.195 1.9 4.9.415 12.155" class="shade0"/>
    <path fill="#28192D" d="m120.095 63.41-.5-.045c.16-1.695 1.625-16.575 3.775-17.8a.969.969 0 0 1 1.115 0c1.42 1.03.76 7.1-.33 12.44l-.5-.1c1.295-6.315 1.5-11.225.5-11.935-.09-.07-.25-.135-.57.045-1.425.815-2.875 10.855-3.49 17.395Z" class="shade90"/>
    <path fill="#fff" d="M123.755 61.125s-.11-6.12.555-7c.665-.88 2.8-.7 3.07-.34.27.36.055 1.455-.065 2.66a10.794 10.794 0 0 0 .39 3.06" class="shade0"/>
    <path fill="#28192D" d="M123.5 61.13c0-.635-.09-6.235.605-7.165.5-.665 1.57-.74 2-.74.54 0 1.245.105 1.465.4.22.295.185 1.085.065 2.08-.03.24-.06.5-.085.755a10.565 10.565 0 0 0 .38 2.97l-.5.135a11.096 11.096 0 0 1-.4-3.155l.09-.765c.085-.71.18-1.5.025-1.72a2.5 2.5 0 0 0-1.29-.195 1.88 1.88 0 0 0-1.38.535c-.445.6-.545 4.5-.5 6.855l-.475.01Z" class="shade90"/>
    <path fill="#fff" d="M130.415 52.63s-.5 2.33-.25 3.785a4.2 4.2 0 0 0 .735 2" class="shade0"/>
    <path fill="#28192D" d="M130.715 58.57a4.505 4.505 0 0 1-.8-2.11c-.26-1.5.235-3.785.255-3.88l.5.105s-.5 2.295-.25 3.685c.072.668.306 1.308.68 1.865l-.385.335Z" class="shade90"/>
    <path fill="#fff" d="M209.5 273.62h-15.175v6.07H209.5v-6.07Z" class="shade0"/>
    <path fill="#28192D" d="M209.5 279.94h-15.175a.25.25 0 0 1-.25-.25v-6.065a.25.25 0 0 1 .25-.25H209.5a.249.249 0 0 1 .25.25v6.065a.25.25 0 0 1-.25.25Zm-14.925-.5h14.675v-5.565h-14.675v5.565Z" class="shade90"/>
    <path fill="#A6C2EA" d="M232.56 273.62h-7.13v6.07h7.13v-6.07Z" class="shade50"/>
    <path fill="#F6D4A0" d="M222.7 273.62h-11.23v6.07h11.23v-6.07Z" class="shade10"/>
    <path fill="#fff" d="M197 65.06s1.33-.305 3.225.645Z" class="shade0"/>
    <path fill="#28192D" d="M200.095 65.93a5 5 0 0 0-3.06-.625l-.11-.5c.06 0 1.44-.31 3.395.665l-.225.46Z" class="shade90"/>
    <path fill="#fff" d="M204.265 68.4s.685-.38 1.745 1.06Z" class="shade0"/>
    <path fill="#28192D" d="M205.81 69.61c-.895-1.215-1.43-1-1.435-1l-.23-.44c.09-.05.905-.44 2.065 1.13l-.4.31Zm-12.775-10.05c1.245.377 2.441.899 3.565 1.555 1.405.91 1.67 1.555 1.67 1.555l.345-.835s1.97 2.165 3.5 2.655l1.5.5-.225-.76s1.93 1.63 3.3 2.165c1.37.535 3.715.415 3.715.415s1.5-2.16-.265-5.915c-1.765-3.755-7.055-5.54-7.055-5.54l1.025-.455s-8.31-3.91-11.08-1.44c-2.77 2.47-2.805 4.59-2.805 4.59l2.81 1.51Zm25.18 69.25-.44-.24c4-7.215 13.205-6.5 13.295-6.5l-.045.5c-.09.01-8.99-.685-12.81 6.24Z" class="shade90"/>
    <path fill="#fff" d="M200.255 63.6c-3.385-2.26-3.08-5.34-3.065-5.47l.5.055c0 .115-.275 2.915 2.85 5l-.285.415Zm4.305 2.11a9.108 9.108 0 0 1-2.85-4.54l.5-.11a8.746 8.746 0 0 0 2.685 4.265l-.335.385ZM129.5 83.5l-.06-.5c.125 0 12.805-1.66 16.345-8.815l.445.22c-1.915 3.88-6.37 6.145-9.775 7.365a36.191 36.191 0 0 1-6.955 1.73Zm98.97 83.405s-.89-1.345-8.075-2.135c-7.54-.825-17.2-5.285-17.3-5.33l.215-.455c.095.045 9.685 4.47 17.14 5.29 7.455.82 8.395 2.255 8.47 2.42l-.45.21Z" class="shade0"/>
  </g>
</svg>
