<svg xmlns="http://www.w3.org/2000/svg" width="400" height="300" fill="none" viewBox="0 0 400 300">
  <g class="Guy with Charts" clip-path="url(#a)">
    <path fill="#F6D4A0" d="M332.5 59.355s-5.14-33.9-44.545-35.885C248.55 21.485 194.42 67.93 165.71 83.5c-15.035 8.155-44.38 11.27-60.415 15.94-51.265 14.95-69.565 83.39-47.5 119.55 19.085 31.34 52 45.72 101.795 45.5 49.795-.22 84.725 1.5 128.725-34.44S354 104.32 332.5 59.355Z" class="shade10"/>
    <path fill="#fff" d="M253.116 126.215H27.221v2.525h225.895v-2.525ZM98.77 141.94H46.233v-4.09h65.375l-12.84 4.09Zm257.435 6.105H303.67v-4.085h65.38l-12.845 4.085Zm-71.83 105.565H231.84v-4.085h65.375l-12.84 4.085Zm-.436-221.525h-52.535v-4.09h65.38l-12.845 4.09Z" class="shade0"/>
    <path fill="#28192D" d="M170.6 261.12c-24.795 0-44.915-3.59-61.5-10.96-16.96-7.54-29.88-18.885-39.5-34.685-5.6-9.185-8.78-20.76-9.185-33.475a96.236 96.236 0 0 1 6.535-37.5c9.5-24.57 27.855-42.415 50.305-48.96 5.59-1.63 12.8-3.07 20.44-4.595 14.135-2.825 30.155-6.03 39.92-11.325 7.58-4.115 16.73-10.245 27.33-17.345 29.385-19.67 65.95-44.19 95.055-42.705 20.455 1.035 31.545 10.79 37.24 18.795a45.276 45.276 0 0 1 7.535 17.27C355 77 355.91 110.235 347.24 144.5c-8.895 35.2-25.935 65.125-46.74 82.125-42 34.3-75.535 34.37-121.955 34.47h-6.925l-1.02.025ZM297.45 20c-28.5 0-63.74 23.615-92.225 42.7-10.61 7.105-19.77 13.24-27.37 17.36-9.83 5.34-25.895 8.545-40.065 11.38-7.625 1.5-14.825 2.96-20.395 4.585-22.3 6.5-40.5 24.24-50 48.66a95.72 95.72 0 0 0-6.5 37.295c.405 12.62 3.555 24.11 9.115 33.225 9.57 15.71 22.415 27 39.275 34.5 16.5 7.34 36.58 10.915 61.295 10.915h7.925c46.315-.1 79.78-.17 121.64-34.36 20.73-16.93 37.705-46.76 46.575-81.84 8.645-34.185 7.72-67.3-2.47-88.58a.254.254 0 0 1-.025-.07 44.516 44.516 0 0 0-7.465-17.105c-5.63-7.91-16.6-17.55-36.845-18.57A30.337 30.337 0 0 0 297.45 20Z" class="shade90"/>
    <path fill="#fff" d="M249.366 213.735H23.471v1.165h225.895v-1.165Zm89.859-35.075H45.275v1.165h293.95v-1.165Zm-26.994-97.775H86.336v1.165H312.23v-1.165Zm39.86-26.19h-52.53V50.61h65.375l-12.845 4.085Z" class="shade0"/>
    <path fill="#fff" d="M249.084 255.775h98.755a9.841 9.841 0 0 0 9.85-9.835v-81.38a9.832 9.832 0 0 0-2.887-6.958 9.834 9.834 0 0 0-6.963-2.877h-98.755a9.84 9.84 0 0 0-9.85 9.835v81.38a9.83 9.83 0 0 0 2.888 6.958 9.84 9.84 0 0 0 6.962 2.877Z" class="shade0" opacity=".89"/>
    <path fill="#fff" d="M11.11 122.34H90.5a7.905 7.905 0 0 0 7.316-4.881 7.93 7.93 0 0 0 .603-3.029V49a7.916 7.916 0 0 0-7.92-7.92H11.11A7.914 7.914 0 0 0 3.19 49v65.43a7.919 7.919 0 0 0 4.891 7.309c.96.398 1.99.602 3.03.601Z" class="shade0" opacity=".91"/>
    <path fill="#fff" d="M43.87 258.665h63.944a7.963 7.963 0 0 0 8-7.965v-67.355a7.948 7.948 0 0 0-.611-3.055 7.955 7.955 0 0 0-4.331-4.312 7.958 7.958 0 0 0-3.058-.598H13.359a8 8 0 0 0-8 7.965v44.39" class="shade0"/>
    <path fill="#A6C2EA" d="M316.72 165.605h-24.05v5.54h24.05v-5.54Zm-8.25 8h-15.8v5.54h15.8v-5.54Zm-6.705 8.005h-9.095v5.54h9.095v-5.54Z" class="shade50" opacity=".91"/>
    <path fill="#ECA3B5" d="M250.904 226.935v16.675h8.155v-16.675h-8.155Zm11.791 5.72v10.955h8.155v-10.955h-8.155Zm11.776 4.645v6.305h8.155V237.3h-8.155Z" class="shade40"/>
    <path fill="#28192D" d="M347.84 256.025h-98.755A10.104 10.104 0 0 1 239 245.94v-81.38a10.106 10.106 0 0 1 10.085-10.06h98.755a10.104 10.104 0 0 1 10.1 10.085v81.355a10.107 10.107 0 0 1-10.1 10.085ZM249.085 155a9.604 9.604 0 0 0-9.585 9.56v81.38a9.603 9.603 0 0 0 9.6 9.585h98.74a9.603 9.603 0 0 0 9.6-9.585v-81.38a9.604 9.604 0 0 0-9.6-9.56h-98.755Z" class="shade90"/>
    <path fill="#28192D" d="M346.56 227.585h-35.205v.5h35.205v-.5Zm0 3.765h-35.205v.5h35.205v-.5Zm0 3.765h-35.205v.5h35.205v-.5Zm0 3.77h-35.205v.5h35.205v-.5Zm0 3.765h-35.205v.5h35.205v-.5Zm-61.519-76.475h-35.205v.5h35.205v-.5Zm0 3.765h-35.205v.5h35.205v-.5Zm0 3.765h-35.205v.5h35.205v-.5Zm0 3.765h-35.205v.5h35.205v-.5Zm0 3.765h-35.205v.5h35.205v-.5Zm16.739 40.14a2.626 2.626 0 0 1-2.625-2.62c.005-.395.1-.783.28-1.135l.405-.83-17.775-22.475-.87.16c-.165.033-.332.05-.5.05a2.655 2.655 0 0 1-.745-.125l-.85-.255-20.5 20.86.2.8a2.691 2.691 0 0 1-1.745 3.253 2.683 2.683 0 0 1-3.529-2.607 2.685 2.685 0 0 1 3.639-2.451l.89.325 20.445-20.78-.27-.845a2.62 2.62 0 1 1 5.107-.968c.026.425-.052.85-.227 1.238l-.365.81 17.815 22.525.885-.13c.13 0 .255-.035.335-.035.249.006.497.048.735.125l.875.255 12.925-14-.405-.89a2.487 2.487 0 0 1-.245-1.075 2.626 2.626 0 1 1 5.25-.065v1.04l10.55 4.9.705-.54a2.642 2.642 0 0 1 1.58-.545h.885l6.155-11.69-5.765-3 11.735-7.4.555 13.84-5.76-3-6.15 11.695.5.73a2.616 2.616 0 0 1-3.624 3.646 2.616 2.616 0 0 1-1.141-2.031l-.045-.885-10.64-4.945-.69.46c-.432.291-.94.446-1.46.445a2.756 2.756 0 0 1-.445-.05l-.785-.13L304 217.14l.265.815c.091.257.14.527.145.8a2.639 2.639 0 0 1-.773 1.855 2.626 2.626 0 0 1-1.857.765ZM83.425 89.24l-9.234-14.43-15.256 11.22L44.86 58.185 7.73 81.795v19.07h83.73V84.83l-8.034 4.41Z" class="shade90"/>
    <path fill="#A6C2EA" d="m85.035 100.06-10.04-15.23-16.865 6.815-19.675-18.84L7.73 85.215v27.675h83.73V95.655l-6.424 4.405Z" class="shade50"/>
    <path fill="#F6D4A0" d="M55.306 51.125H48.56a1.82 1.82 0 0 0-.82 3.45l-2.36 2.5 4.295-2.305h5.63a1.83 1.83 0 1 0 0-3.655v.01Z" class="shade10"/>
    <path fill="#28192D" d="M90.5 122.585H11.11a8.17 8.17 0 0 1-8.17-8.155V49a8.175 8.175 0 0 1 8.17-8.17H90.5A8.175 8.175 0 0 1 98.69 49v65.43a8.175 8.175 0 0 1-2.406 5.775 8.165 8.165 0 0 1-5.785 2.38ZM11.11 41.33A7.67 7.67 0 0 0 3.44 49v65.43a7.67 7.67 0 0 0 7.67 7.655H90.5a7.67 7.67 0 0 0 7.67-7.655V49a7.67 7.67 0 0 0-7.67-7.67H11.11Z" class="shade90"/>
    <path fill="#28192D" d="M14.69 50.165H9.22a.25.25 0 1 1 0-.5h5.47a.25.25 0 0 1 .25.25.255.255 0 0 1-.25.25Zm0 5.955H9.22a.25.25 0 1 1 0-.5h5.47a.25.25 0 0 1 0 .5Zm0 5.955H9.22a.25.25 0 0 1 0-.5h5.47a.25.25 0 1 1 0 .5Zm0 5.955H9.22a.25.25 0 1 1 0-.5h5.47a.255.255 0 0 1 .25.25.25.25 0 0 1-.25.25Zm0 5.97H9.22a.25.25 0 1 1 0-.5h5.47a.255.255 0 0 1 .25.25.25.25 0 0 1-.25.25Zm93.126 184.915H43.871a.25.25 0 1 1 0-.5h63.945a7.73 7.73 0 0 0 7.73-7.715v-67.355a7.729 7.729 0 0 0-7.73-7.715H13.361a7.728 7.728 0 0 0-7.73 7.715v44.39a.251.251 0 0 1-.25.25.252.252 0 0 1-.176-.075.253.253 0 0 1-.074-.175v-44.39a8.232 8.232 0 0 1 8.23-8.215h94.455a8.23 8.23 0 0 1 8.23 8.215V250.7a8.232 8.232 0 0 1-8.23 8.215Z" class="shade90"/>
    <path fill="#fff" d="M78.566 194.525h-15.21v16.185h15.21v-16.185Z" class="shade0" opacity=".91"/>
    <path fill="#28192D" d="M78.566 210.96h-15.21a.25.25 0 0 1-.25-.25v-16.185a.251.251 0 0 1 .25-.25h15.21a.252.252 0 0 1 .175.075.253.253 0 0 1 .075.175v16.185a.251.251 0 0 1-.25.25Zm-14.96-.5h14.71v-15.685h-14.71v15.685Z" class="shade90" opacity=".91"/>
    <path fill="#A6C2EA" d="M36.316 236.765h-15.21v9.08h15.21v-9.08Z" class="shade50" opacity=".91"/>
    <path fill="#28192D" d="M36.316 246.095h-15.21a.253.253 0 0 1-.176-.075.252.252 0 0 1-.075-.175v-9.08a.251.251 0 0 1 .25-.25h15.21a.249.249 0 0 1 .25.25v9.08a.251.251 0 0 1-.25.25Zm-14.96-.5h14.71V237h-14.71v8.595Z" class="shade90"/>
    <path fill="#A6C2EA" d="M57.44 228.08H42.23v17.765h15.21V228.08Z" class="shade50" opacity=".91"/>
    <path fill="#28192D" d="M57.44 246.095H42.23a.253.253 0 0 1-.175-.075.252.252 0 0 1-.075-.175V228.08a.251.251 0 0 1 .25-.25h15.21a.249.249 0 0 1 .25.25v17.765a.251.251 0 0 1-.25.25Zm-14.96-.5h14.71V228.33H42.5l-.02 17.265Z" class="shade90"/>
    <path fill="#fff" d="M57.44 208.11H42.23v19.97h15.21v-19.97Z" class="shade0" opacity=".91"/>
    <path fill="#28192D" d="M57.44 228.33H42.23a.25.25 0 0 1-.25-.25v-19.97a.251.251 0 0 1 .25-.25h15.21a.249.249 0 0 1 .25.25v19.97a.251.251 0 0 1-.25.25Zm-14.96-.5h14.71v-19.47H42.5l-.02 19.47Z" class="shade90"/>
    <path fill="#fff" d="M98.44 203.605H83.23v24.475h15.21v-24.475Z" class="shade0" opacity=".91"/>
    <path fill="#28192D" d="M98.44 228.33H83.23a.25.25 0 0 1-.25-.25v-24.5a.252.252 0 0 1 .075-.175.253.253 0 0 1 .175-.075h15.21a.249.249 0 0 1 .25.25v24.5a.251.251 0 0 1-.25.25Zm-14.96-.5h14.71v-24H83.5l-.02 24Z" class="shade90" opacity=".91"/>
    <path fill="#A6C2EA" d="M98.44 228.08H83.23v17.765h15.21V228.08Z" class="shade50" opacity=".91"/>
    <path fill="#28192D" d="M98.44 246.095H83.23a.253.253 0 0 1-.175-.075.252.252 0 0 1-.075-.175V228.08a.251.251 0 0 1 .25-.25h15.21a.249.249 0 0 1 .25.25v17.765a.251.251 0 0 1-.25.25Zm-14.96-.5h14.71V228.33H83.5l-.02 17.265Z" class="shade90" opacity=".91"/>
    <path fill="#A6C2EA" d="M78.566 210.71v35.135h-15.21V210.71" class="shade50" opacity=".91"/>
    <path fill="#28192D" d="M78.566 246.095h-15.21a.25.25 0 0 1-.25-.25V210.71a.251.251 0 0 1 .25-.25.249.249 0 0 1 .25.25v34.885h14.71V210.71a.251.251 0 0 1 .25-.25.252.252 0 0 1 .175.075.253.253 0 0 1 .075.175v35.135a.253.253 0 0 1-.075.175.252.252 0 0 1-.175.075Z" class="shade90" opacity=".91"/>
    <path fill="#28192D" d="M54.8 194.56h-9.5a1.629 1.629 0 0 0-1.16.48 1.647 1.647 0 0 0-.48 1.16v2.185a1.644 1.644 0 0 0 1.013 1.515c.198.083.412.125.627.125h3.5l1.23 2.13 1.23-2.13h3.5a1.636 1.636 0 0 0 1.645-1.64V196.2a1.638 1.638 0 0 0-1.605-1.64Z" class="shade90"/>
    <path fill="#fff" d="M33.455 205.9h-9.5a1.642 1.642 0 0 0-1.64 1.64v2.185a1.641 1.641 0 0 0 1.64 1.64h3.5l1.255 2.135 1.23-2.125h3.5a1.636 1.636 0 0 0 1.644-1.64v-2.185a1.634 1.634 0 0 0-1.003-1.521 1.628 1.628 0 0 0-.627-.129Z" class="shade0"/>
    <path fill="#28192D" d="M28.71 213.74a.247.247 0 0 1-.215-.125l-2-3.425h-5.71a2.999 2.999 0 0 1-3-3v-3.65a2.998 2.998 0 0 1 3-3h15.85a2.999 2.999 0 0 1 3 3v3.65a2.998 2.998 0 0 1-3 3H30.91l-2 3.425a.247.247 0 0 1-.2.125Zm-7.925-12.68a2.499 2.499 0 0 0-2.5 2.5v3.65a2.5 2.5 0 0 0 2.5 2.5h5.875a.247.247 0 0 1 .215.125L28.71 213l1.84-3.175a.242.242 0 0 1 .215-.125h5.87a2.499 2.499 0 0 0 2.5-2.5v-3.65a2.5 2.5 0 0 0-2.5-2.5l-15.85.01Zm50.075-7.765a.247.247 0 0 1-.215-.125l-1.16-2h-3.37a1.895 1.895 0 0 1-1.89-1.89v-2.185a1.888 1.888 0 0 1 1.89-1.89h9.5a1.896 1.896 0 0 1 1.895 1.89v2.185a1.894 1.894 0 0 1-1.895 1.89h-3.37l-1.16 2a.24.24 0 0 1-.095.094.238.238 0 0 1-.13.031Zm-4.745-7.59a1.393 1.393 0 0 0-1.39 1.39v2.185a1.398 1.398 0 0 0 1.39 1.39h3.5a.253.253 0 0 1 .22.125l1 1.75 1-1.75a.242.242 0 0 1 .215-.125h3.5a1.393 1.393 0 0 0 1.395-1.39v-2.185a1.389 1.389 0 0 0-1.395-1.39h-9.435Z" class="shade90"/>
    <path fill="#fff" d="M75.605 185.455h-9.5a1.642 1.642 0 0 0-1.64 1.64v2.185a1.641 1.641 0 0 0 1.64 1.64h3.5l1.23 2.125 1.23-2.125h3.5a1.636 1.636 0 0 0 1.645-1.64v-2.185a1.638 1.638 0 0 0-1.605-1.64Z" class="shade0"/>
    <path fill="#28192D" d="M98.595 190.71h-15.5a2.671 2.671 0 0 0-2.48 1.653 2.684 2.684 0 0 0-.205 1.027v3.575a2.684 2.684 0 0 0 .787 1.897 2.671 2.671 0 0 0 1.898.783h5.745l2 3.475 2-3.475h5.75c.352.001.701-.068 1.027-.203a2.678 2.678 0 0 0 1.658-2.477v-3.575a2.679 2.679 0 0 0-2.68-2.68Zm-55.365-8.115H21.625a.25.25 0 1 1 0-.5H43.23a.253.253 0 0 1 .175.075.253.253 0 0 1 .075.175.25.25 0 0 1-.25.25Zm0 2.315H21.625a.25.25 0 1 1 0-.5H43.23a.25.25 0 1 1 0 .5Zm0 2.31H21.625a.25.25 0 1 1 0-.5H43.23a.251.251 0 0 1 .25.25.256.256 0 0 1-.25.25Zm0 2.31H21.625a.251.251 0 0 1-.177-.427.25.25 0 0 1 .177-.073H43.23a.25.25 0 0 1 .25.25.253.253 0 0 1-.075.175.253.253 0 0 1-.175.075Zm0 2.31H21.625a.25.25 0 1 1 0-.5H43.23a.25.25 0 1 1 0 .5Z" class="shade90"/>
    <path fill="#fff" d="M36.316 214.66h-15.21v22.105h15.21V214.66Z" class="shade0" opacity=".91"/>
    <path fill="#28192D" d="M36.316 237h-15.21a.25.25 0 0 1-.25-.25v-22.09a.251.251 0 0 1 .25-.25h15.21a.249.249 0 0 1 .25.25v22.105a.249.249 0 0 1-.25.235Zm-14.96-.5h14.71v-21.59h-14.71v21.59Z" class="shade90"/>
    <path fill="#fff" d="M387.915 53.75h-64.7a8.573 8.573 0 0 0-7.926 5.285 8.569 8.569 0 0 0-.654 3.28V116a8.563 8.563 0 0 0 5.298 7.916c1.041.43 2.156.65 3.282.649h64.7A8.575 8.575 0 0 0 396.5 116V62.315a8.59 8.59 0 0 0-2.519-6.06 8.571 8.571 0 0 0-6.066-2.505Z" class="shade0"/>
    <path fill="#28192D" d="M387.915 124.8h-64.7a8.827 8.827 0 0 1-8.83-8.8V62.315a8.832 8.832 0 0 1 8.83-8.815h64.7a8.835 8.835 0 0 1 8.835 8.815V116a8.837 8.837 0 0 1-8.835 8.8Zm-64.7-70.8a8.336 8.336 0 0 0-8.33 8.315V116a8.336 8.336 0 0 0 8.33 8.315h64.7A8.332 8.332 0 0 0 396.25 116V62.315A8.337 8.337 0 0 0 387.915 54h-64.7Z" class="shade90"/>
    <path fill="#fff" d="M335.536 68.5a15.677 15.677 0 0 0-15.341 18.751 15.68 15.68 0 0 0 21.376 11.402 15.672 15.672 0 0 0 9.67-14.478A15.703 15.703 0 0 0 335.536 68.5Zm0 26.75a11.077 11.077 0 0 1-10.84-13.248 11.069 11.069 0 0 1 8.706-8.69 11.074 11.074 0 0 1 13.229 10.863 11.1 11.1 0 0 1-11.095 11.055v.02Z" class="shade0"/>
    <path fill="#A6C2EA" d="M335.534 68.5a15.59 15.59 0 0 0-11.335 4.825l3.33 3.185a11.084 11.084 0 1 1 8 18.74v4.6a15.675 15.675 0 1 0 0-31.35h.005Z" class="shade50" opacity=".91"/>
    <path fill="#28192D" d="M335.535 100.08a15.923 15.923 0 0 1-15.574-19.056 15.924 15.924 0 0 1 31.539 3.13 15.953 15.953 0 0 1-15.965 15.926Zm0-31.35a15.422 15.422 0 0 0-14.222 9.55A15.425 15.425 0 1 0 351 84.155a15.457 15.457 0 0 0-15.465-15.425Zm0 26.75a11.324 11.324 0 1 1 11.345-11.325 11.347 11.347 0 0 1-7.003 10.481c-1.376.57-2.852.864-4.342.864v-.02Zm0-22.15a10.822 10.822 0 0 0-9.986 6.696 10.818 10.818 0 0 0 2.359 11.79 10.828 10.828 0 0 0 11.795 2.338 10.824 10.824 0 0 0 6.677-10 10.844 10.844 0 0 0-10.845-10.824Zm10.716 31.395h-24.665v.5h24.665v-.5Zm0 2.64h-24.665v.5h24.665v-.5Zm0 2.635h-24.665v.5h24.665v-.5Zm0 2.64h-24.665v.5h24.665v-.5Zm0 2.64h-24.665v.5h24.665v-.5Zm40.743-10.555h-24.67v.5h24.67v-.5Zm0 2.64h-24.67v.5h24.67v-.5Zm0 2.635h-24.67v.5h24.67v-.5Zm0 2.64h-24.67v.5h24.67v-.5Zm0 2.64h-24.67v.5h24.67v-.5ZM372.3 59.405h-35.12a.25.25 0 1 1 0-.5h35.12a.25.25 0 1 1 0 .5Zm0 2.64h-35.12a.25.25 0 1 1 0-.5h35.12a.25.25 0 0 1 .25.25.25.25 0 0 1-.25.25Z" class="shade90"/>
    <path fill="#fff" d="M374.265 68.5a15.672 15.672 0 0 0-14.464 9.694 15.68 15.68 0 0 0 11.44 21.357 15.675 15.675 0 0 0 18.724-15.376 15.706 15.706 0 0 0-15.7-15.675Zm0 26.75a11.076 11.076 0 0 1-7.811-18.912 11.077 11.077 0 0 1 17.036 1.686 11.077 11.077 0 0 1 1.865 6.151 11.093 11.093 0 0 1-11.09 11.055v.02Z" class="shade0"/>
    <path fill="#ECA3B5" d="m380.376 69.71-1.795 4.24a11.074 11.074 0 0 1-4.315 21.28v4.6a15.675 15.675 0 0 0 6.11-30.12Z" class="shade40"/>
    <path fill="#28192D" d="M374.265 100.08a15.924 15.924 0 1 1 15.95-15.925 15.956 15.956 0 0 1-15.95 15.925Zm0-31.35a15.429 15.429 0 0 0-14.233 9.54 15.43 15.43 0 0 0 3.36 16.8 15.426 15.426 0 0 0 26.323-10.915 15.46 15.46 0 0 0-15.45-15.425Zm0 26.75a11.323 11.323 0 0 1-11.09-13.544 11.323 11.323 0 0 1 22.43 2.219 11.35 11.35 0 0 1-11.34 11.345v-.02Zm0-22.15a10.825 10.825 0 1 0 10.84 10.825 10.844 10.844 0 0 0-10.84-10.825Z" class="shade90"/>
    <path fill="#F6D4A0" d="M130.1 47H86.77a8 8 0 0 0-3.62 15.205L72.76 73.27 91.68 63.1h38.42a8.05 8.05 0 0 0 0-16.1Z" class="shade10"/>
    <path fill="#28192D" d="M91.46 113.14H7.73a.25.25 0 0 1-.25-.25V81.795a.25.25 0 0 1 .5 0v30.845h83.23V88.905a.25.25 0 0 1 .25-.25.255.255 0 0 1 .25.25v24a.257.257 0 0 1-.25.235ZM39.725 258.915h-10.2a.25.25 0 0 1-.25-.25.253.253 0 0 1 .075-.175.253.253 0 0 1 .175-.075h10.2a.25.25 0 1 1 0 .5Z" class="shade90"/>
    <path fill="#fff" d="M58.535 146.37a30.423 30.423 0 0 0-2.7-2.03c-.895-.625-1.825-1.27-2.68-2-2.8-1.745-5.35-3.54-7.815-5.275-1.635-1.155-3.33-2.35-5.09-3.5-5.355-3.945-10.085-7.295-16.455-11.755-.6-.45-1.125-.9-1.635-1.335-.51-.435-1-.875-1.605-1.315-8.67-6-16.895-11.87-24.845-17.56-7.95-5.69-15.34-11-23.21-16.42l.28-.41C-19.345 90.2-11.89 95.535-4 101.185c7.89 5.65 16.17 11.58 24.85 17.565.6.455 1.125.905 1.635 1.34.51.435 1.025.875 1.605 1.31 6.36 4.455 11.095 7.81 16.445 11.75 1.755 1.17 3.455 2.365 5.095 3.5 2.46 1.73 5 3.5 7.815 5.28.87.72 1.79 1.36 2.675 2a31.115 31.115 0 0 1 2.745 2.06l-.33.38Zm2.67-3.87C42.305 128.885 23 115.205 4.285 102a16795.923 16795.923 0 0 1-28.43-20.16l.29-.405c9.5 6.745 19.115 13.56 28.43 20.155 18.69 13.23 38 26.91 56.92 40.55l-.29.36Zm3.295-3.375-3.6-2.55C46.31 126.24 32.525 116.5 17.33 105.35a12.433 12.433 0 0 0-1.29-.71 12.124 12.124 0 0 1-1.345-.75c-8-5.92-15.75-11.4-23.225-16.7-4-2.845-8.16-5.79-12.26-8.73l.29-.41c4.1 2.945 8.245 5.885 12.26 8.73 7.5 5.305 15.21 10.785 23.22 16.7.412.265.841.502 1.285.71.464.224.915.475 1.35.75 15.2 11.13 29 20.895 43.585 31.23l3.595 2.545-.295.41Zm3.86-3.005c-2.94-2.125-5.9-4.22-8.765-6.245-5.345-3.775-10.865-7.68-16.42-11.875-.412-.262-.84-.499-1.28-.71-.466-.22-.917-.471-1.35-.75-9.19-6.655-18.09-12.945-26.695-19C3.16 89.99-6.935 82.855-17.435 75.145l.295-.405c10.5 7.71 20.59 14.84 31.28 22.39 8.605 6.085 17.5 12.37 26.69 19.025.413.264.842.503 1.285.715.466.22.917.471 1.35.75 5.56 4.215 11.08 8.12 16.42 11.895 2.86 2.025 5.825 4.12 8.765 6.24l-.29.365Zm4.475-2.565C57.5 122.845 43.29 112.695 26.73 100.65a84.726 84.726 0 0 0-3.225-2.195 69.423 69.423 0 0 1-3.235-2.205l-2.81-2c-3-2.15-5.79-4.18-8.93-6.2-.61-.455-1.135-.91-1.645-1.345-.51-.435-1-.875-1.605-1.31-3.94-2.5-7.275-4.965-10.81-7.59-1.435-1.06-2.915-2.16-4.46-3.275-1.1-.66-2.055-1.335-3.065-2.05l-1-.715.285-.41 1 .715c1 .71 1.955 1.38 3.055 2.04 1.565 1.13 3.05 2.23 4.5 3.295 3.51 2.595 6.84 5.095 10.78 7.56.61.455 1.135.905 1.645 1.34.51.435 1 .88 1.605 1.315 3.14 2 5.955 4.05 8.935 6.2.915.66 1.845 1.335 2.81 2 .965.665 2.14 1.475 3.22 2.2 1.08.725 2.22 1.48 3.22 2.225 16.56 12.045 30.78 22.19 46.1 32.9l-.265.41Zm5.34-1.95c-8-5.405-15.315-10.78-23.07-16.47l-2.5-1.85c-1-.73-2.14-1.5-3.225-2.2a85.306 85.306 0 0 1-3.235-2.205c-9.32-6.95-18.24-13.245-26.87-19.34-6.39-4.5-13-9.175-19.84-14.15l-1.88-1.25c-2.82-1.865-5.5-3.625-8.255-5.76l.305-.395c2.755 2.12 5.41 3.88 8.225 5.74L-.305 75C6.54 80 13.15 84.645 19.54 89.155c8.63 6.07 17.555 12.37 26.875 19.345 1 .73 2.135 1.5 3.22 2.195a75.053 75.053 0 0 1 3.235 2.21l2.53 1.855c7.75 5.685 15.07 11.055 23.055 16.46l-.28.385Zm5.405-1.895c-1.885-1.385-3.805-2.77-5.77-4.195-2.175-1.575-4.41-3.19-6.725-4.89-11.16-7.78-21.54-15.25-31.58-22.47-10.04-7.22-20.41-14.685-31.57-22.47-1-.58-2-1.255-2.94-1.91s-1.9-1.315-2.92-1.895c-.91-.755-1.805-1.425-2.665-2.075-.86-.65-1.77-1.325-2.655-2.065-.87-.5-1.645-1.045-2.47-1.61a46.23 46.23 0 0 0-1.635-1.095l.27-.42c.585.38 1.12.745 1.65 1.105.815.555 1.585 1.085 2.47 1.615a64.07 64.07 0 0 0 2.67 2.07 60.055 60.055 0 0 1 2.65 2.065c1 .565 2 1.24 2.92 1.895.92.655 1.9 1.315 2.92 1.9 11.18 7.795 21.56 15.26 31.6 22.5 10.04 7.24 20.415 14.685 31.575 22.47 2.32 1.7 4.555 3.32 6.73 4.89 1.965 1.425 3.885 2.81 5.77 4.195l-.295.39Zm5.085-2.135c-3.805-2.55-7.5-5.24-11.08-7.84-4.13-3-8.4-6.11-12.95-9.09a29.322 29.322 0 0 1-1.64-1.34c-.505-.435-1-.875-1.605-1.31-1-.575-2-1.25-2.93-1.905-.93-.655-1.9-1.315-2.92-1.9-6.925-4.86-13.28-9.42-19.42-13.825-6.14-4.405-12.475-8.955-19.375-13.8-1.5-1.03-2.82-2.075-4.12-3.09-1.3-1.015-2.625-2.055-4.125-3.08-2.675-1.665-5-3.36-7.25-5-1.68-1.225-3.42-2.5-5.265-3.72l.275-.415c1.855 1.23 3.6 2.5 5.285 3.73 2.245 1.635 4.56 3.325 7.23 5 1.5 1.04 2.835 2.085 4.135 3.1 1.3 1.015 2.64 2.055 4.1 3.075 6.905 4.845 13.245 9.4 19.38 13.805 6.135 4.405 12.5 8.96 19.4 13.81 1 .58 2 1.255 2.935 1.91s1.9 1.315 2.92 1.895c.62.465 1.145.915 1.655 1.35.51.435 1 .875 1.6 1.315 4.545 3 8.825 6.085 12.96 9.09 3.57 2.6 7.265 5.285 11.06 7.83l-.255.405Zm4.5-2.54c-14.305-10.365-28.14-20.2-42.785-30.615C43.125 89.26 35.76 84 28.2 78.62c-4.19-2.73-8-5.41-11.71-8a628.49 628.49 0 0 0-7.085-4.92c-1.39-1.045-2.74-2-4.04-2.92-2.07-1.46-4-2.84-6-4.5l.315-.39c2 1.625 3.935 3 6 4.46 1.31.92 2.66 1.88 4.045 2.915 2.445 1.67 4.8 3.32 7.08 4.92 3.695 2.59 7.5 5.265 11.705 8C36.05 83.615 43.415 88.85 50.67 94c14.645 10.415 28.5 20.255 42.79 30.62l-.295.415ZM96.96 122c-4.59-3.195-8.935-6.275-13.54-9.54-4.415-3.135-9-6.375-13.8-9.735-.6-.45-1.125-.9-1.635-1.335-.51-.435-1-.875-1.6-1.31-1-.58-2-1.255-2.93-1.905-.93-.65-1.9-1.315-2.92-1.9A1997.761 1997.761 0 0 0 41.185 82.5l-7.11-5.055c-2.335-1.68-4.58-3.27-6.79-4.84C22.5 69.195 17.93 66 12.92 62.165c-1.6-1.195-3.21-2.28-4.765-3.33-1.915-1.29-3.72-2.5-5.45-3.885l.31-.395c1.715 1.365 3.5 2.58 5.42 3.865 1.56 1.05 3.175 2.14 4.785 3.35 5 3.805 9.545 7 14.35 10.43 2.215 1.565 4.46 3.16 6.795 4.84l7.105 5.035c6.405 4.535 12.45 8.815 19.335 13.765 1 .58 2 1.255 2.935 1.91s1.9 1.315 2.92 1.895c.62.465 1.145.915 1.65 1.35.505.435 1 .875 1.605 1.31 4.81 3.355 9.38 6.595 13.795 9.73 4.6 3.265 8.945 6.35 13.535 9.54l-.285.425Zm2.98-3.64c-8-5.565-15.565-10.91-23.55-16.57-4.295-3.045-8.675-6.15-13.23-9.36-.6-.45-1.125-.9-1.635-1.335-.51-.435-1-.88-1.605-1.315-1.29-.92-2.53-1.79-3.735-2.635-2.625-1.84-5.105-3.575-7.725-5.59-1-.575-2-1.25-2.925-1.9-.925-.65-1.9-1.32-2.92-1.9-2.225-1.63-4.205-3.095-6.185-4.565-1.98-1.47-3.97-2.94-6.175-4.56-2.5-1.61-4.81-3.255-7.05-4.845-2.24-1.59-4.545-3.225-7.04-4.84-1.5-1.13-2.96-2.15-4.365-3.14-1.965-1.385-3.82-2.69-5.74-4.215l.31-.39c1.91 1.5 3.76 2.815 5.715 4.195 1.41 1 2.865 2 4.365 3.14 2.5 1.61 4.805 3.255 7.045 4.845 2.24 1.59 4.55 3.225 7.04 4.84 2.22 1.625 4.205 3.1 6.195 4.57 1.99 1.47 3.955 2.93 6.155 4.545 1 .58 2 1.255 2.935 1.905.935.65 1.9 1.315 2.92 1.9 2.635 2.025 5.11 3.76 7.73 5.595 1.21.85 2.45 1.715 3.745 2.64.6.45 1.125.9 1.635 1.34.51.44 1 .875 1.6 1.31 4.555 3.21 8.93 6.31 13.23 9.36 8 5.655 15.5 11 23.545 16.565l-.285.41Zm2.26-4.135c-2.44-1.55-4.66-3.205-7-4.955-1.31-1-2.665-2-4.13-3.035-16.71-11.595-32.535-22.94-47.84-33.91-11-7.875-22.35-16-33.795-24.085l.29-.405C21.165 55.895 32.53 64.04 43.5 71.92c15.305 10.97 31.13 22.31 47.835 33.905 1.5 1.055 2.83 2.065 4.14 3.04 2.345 1.75 4.555 3.4 7 4.935l-.275.425Zm1.73-4.515c-8.845-6.19-17.605-12.46-26.08-18.5-11.255-8.055-22.895-16.385-35.255-24.9a19.452 19.452 0 0 1-2.225-1.81 19.34 19.34 0 0 0-2.175-1.74c-5.085-3.28-9.775-6.7-14.31-10-3.575-2.605-7.27-5.295-11.095-7.875l.28-.415c3.835 2.585 7.53 5.28 11.11 7.885 4.53 3.305 9.215 6.715 14.29 10 .786.54 1.531 1.137 2.23 1.785a18.47 18.47 0 0 0 2.18 1.74c12.36 8.5 24 16.855 35.26 24.91 8.475 6.065 17.235 12.33 26.08 18.5l-.29.42Zm1.675-4.56a11.673 11.673 0 0 0-2.755-1.83c-3.115-2.075-5.88-4.095-8.555-6.045-2.675-1.95-5.43-3.965-8.5-6a28.923 28.923 0 0 1-1.64-1.345c-.505-.44-1-.875-1.605-1.31-7.35-5-13.5-9.39-20.56-14.685-8.615-6.22-17-12.085-25.09-17.755-6.765-4.735-13.76-9.635-20.745-14.64l.29-.405c7 5 14 9.9 20.745 14.635 8.1 5.67 16.5 11.535 25.095 17.76A516.982 516.982 0 0 0 82.84 88.215c.605.45 1.13.9 1.64 1.34.51.44 1 .875 1.6 1.31 3.08 2.05 5.845 4.07 8.5 6 2.655 1.93 5.43 3.965 8.5 6a12.004 12.004 0 0 1 2.84 1.895l-.315.39Zm2.065-4.275C99.09 94.96 91 89.155 82.45 83c-8.89-6.38-18.08-13-27.81-19.665-5.44-3.97-10.5-7.63-15.425-11.165C34.29 48.635 29.225 45 23.79 41c-.415-.258-.846-.49-1.29-.695-.466-.22-.917-.47-1.35-.75l-.035-.055a6.868 6.868 0 0 0-1.57-1.325l.2-.46a7 7 0 0 1 1.72 1.43c.408.256.83.488 1.265.695.465.22.914.47 1.345.75 5.425 3.99 10.52 7.65 15.425 11.185 4.905 3.535 10 7.2 15.425 11.165 9.725 6.685 18.92 13.285 27.81 19.665 8.56 6.145 16.64 11.945 25.215 17.86l-.28.41Zm2.755-3.785c-2.675-2-5.415-3.925-8.065-5.785-3.185-2.24-6.5-4.555-9.835-7.105l-22.755-16L47 52.185c-1.085-.795-2.13-1.575-3.16-2.335-3.16-2.35-6.145-4.555-9.465-6.77C32.38 41.8 30.5 40.365 28.7 39c-1.975-1.5-3.84-2.935-5.83-4.16l.265-.425A71.841 71.841 0 0 1 29 38.585c1.805 1.38 3.665 2.805 5.65 4.08 3.33 2.22 6.32 4.435 9.5 6.78 1.03.765 2.075 1.54 3.16 2.335l22.76 16 22.765 16c3.355 2.555 6.645 4.865 9.825 7.1 2.655 1.865 5.4 3.795 8.08 5.795l-.315.415Z" class="shade0"/>
    <path fill="#28192D" d="M250.394 286.97a.252.252 0 0 1-.245-.19l-.735-2.915a.249.249 0 0 1 .027-.19.267.267 0 0 1 .065-.073.254.254 0 0 1 .28-.014.256.256 0 0 1 .113.157l.735 2.915c.008.031.01.064.006.097a.25.25 0 0 1-.186.203l-.06.01Zm2.451-.87a.25.25 0 0 1-.245-.2l-.425-2.035a.253.253 0 0 1 .038-.191.253.253 0 0 1 .353-.071.251.251 0 0 1 .109.162l.425 2.035a.249.249 0 0 1-.037.188.248.248 0 0 1-.158.107l-.06.005Z" class="shade90"/>
    <path fill="#fff" d="m221.494 242.185 3.295 31.78-15.905 1.8-4.855-37.635 17.465 4.055Z" class="shade0"/>
    <path fill="#28192D" d="M208.885 276a.253.253 0 0 1-.245-.215l-4.855-37.635a.26.26 0 0 1 .08-.22.253.253 0 0 1 .106-.056.252.252 0 0 1 .119.001l17.465 4.05a.252.252 0 0 1 .19.22l3.295 31.78a.251.251 0 0 1-.053.183.253.253 0 0 1-.167.092l-15.905 1.8h-.03Zm-4.56-37.56 4.78 37.06 15.395-1.755-3.25-31.355-16.925-3.95Z" class="shade90"/>
    <path fill="#ECA3B5" d="M223.07 258.875c-1.5 0-3.035.03-4.555.06-2.785.065-5.565.19-8.345.415l-3.365.275 2.08 16.14 15.905-1.8-1.565-15.09h-.155Z" class="shade40"/>
    <path fill="#fff" d="m207.336 262.51 16.71.95.315 1.055-17.025-1.2v-.805Zm0 2.45 17.665.95.335 1.055-18-1.2v-.805Z" class="shade0"/>
    <path fill="#28192D" d="M208.886 276a.25.25 0 0 1-.245-.215l-2.085-16.14a.27.27 0 0 1 .055-.19.244.244 0 0 1 .175-.095l1.27-.105 2.095-.17c2.64-.21 5.375-.345 8.36-.415 1.365-.03 2.855-.05 4.56-.06h.155c.062 0 .122.022.168.064a.256.256 0 0 1 .082.161l1.565 15.09a.249.249 0 0 1-.22.275l-15.905 1.8h-.03Zm-1.8-16.16 2 15.635 15.415-1.73-1.5-14.62c-1.67 0-3.135.03-4.5.06-3 .065-5.7.205-8.33.415l-2.095.17-.99.07Z" class="shade90"/>
    <path fill="#fff" d="M250.68 286.845c-4.785-.04-42.835-.305-42.835-.305s-1.875-.665-2.41-4.06c-.535-3.395 2.78-12.955 2.78-12.955s6.865.065 8.375-.545c1.51-.61 7.12-2.56 7.12-2.56l.88.335c11.9 4.425 14.4 7.95 21.285 10.045 4.5 1.38 7.25 2.14 7.25 2.14s2.335 7.94-2.445 7.905Z" class="shade0"/>
    <path fill="#28192D" d="M250.714 287.095h-.04c-4.78-.04-42.83-.305-42.83-.305a.18.18 0 0 1-.08 0c-.085 0-2-.755-2.575-4.26-.535-3.415 2.65-12.68 2.785-13.075a.223.223 0 0 1 .089-.128.224.224 0 0 1 .151-.037c.07 0 6.835.06 8.28-.53 1.445-.59 7.075-2.54 7.13-2.56a.227.227 0 0 1 .17 0l.885.33a79.745 79.745 0 0 1 13.12 6.235c2.66 1.5 4.95 2.835 8.145 3.805 4.47 1.365 7.22 2.13 7.245 2.14a.26.26 0 0 1 .175.17c.06.2 1.42 4.925-.24 7.125a2.83 2.83 0 0 1-2.41 1.09Zm-42.815-.805c1.525 0 38.1.265 42.78.305h.035a2.349 2.349 0 0 0 2-.9c1.365-1.81.395-5.78.19-6.55-.605-.175-3.205-.91-7.12-2.105-3.25-1-5.565-2.315-8.245-3.85a78.707 78.707 0 0 0-13.04-6.19l-.8-.3c-.71.245-5.635 1.96-7 2.5-1.365.54-7.17.57-8.295.565-.435 1.295-3.185 9.615-2.705 12.665.445 2.945 1.95 3.75 2.2 3.86Z" class="shade90"/>
    <path fill="#A6C2EA" d="M235.61 285.785c-5.25-.22-10.5-.5-15.745-.68a110.97 110.97 0 0 1-14.045-1.1c.75 2.075 2.025 2.535 2.025 2.535s38.05.265 42.835.305a2.829 2.829 0 0 0 1.775-.525c-5.615-.16-11.235-.295-16.845-.535Z" class="shade50"/>
    <path fill="#28192D" d="m253.47 284.945-47.795-1.12a.26.26 0 0 1-.245-.255.253.253 0 0 1 .078-.177.25.25 0 0 1 .182-.068l47.81 1.12a.257.257 0 0 1 .225.163.266.266 0 0 1-.008.195.229.229 0 0 1-.06.081.243.243 0 0 1-.187.061Z" class="shade90"/>
    <path fill="#28192D" d="M208.951 286.8a.25.25 0 0 1-.245-.19l-.735-2.915a.27.27 0 0 1-.006-.098.261.261 0 0 1 .098-.165.256.256 0 0 1 .186-.047.237.237 0 0 1 .093.034.242.242 0 0 1 .114.156l.735 2.915a.246.246 0 0 1-.025.189.251.251 0 0 1-.066.072.245.245 0 0 1-.089.039l-.06.01Zm2.76.01a.251.251 0 0 1-.24-.19l-.735-2.915a.261.261 0 0 1 .03-.195.258.258 0 0 1 .47.075l.735 2.915c.008.032.01.065.005.097a.24.24 0 0 1-.032.093.267.267 0 0 1-.065.073.274.274 0 0 1-.088.042l-.08.005Zm2.788.01a.246.246 0 0 1-.24-.185l-.76-2.915a.256.256 0 0 1 .18-.305.249.249 0 0 1 .19.027.267.267 0 0 1 .073.065c.02.026.034.056.042.088l.735 2.915a.27.27 0 0 1 .006.098.254.254 0 0 1-.186.207l-.04.005Zm8.265.035a.248.248 0 0 1-.245-.19l-.735-2.915a.26.26 0 0 1 .19-.31.256.256 0 0 1 .31.19l.735 2.915a.232.232 0 0 1 .006.098.272.272 0 0 1-.032.092.251.251 0 0 1-.154.115l-.075.005Zm2.762.015a.257.257 0 0 1-.24-.19l-.735-2.915a.27.27 0 0 1-.006-.098.261.261 0 0 1 .098-.165.256.256 0 0 1 .185-.047.245.245 0 0 1 .203.185l.74 2.915a.26.26 0 0 1-.028.189.257.257 0 0 1-.152.116l-.065.01Zm2.764.01a.248.248 0 0 1-.24-.19l-.74-2.915a.26.26 0 0 1 .188-.313.261.261 0 0 1 .195.029.252.252 0 0 1 .117.159l.735 2.92a.239.239 0 0 1-.027.188.254.254 0 0 1-.153.112l-.075.01Zm2.764.01a.249.249 0 0 1-.155-.053.246.246 0 0 1-.09-.137l-.735-2.915a.249.249 0 0 1 .027-.19.255.255 0 0 1 .345-.087.256.256 0 0 1 .113.157l.735 2.915a.235.235 0 0 1-.091.26.224.224 0 0 1-.089.04.121.121 0 0 1-.06.01Zm2.762.01a.243.243 0 0 1-.24-.185l-.74-2.92a.256.256 0 0 1 .282-.307.235.235 0 0 1 .163.098.247.247 0 0 1 .04.089l.74 2.915a.256.256 0 0 1-.185.305l-.06.005Zm2.764.015a.255.255 0 0 1-.245-.19l-.735-2.915a.27.27 0 0 1-.006-.098.272.272 0 0 1 .032-.092.255.255 0 0 1 .154-.115.26.26 0 0 1 .189.028.257.257 0 0 1 .116.152l.735 2.915a.249.249 0 0 1-.027.19.267.267 0 0 1-.065.073.239.239 0 0 1-.088.042l-.06.01Zm2.76.01a.254.254 0 0 1-.24-.19l-.735-2.915a.249.249 0 0 1 .027-.19.255.255 0 0 1 .251-.12.25.25 0 0 1 .163.101.237.237 0 0 1 .039.089l.74 2.915a.25.25 0 0 1-.18.3l-.065.01Zm2.764.01a.252.252 0 0 1-.154-.053.26.26 0 0 1-.091-.137l-.735-2.915a.243.243 0 0 1 .025-.189.249.249 0 0 1 .155-.111.25.25 0 0 1 .191.025.231.231 0 0 1 .073.066c.02.027.034.057.041.089l.735 2.915a.232.232 0 0 1 .006.098.272.272 0 0 1-.032.092.255.255 0 0 1-.154.115l-.06.005Zm2.766.01a.25.25 0 0 1-.245-.185l-.735-2.92a.257.257 0 0 1 .5-.12l.735 2.915a.27.27 0 0 1 .006.098.254.254 0 0 1-.186.207l-.075.005Zm2.76.015a.248.248 0 0 1-.24-.19l-.74-2.915a.257.257 0 1 1 .5-.125l.74 2.915a.253.253 0 0 1-.185.305l-.075.01Zm-15.41-11.46a.251.251 0 0 1-.149-.047.253.253 0 0 1-.09-.283.255.255 0 0 1 .094-.125l4.785-3.36-7.655 2.19a.239.239 0 0 1-.275-.1.25.25 0 0 1 0-.29l2.97-3.85-7.46 3a.253.253 0 0 1-.28-.06.268.268 0 0 1-.035-.285l2.875-5.44a.257.257 0 0 1 .145-.145.26.26 0 0 1 .104-.016.259.259 0 0 1 .101.028c.031.017.058.04.08.067a.248.248 0 0 1 .01.296l-2.5 4.835 7.685-3.085a.246.246 0 0 1 .29.08.25.25 0 0 1 0 .305l-3.07 3.97 8.35-2.39a.244.244 0 0 1 .295.13.245.245 0 0 1 .018.172.244.244 0 0 1-.098.143l-5.12 3.595c2.5-.38 8.785-1.26 11.285-.96a.248.248 0 0 1 .215.28.249.249 0 0 1-.275.22c-3.025-.37-12.115 1.105-12.21 1.12l-.085.005Zm-67.156 11.47a.249.249 0 0 1-.155-.053.246.246 0 0 1-.09-.137l-.735-2.915a.249.249 0 0 1 .027-.19.267.267 0 0 1 .065-.073.239.239 0 0 1 .088-.042.254.254 0 0 1 .305.185l.735 2.915c.008.031.01.064.006.097a.25.25 0 0 1-.186.203l-.06.01Zm2.435-.87a.254.254 0 0 1-.158-.056.255.255 0 0 1-.087-.144l-.425-2.035a.245.245 0 0 1 .105-.257.255.255 0 0 1 .279-.003.23.23 0 0 1 .07.069c.018.028.03.058.036.091l.425 2.035a.249.249 0 0 1-.195.295l-.05.005Z" class="shade90"/>
    <path fill="#fff" d="m151.909 246.65-13.57 27.555-16.855 1.56 15.115-32.635 15.31 3.52Z" class="shade0"/>
    <path fill="#28192D" d="M121.499 276a.246.246 0 0 1-.116-.026.25.25 0 0 1-.089-.079.266.266 0 0 1-.045-.122.266.266 0 0 1 .02-.128l15.115-32.635a.248.248 0 0 1 .119-.118.244.244 0 0 1 .166-.017l15.31 3.5a.232.232 0 0 1 .17.135.247.247 0 0 1 0 .22l-13.57 27.555a.246.246 0 0 1-.2.14L121.499 276Zm15.255-32.595-14.86 32.095 16.285-1.5 13.365-27.15-14.79-3.445Z" class="shade90"/>
    <path fill="#ECA3B5" d="M144.63 261.12c-1.525 0-3.05 0-4.585.055-2.82.05-5.67.16-8.565.355l-3.5.24-6.5 14 16.855-1.56 6.445-13.085-.15-.005Z" class="shade40"/>
    <path fill="#fff" d="m126.96 264.275 16.21.82-.245.915-16.39-1.04.425-.695Zm-1.301 2.12 17.165.825-.225.915-17.365-1.04.425-.7Z" class="shade0"/>
    <path fill="#28192D" d="M121.499 276a.246.246 0 0 1-.116-.026.25.25 0 0 1-.089-.079.266.266 0 0 1-.045-.122.268.268 0 0 1 .02-.128l6.5-14a.26.26 0 0 1 .21-.145l3.5-.24c2.765-.185 5.57-.3 8.58-.355a353.63 353.63 0 0 1 4.585-.055h.16a.273.273 0 0 1 .118.034.256.256 0 0 1 .092.081.24.24 0 0 1 0 .245l-6.445 13.085a.246.246 0 0 1-.2.14L121.499 276Zm6.645-14-6.25 13.5 16.285-1.5 6.205-12.6c-1.44 0-2.885 0-4.335.055-3 .055-5.8.17-8.555.355l-3.35.19Z" class="shade90"/>
    <path fill="#fff" d="M165.35 286.845c-4.785-.04-42.835-.305-42.835-.305s-1.875-.665-2.41-4.06c-.535-3.395 2.78-12.955 2.78-12.955l4.445 1.3a14.831 14.831 0 0 0 10.815-1l3.385-1.705.885.33c11.9 4.43 11.245 6.24 18.13 8.335 4.5 1.38 7.25 2.14 7.25 2.14s2.335 7.955-2.445 7.92Z" class="shade0"/>
    <path fill="#28192D" d="M165.384 287.095h-.04c-4.78-.04-42.83-.305-42.83-.305a.215.215 0 0 1-.08 0c-.085 0-2.025-.755-2.575-4.26-.535-3.415 2.65-12.68 2.785-13.075a.251.251 0 0 1 .31-.155l4.445 1.3a14.501 14.501 0 0 0 10.63-.97l3.39-1.705a.266.266 0 0 1 .2 0l.88.33c6.37 2.37 9.17 4 11.42 5.315a27.024 27.024 0 0 0 6.695 3c4.47 1.365 7.22 2.13 7.245 2.14a.26.26 0 0 1 .175.17c.06.2 1.425 4.925-.235 7.125a2.844 2.844 0 0 1-2.415 1.09Zm-42.815-.805c1.525 0 38.1.265 42.78.305a2.362 2.362 0 0 0 2.05-.9c1.365-1.81.395-5.78.19-6.55-.605-.175-3.205-.91-7.12-2.105a27.501 27.501 0 0 1-6.805-3.04c-2.23-1.3-5-2.92-11.34-5.275l-.78-.295-3.29 1.655a14.996 14.996 0 0 1-11 1l-4.22-1.235c-.5 1.46-3.16 9.6-2.685 12.61.475 3.01 1.97 3.72 2.22 3.83Z" class="shade90"/>
    <path fill="#A6C2EA" d="M150.28 285.785c-5.25-.22-10.5-.5-15.745-.68A110.99 110.99 0 0 1 120.5 284c.75 2.075 2.025 2.535 2.025 2.535s38.05.265 42.835.305a2.829 2.829 0 0 0 1.775-.525c-5.635-.155-11.245-.29-16.855-.53Z" class="shade50"/>
    <path fill="#28192D" d="m168.14 284.945-47.795-1.12a.263.263 0 0 1-.173-.079.262.262 0 0 1-.072-.176c0-.033.006-.066.02-.097a.252.252 0 0 1 .141-.134.256.256 0 0 1 .099-.014l47.795 1.12a.245.245 0 0 1 .174.08.257.257 0 0 1 .066.18.232.232 0 0 1-.076.175.244.244 0 0 1-.179.065Z" class="shade90"/>
    <path fill="#28192D" d="M123.62 286.8a.257.257 0 0 1-.155-.053.259.259 0 0 1-.09-.137l-.735-2.915a.257.257 0 0 1 .5-.12l.735 2.915a.246.246 0 0 1-.025.189.266.266 0 0 1-.066.072.245.245 0 0 1-.089.039l-.075.01Zm2.759.01a.254.254 0 0 1-.24-.19l-.735-2.915a.244.244 0 0 1 .093-.259.24.24 0 0 1 .087-.041.248.248 0 0 1 .19.027.24.24 0 0 1 .073.065c.02.026.034.056.042.088l.735 2.915a.232.232 0 0 1 .006.098.272.272 0 0 1-.032.092.267.267 0 0 1-.065.073.27.27 0 0 1-.089.042l-.065.005Zm2.766.01a.246.246 0 0 1-.24-.185l-.74-2.915a.256.256 0 0 1 .18-.305.249.249 0 0 1 .19.027.267.267 0 0 1 .073.065c.02.026.034.056.042.088l.74 2.915a.254.254 0 0 1-.185.305l-.06.005Zm8.29.035a.249.249 0 0 1-.155-.053.246.246 0 0 1-.09-.137l-.735-2.915a.244.244 0 0 1 .027-.188.245.245 0 0 1 .153-.112.27.27 0 0 1 .098-.006.254.254 0 0 1 .207.186l.735 2.915a.27.27 0 0 1 .006.098.261.261 0 0 1-.098.165.256.256 0 0 1-.088.042l-.06.005Zm2.761.015a.252.252 0 0 1-.24-.19l-.735-2.915a.252.252 0 0 1 .029-.195.253.253 0 0 1 .158-.117.258.258 0 0 1 .313.187l.735 2.915a.256.256 0 0 1-.18.305l-.08.01Zm2.764.01a.247.247 0 0 1-.24-.19l-.72-2.915a.264.264 0 0 1 .029-.195.253.253 0 0 1 .259-.123.266.266 0 0 1 .169.102c.02.027.035.058.043.091l.735 2.92c.008.031.01.064.005.096a.245.245 0 0 1-.185.204l-.095.01Zm2.764.01a.249.249 0 0 1-.155-.053.25.25 0 0 1-.09-.137l-.735-2.915a.249.249 0 0 1 .027-.19.247.247 0 0 1 .344-.085c.057.035.098.09.114.155l.735 2.915a.235.235 0 0 1-.091.26.24.24 0 0 1-.089.04.136.136 0 0 1-.06.01Zm2.776.01a.239.239 0 0 1-.152-.051.24.24 0 0 1-.088-.134l-.76-2.92a.256.256 0 0 1 .185-.3.239.239 0 0 1 .096-.005.245.245 0 0 1 .204.185l.74 2.915a.253.253 0 0 1-.031.19.252.252 0 0 1-.154.115l-.04.005Zm2.749.015a.247.247 0 0 1-.154-.054.254.254 0 0 1-.091-.136l-.735-2.915a.26.26 0 0 1 .029-.195.263.263 0 0 1 .159-.118.258.258 0 0 1 .312.188l.73 2.915a.232.232 0 0 1 .006.098.28.28 0 0 1-.032.092.267.267 0 0 1-.065.073.27.27 0 0 1-.089.042l-.07.01Zm2.751.01a.254.254 0 0 1-.24-.19l-.74-2.915a.253.253 0 0 1 .031-.19.252.252 0 0 1 .154-.115.248.248 0 0 1 .188.031c.057.034.097.09.112.154l.74 2.915a.25.25 0 0 1-.028.187.252.252 0 0 1-.152.113l-.065.01Zm2.775.01a.257.257 0 0 1-.155-.053.259.259 0 0 1-.09-.137l-.735-2.915a.244.244 0 0 1 .027-.188.245.245 0 0 1 .153-.112.27.27 0 0 1 .098-.006.254.254 0 0 1 .207.186l.735 2.915a.27.27 0 0 1 .006.098.254.254 0 0 1-.186.207l-.06.005Zm2.761.01a.247.247 0 0 1-.24-.185l-.735-2.92a.239.239 0 0 1 .027-.188.254.254 0 0 1 .458.068l.735 2.915a.249.249 0 0 1-.027.19.247.247 0 0 1-.153.115l-.065.005Zm2.763.015a.245.245 0 0 1-.24-.19l-.74-2.915a.256.256 0 0 1 .18-.305.253.253 0 0 1 .305.18l.74 2.915a.255.255 0 0 1-.185.305l-.06.01ZM146.89 275.5a.258.258 0 0 1-.149-.047.253.253 0 0 1-.09-.283.255.255 0 0 1 .094-.125l4.785-3.36-7.655 2.19a.239.239 0 0 1-.275-.1.25.25 0 0 1 0-.29l2.97-3.85-7.46 3a.247.247 0 0 1-.147.014.251.251 0 0 1-.168-.359l2.84-5.435a.257.257 0 0 1 .145-.145.26.26 0 0 1 .104-.016.259.259 0 0 1 .101.028.258.258 0 0 1 .126.161.248.248 0 0 1-.036.202l-2.5 4.835 7.685-3.085a.246.246 0 0 1 .29.08.248.248 0 0 1 0 .305l-3.07 3.97 8.35-2.39a.251.251 0 0 1 .315.303.25.25 0 0 1-.1.142l-5.12 3.595c2.5-.38 8.785-1.265 11.285-.96a.247.247 0 0 1 .165.096.243.243 0 0 1 .05.184.246.246 0 0 1-.275.22c-3.04-.38-12.15 1.12-12.22 1.12h-.04Z" class="shade90"/>
    <path fill="#fff" d="M157.824 142.13a8.898 8.898 0 0 1 .615 4.84c-.545 3.15.555 7.435.43 8.755-.125 1.32-2.905 1.385-3.685-1.4-.525-1.875-1.295-4.66-1.745-6.275" class="shade0"/>
    <path fill="#28192D" d="M157.67 156.855c-1 0-2.245-.745-2.725-2.46-.525-1.88-1.295-4.66-1.745-6.28a.25.25 0 0 1 .364-.282.24.24 0 0 1 .116.152c.45 1.615 1.22 4.395 1.745 6.275.435 1.54 1.54 2.17 2.38 2.09a.802.802 0 0 0 .815-.65 13.35 13.35 0 0 0-.205-2.31c-.24-1.86-.58-4.4-.22-6.46a8.6 8.6 0 0 0-.6-4.705.25.25 0 0 1 .407-.272.246.246 0 0 1 .053.082 9.142 9.142 0 0 1 .635 5c-.345 2 0 4.5.225 6.31.138.799.207 1.609.205 2.42a1.276 1.276 0 0 1-1.27 1.1l-.18-.01Z" class="shade90"/>
    <path fill="#fff" d="M148.241 136.62c-3.65 5.5-7.875 14.695-3 18.735 4.875 4.04 8.36.185 11.74-8.75a20.9 20.9 0 0 0 1.5-8.255l7.165-13.22-12.395-3.05s-3.25 11.92-5.01 14.54Z" class="shade0"/>
    <path fill="#28192D" d="M148.88 157.21c-1.205 0-2.46-.55-3.8-1.66-4.62-3.83-1.5-12.365 2.95-19.07 1.705-2.565 4.95-14.35 5-14.465a.26.26 0 0 1 .114-.15.258.258 0 0 1 .186-.03l12.395 3.055a.236.236 0 0 1 .165.14.247.247 0 0 1 0 .22l-7.13 13.16a21.34 21.34 0 0 1-1.525 8.285c-2.425 6.405-4.75 9.705-7.31 10.38a4.006 4.006 0 0 1-1.045.135Zm-.435-20.455c-1.295 1.95-3.62 5.82-4.66 9.84s-.5 6.835 1.615 8.57c1.59 1.32 3 1.785 4.38 1.425 2.39-.63 4.605-3.83 6.965-10.075a20.749 20.749 0 0 0 1.5-8.15c0-.045.01-.09.03-.13l7-12.94-11.845-2.915c-.48 1.73-3.35 11.915-4.985 14.375Z" class="shade90"/>
    <path fill="#fff" d="M144.9 142.875c-1.36 2-6.885 10.31-6.855 13.175.025 2.67 4.755-3.44 6.965-7.44" class="shade0"/>
    <path fill="#28192D" d="M138.409 156.95a.565.565 0 0 1-.13 0c-.22-.055-.5-.255-.5-.885-.03-3.025 5.74-11.625 6.9-13.315a.277.277 0 0 1 .067-.081.248.248 0 0 1 .199-.049.242.242 0 0 1 .169.115c.019.03.031.064.035.099a.228.228 0 0 1-.009.104.232.232 0 0 1-.051.092c-.7 1.025-6.84 10.09-6.81 13.03 0 .26.055.39.105.405h.055c.885 0 4.3-4.28 6.335-7.965a.25.25 0 0 1 .15-.12.252.252 0 0 1 .311.169.25.25 0 0 1-.021.191c-1.575 2.87-5.33 8.21-6.805 8.21Z" class="shade90"/>
    <path fill="#fff" d="M144.901 148.84c-2 2.975-6.445 9.955-6.42 12.735.03 3.185 6.535-5 8.5-9.165" class="shade0"/>
    <path fill="#28192D" d="M138.91 162.54a.61.61 0 0 1-.135 0c-.245-.055-.54-.265-.545-.95 0-2.76 4.035-9.25 6.46-12.875a.25.25 0 0 1 .454.185.25.25 0 0 1-.039.09c-1.925 2.88-6.4 9.875-6.375 12.595 0 .13 0 .435.155.465 1.105.24 6.025-5.855 7.86-9.74a.252.252 0 0 1 .326-.102.247.247 0 0 1 .124.134.242.242 0 0 1 0 .183c-1.555 3.285-6.495 10.015-8.285 10.015Z" class="shade90"/>
    <path fill="#fff" d="M146.969 152.41c-2.185 3.38-5.5 8.88-5.455 11.27.03 3.425 7.31-6.565 8.64-10.285" class="shade0"/>
    <path fill="#28192D" d="M141.916 164.635h-.095c-.25-.04-.55-.24-.555-.94 0-2.37 3-7.5 5.5-11.41a.239.239 0 0 1 .067-.071.224.224 0 0 1 .089-.04.249.249 0 0 1 .189.036.25.25 0 0 1 .075.345c-3.5 5.43-5.435 9.38-5.415 11.135 0 .205.04.435.14.455h.045c1.265 0 6.76-7.435 7.97-10.825a.262.262 0 0 1 .128-.147.25.25 0 0 1 .279.042.254.254 0 0 1 .063.275c-1.065 2.95-6.605 11.145-8.48 11.145Z" class="shade90"/>
    <path fill="#fff" d="M150.154 153.395c-2.12 3.37-4.895 7.62-4.875 9.755.035 3.24 6.44-5.42 8.28-9.5" class="shade0"/>
    <path fill="#28192D" d="M145.679 164.105a.443.443 0 0 1-.115 0c-.24-.05-.525-.255-.535-.945 0-2.065 2.375-5.86 4.5-9.21l.43-.68a.25.25 0 1 1 .425.265l-.43.68c-1.97 3.13-4.425 7-4.41 8.94 0 .27.055.445.14.46 1.025.23 5.905-6.165 7.66-10.045a.256.256 0 0 1 .33-.125.253.253 0 0 1 .081.055.248.248 0 0 1 .044.275c-1.34 2.925-6.34 10.33-8.12 10.33Z" class="shade90"/>
    <path fill="#fff" d="M153.46 151.425s.76 1.42 1.625.385 3.24-7.54 2.975-8.84c-.265-1.3-2.455-1.5-2.455-1.5l-3 3.34" class="shade0"/>
    <path fill="#28192D" d="M336.359 287.095H75.039a.256.256 0 0 1-.25-.25.251.251 0 0 1 .25-.25h261.32a.25.25 0 0 1 0 .5ZM132.001 65.805h-10.735a.25.25 0 1 1 0-.5h10.735a10.5 10.5 0 0 0 10.5-10.5V54.2a10.501 10.501 0 0 0-10.5-10.5.25.25 0 1 1 0-.5 11 11 0 0 1 11 11v.625a11 11 0 0 1-11 10.98Zm53.289 32.09-58.685 159.32s11.66 3.785 18.895 3.34c7.235-.445 12.865-1.265 12.865-1.265L204.5 131l3.56-27.205" class="shade90"/>
    <path fill="#28192D" d="M228.17 102.01v155.205h-26.5l-6.225-157.61 32.725 2.405Z" class="shade90"/>
    <path fill="#fff" d="M192.97 163.345a.243.243 0 0 1-.085 0 .248.248 0 0 1-.166-.224.243.243 0 0 1 .016-.096l13.795-38.08a.246.246 0 0 1 .165-.155l3.895-1.085a.26.26 0 0 1 .191.024c.058.033.1.087.119.151a.26.26 0 0 1-.175.31l-3.77 1.045-13.75 37.96a.253.253 0 0 1-.235.15Zm104.301-111.45c-1.425.315-15.24-.025-15.24-.025l-15.935 4.735c1.38 3.215 4.225 6.46 6.09 9.5l2.43-2.05a50.51 50.51 0 0 1 9.53-.81c5.605 0 16.5-2.855 18.75-8.73s-1.46-3.55-5.625-2.62Z" class="shade0"/>
    <path fill="#28192D" d="M272.184 66.355h-.04a.228.228 0 0 1-.17-.115c-.68-1.105-1.5-2.215-2.315-3.395-1.43-2-2.91-4.075-3.795-6.135a.242.242 0 0 1-.022-.102.241.241 0 0 1 .086-.186.268.268 0 0 1 .091-.052l15.94-4.735h.075c4.765.12 14.075.275 15.18.03.79-.175 1.555-.4 2.295-.615 1.855-.545 3.32-.975 4-.25.535.58.42 1.76-.37 3.82-1.305 3.385-5.215 5.525-8.265 6.72a31.998 31.998 0 0 1-10.68 2.16h-.195a51.034 51.034 0 0 0-9.245.795l-2.38 2a.249.249 0 0 1-.19.06Zm-5.75-9.59a36.285 36.285 0 0 0 3.635 5.785c.78 1.1 1.525 2.14 2.175 3.18l2.21-1.865a.285.285 0 0 1 .11-.055 51.5 51.5 0 0 1 9.58-.81h.05c5.47 0 16.265-2.85 18.47-8.57.685-1.785.84-2.895.47-3.3-.46-.5-1.93-.07-3.5.39-.745.215-1.5.445-2.325.625-1.415.315-14.29 0-15.265 0l-15.61 4.62Z" class="shade90"/>
    <path fill="#fff" d="M292.199 54.345s7.44 1.895 11.125-1.695Z" class="shade0"/>
    <path fill="#28192D" d="M296.58 55.105a19.654 19.654 0 0 1-4.445-.5.257.257 0 0 1-.07-.47.256.256 0 0 1 .195-.03c.075 0 7.35 1.82 10.89-1.625a.244.244 0 0 1 .18-.086.25.25 0 0 1 .258.261.261.261 0 0 1-.025.1.266.266 0 0 1-.063.08c-1.86 1.805-4.595 2.27-6.92 2.27Z" class="shade90"/>
    <path fill="#fff" d="M291.109 57.175s7.445 1.895 11.13-1.695Z" class="shade0"/>
    <path fill="#28192D" d="M295.5 57.935a19.655 19.655 0 0 1-4.445-.5.244.244 0 0 1-.153-.115.235.235 0 0 1-.032-.093.247.247 0 0 1 .005-.097.256.256 0 0 1 .305-.18c.075 0 7.35 1.82 10.89-1.625a.245.245 0 0 1 .178-.074.251.251 0 0 1 .232.344.257.257 0 0 1-.055.08c-1.87 1.795-4.605 2.26-6.925 2.26Z" class="shade90"/>
    <path fill="#fff" d="m274.125 54.3 5.555-1.655s9.255-3.87 11.58-5.645c2.325-1.775 2.345.91.74 3.175-1.605 2.265-2.5 2.16-2.5 2.16" class="shade0"/>
    <path fill="#28192D" d="M274.125 54.55a.247.247 0 0 1-.24-.18.252.252 0 0 1 .165-.31l5.56-1.655c.065-.03 9.225-3.865 11.5-5.625 1.095-.845 1.665-.695 1.95-.425.64.61.255 2.38-.855 3.945-1.645 2.32-2.62 2.28-2.725 2.265a.26.26 0 0 1-.22-.28.26.26 0 0 1 .28-.22s.8 0 2.255-2.055c1.075-1.5 1.265-2.965.92-3.29-.195-.195-.685 0-1.3.455-2.325 1.8-11.26 5.54-11.635 5.7l-5.585 1.665-.07.01Z" class="shade90"/>
    <path fill="#fff" d="M290.539 59.655s4.735.8 7.87-.345Z" class="shade0"/>
    <path fill="#28192D" d="M294.11 60.18a23.744 23.744 0 0 1-3.615-.28.254.254 0 0 1-.205-.29.254.254 0 0 1 .29-.205c.045 0 4.71.78 7.74-.33a.254.254 0 0 1 .325.15.25.25 0 0 1-.15.32c-1.416.456-2.898.67-4.385.635Z" class="shade90"/>
    <path fill="#fff" d="m266.795 81.37 5.34.34s1.37-5.035.05-7.32c-1.675-2.89-1.15-3.835-3.04-8.955-1.89-5.12-1.185-5.75-1.185-5.75" class="shade0"/>
    <path fill="#28192D" d="m272.134 81.96-5.345-.34a.25.25 0 0 1-.23-.265.247.247 0 0 1 .081-.176.239.239 0 0 1 .184-.06l5.13.326c.235-.94 1.14-5 .03-6.93a13.457 13.457 0 0 1-1.57-4.125 42.451 42.451 0 0 0-1.5-4.87c-1.81-4.9-1.31-5.85-1.115-6a.256.256 0 0 1 .355 0 .256.256 0 0 1 0 .355s-.465.815 1.255 5.47a42.954 42.954 0 0 1 1.5 4.925 13.033 13.033 0 0 0 1.5 4c1.36 2.345.03 7.3 0 7.5a.25.25 0 0 1-.275.19Z" class="shade90"/>
    <path fill="#fff" d="m278.859 63.145-16.63 21.08-2.415-20.465 3.075-5.425 6.565-5.63" class="shade0"/>
    <path fill="#28192D" d="M262.231 84.5a.169.169 0 0 1-.07 0 .255.255 0 0 1-.18-.21l-2.415-20.465a.269.269 0 0 1 .03-.155l3.08-5.425a.23.23 0 0 1 .055-.065l6.56-5.68a.256.256 0 0 1 .183-.06.252.252 0 0 1 .147.441l-6.535 5.62-3 5.314 2.335 19.785L278.666 63a.25.25 0 0 1 .35-.04.243.243 0 0 1 .086.264.255.255 0 0 1-.046.086l-16.63 21.08a.254.254 0 0 1-.195.11Z" class="shade90"/>
    <path fill="#fff" d="M217.43 68.465s1.15 16.8 5.375 23.355 8.155 9.86 17.5 6.38c9.345-3.48 31.825-16.5 31.825-16.5s-1.945-1.875-2.91-9.465c-.965-7.59-6.335-13.91-6.335-13.91s-7 4.915-10.615 7.215-16.5 10-16.5 10-.81-5.105-2.74-12.135c-1.93-7.03-5.15-11.23-5.15-11.23l-3.475-3.23" class="shade0"/>
    <path fill="#28192D" d="M233.695 99.855c-4.89 0-7.925-2.97-11.1-7.895-4.21-6.54-5.37-22.79-5.415-23.5a.251.251 0 0 1 .5-.03c0 .165 1.2 16.81 5.34 23.235 4.37 6.79 8.235 9.62 17.205 6.28 8.685-3.235 29-14.87 31.53-16.325-.54-.72-2-3.145-2.77-9.365-.855-6.73-5.28-12.535-6.135-13.605-1.15.805-7.2 5-10.435 7.09-3.56 2.275-16.39 9.915-16.5 10a.249.249 0 0 1-.23 0 .272.272 0 0 1-.145-.19c0-.05-.83-5.175-2.73-12.11a35.378 35.378 0 0 0-5.105-11.14l-3.45-3.2a.252.252 0 0 1-.015-.355.252.252 0 0 1 .355-.015l3.475 3.235c.065.07 3.305 4.35 5.225 11.345 1.615 5.91 2.455 10.5 2.68 11.8 2-1.19 12.95-7.725 16.195-9.795 3.55-2.27 10.535-7.16 10.605-7.21a.246.246 0 0 1 .33.04c.055.065 5.435 6.47 6.395 14.045.935 7.365 2.815 9.295 2.835 9.315a.25.25 0 0 1 .07.21.267.267 0 0 1-.039.106.268.268 0 0 1-.081.08c-.225.13-22.605 13.06-31.865 16.5a19.468 19.468 0 0 1-6.725 1.454Z" class="shade90"/>
    <path fill="#28192D" d="M265.78 85.56a.253.253 0 0 1-.155-.055c-.15-.125-3.745-3.11-4.44-9.59-.675-6.305-4.84-11.745-4.88-11.8a.249.249 0 0 1 .054-.338.25.25 0 0 1 .341.033c.045.055 4.295 5.605 5 12.05.67 6.265 4.22 9.225 4.255 9.255a.25.25 0 0 1 .035.35.237.237 0 0 1-.21.095Z" class="shade90"/>
    <path fill="#fff" d="M267.385 80.424c.702-.627.919-1.53.484-2.016-.434-.486-1.355-.37-2.057.257-.702.628-.919 1.53-.484 2.016.434.486 1.355.371 2.057-.257Z" class="shade0"/>
    <path fill="#28192D" d="M266.074 81.245a1.223 1.223 0 0 1-.935-.39 1.278 1.278 0 0 1-.24-1.18 2.43 2.43 0 0 1 .745-1.19 2.389 2.389 0 0 1 1.265-.605 1.194 1.194 0 0 1 1.385 1.55c-.12.464-.38.88-.745 1.19-.4.38-.924.602-1.475.625Zm1.05-2.88h-.155a2.042 2.042 0 0 0-1.585 1.42.794.794 0 0 0 .13.73c.335.375 1.115.25 1.705-.28a1.89 1.89 0 0 0 .59-.93.804.804 0 0 0-.125-.73.719.719 0 0 0-.56-.21Z" class="shade90"/>
    <path fill="#fff" d="M317.33 55.5h-44.9c-2.025 0-3.41-2.195-2.5-3.935L287 19.335a2.438 2.438 0 0 1 2.175-1.285h44.905c2 0 3.41 2.195 2.5 3.935l-17.08 32.21a2.427 2.427 0 0 1-2.17 1.305Z" class="shade0"/>
    <path fill="#28192D" d="M317.33 55.73h-44.9a3.004 3.004 0 0 1-2.595-1.5 2.832 2.832 0 0 1-.115-2.815l17.07-32.21a2.695 2.695 0 0 1 2.395-1.42h44.905a3 3 0 0 1 2.595 1.5 2.832 2.832 0 0 1 .11 2.815L319.73 54.31a2.7 2.7 0 0 1-2.4 1.42ZM289.185 18.3a2.204 2.204 0 0 0-1.955 1.15l-17.07 32.215a2.353 2.353 0 0 0 .1 2.32 2.497 2.497 0 0 0 2.17 1.245h44.9a2.194 2.194 0 0 0 1.955-1.15l17.07-32.21a2.34 2.34 0 0 0-.1-2.325 2.5 2.5 0 0 0-2.165-1.245h-44.905Z" class="shade90"/>
    <path fill="#28192D" d="M318.13 55.5h-44.905a2.755 2.755 0 0 1-2.5-3.935l17.07-32.21A2.438 2.438 0 0 1 290 18.05h46.435c2 0 1.88 2.195.955 3.935l-17.07 32.21a2.425 2.425 0 0 1-2.19 1.305Z" class="shade90"/>
    <path fill="#28192D" d="M277.735 55.485H250.92v-1.67l26.83-2.33-.015 4Z" class="shade90"/>
    <path fill="#fff" d="M266.125 52.71a.252.252 0 0 1-.189-.413.245.245 0 0 1 .169-.087l5.54-.445a.251.251 0 1 1 .04.5l-5.54.445h-.02Zm51.325-32.89h-2.815a.25.25 0 1 1 0-.5h2.815a.251.251 0 0 1 .25.25.257.257 0 0 1-.25.25Zm-17.95.015h-11.805a.25.25 0 1 1 0-.5h23.5a.25.25 0 1 1 0 .5c-3.815-.005-7.75 0-11.695 0Z" class="shade0"/>
    <path fill="#ECA3B5" d="M304.455 41.845s-2.72-6.28-.635-8.5c2.085-2.22 3.135 2.13 3.135 2.13s2.27-2.69 4.725-1.11c2.455 1.58-7.225 7.48-7.225 7.48Z" class="shade40"/>
    <path fill="#fff" d="M271.936 59.87a16.497 16.497 0 0 0 9 3.46Z" class="shade0"/>
    <path fill="#28192D" d="M280.911 63.58a16.568 16.568 0 0 1-9.12-3.5.238.238 0 0 1-.056-.27.24.24 0 0 1 .056-.08.238.238 0 0 1 .175-.073.252.252 0 0 1 .175.073 16.387 16.387 0 0 0 8.825 3.4.25.25 0 1 1 0 .5l-.055-.05Z" class="shade90"/>
    <path fill="#fff" d="M228.93 55.5c2.055 10.935-.59 52-.59 52s-29.325 7.87-46-4.195c0 0-.915-33.31 0-44.85s13.06-15.5 19.29-16.67c6.23-1.17 8.965.3 11.78 1.25 2.53.855 10.085 3.715 13.825 8.705" class="shade0"/>
    <path fill="#28192D" d="M207.771 110.235c-8.635 0-18.32-1.5-25.57-6.725a.26.26 0 0 1-.105-.2c0-.33-.905-33.455 0-44.875.41-5.12 3-9.295 7.765-12.415 4.235-2.78 9.165-4 11.725-4.5 5.535-1.035 8.375 0 10.88.9.345.125.685.25 1.03.365 2.965 1 10.255 3.865 13.945 8.79.039.053.056.12.047.185a.248.248 0 0 1-.097.165.256.256 0 0 1-.35-.05c-3.605-4.815-10.785-7.63-13.705-8.62-.345-.115-.69-.24-1.04-.365-2.445-.89-5.215-1.89-10.615-.86-16.29 3.055-18.775 12.5-19.085 16.445-.875 11.045-.065 42.46 0 44.7 8.545 6.12 20.47 6.915 29 6.5a90.239 90.239 0 0 0 16.53-2.375c.185-3 2.545-41.34.585-51.75a.255.255 0 0 1 .039-.188.257.257 0 0 1 .161-.107.25.25 0 0 1 .29.2c2.04 10.84-.56 51.65-.59 52.06a.25.25 0 0 1-.18.225 90.218 90.218 0 0 1-20.66 2.495Zm-2.581-73.29s3.785-.58 2.615-4.4c-1.17-3.82-1.96-16.96-1.96-16.96l-8.2 2.44s-3.595 1.7-2.445 6.475c1.15 4.775 4 4.835 4.885 7.07.885 2.235 5.105 5.375 5.105 5.375Z" class="shade90"/>
    <path fill="#fff" d="M204.29 29.83s-.03 6.585-1.175 9.53c-.15.395-1.7 2.95-1.895 3.26-1.56 2.45 7 9 9.53 8.765 2.93-.29 2.89-1.65 3.305-4.565l1.675-14.415-11.53-2.82" class="shade0"/>
    <path fill="#28192D" d="M210.61 51.64c-2.18 0-7.5-3.755-9.225-6.6-.655-1.04-.78-1.925-.385-2.54.225-.36 1.735-2.855 1.875-3.215 1.11-2.87 1.155-9.375 1.155-9.445v-.045a.24.24 0 0 1-.085-.255.25.25 0 0 1 .3-.185l11.53 2.825a.257.257 0 0 1 .19.27l-1.76 15.025c-.34 2.5-.53 3.89-3.445 4.175l-.15-.01Zm-6.07-21.715c0 .855-.105 6.73-1.19 9.525-.17.445-1.785 3.085-1.92 3.3-.365.575 0 1.42.38 2.03 1.81 2.945 7.15 6.535 8.915 6.355 2.525-.245 2.66-1.27 3-3.74l.085-.61 1.645-14.19-10.915-2.67Z" class="shade90"/>
    <path fill="#28192D" d="M205.62 31.75c.825 2.08 1.36 4.275 2.265 6.32a6.6 6.6 0 0 0 2.23 2.93 2.37 2.37 0 0 0 2.4.24 8.68 8.68 0 0 1 2.395-.405l.82-8.405L205 30.215c.255.53.445 1.09.62 1.535Zm10.71-6.975a9.778 9.778 0 0 0-.785-5.775 16.526 16.526 0 0 0-3.59-4.91l-5.81 2.27" class="shade90"/>
    <path fill="#fff" d="M210.499 15.86s7.135 5.545 7.93 11.885c.795 6.34-2.125 8.28-5.11 8.565-3.96.38-10.345-3.41-13.36-9.5-3.015-6.09 4.885-12.985 10.54-10.95Z" class="shade0"/>
    <path fill="#28192D" d="M212.741 36.59c-4.085 0-10.07-3.71-13-9.66-1.305-2.625-.725-5.715 1.545-8.26 2.54-2.85 6.365-4.105 9.3-3.045a.192.192 0 0 1 .07.035c.295.23 7.225 5.685 8 12.055.38 3-.045 5.315-1.26 6.83a6.41 6.41 0 0 1-4.66 2.045h.005Zm-4.39-20.84c-2.32 0-4.865 1.185-6.71 3.255-2.13 2.385-2.675 5.265-1.47 7.705 2.96 5.965 9.29 9.725 13.11 9.35a5.174 5.174 0 0 0 3.72-1.825c1.125-1.41 1.5-3.58 1.155-6.46-.745-5.95-7.295-11.29-7.8-11.695a6.002 6.002 0 0 0-2.005-.33Z" class="shade90"/>
    <path fill="#fff" d="M204.86 32.63s-2.87 1.195-4.72-.75c-1.85-1.945-.07-3.635 1.18-2.97.48.301.916.668 1.295 1.09" class="shade0"/>
    <path fill="#28192D" d="M202.891 33.25a3.918 3.918 0 0 1-2.93-1.195c-1.115-1.17-1-2.255-.525-2.885a1.57 1.57 0 0 1 2-.5c.504.306.963.683 1.36 1.12.023.023.042.05.054.081a.245.245 0 0 1-.054.274.25.25 0 0 1-.175.073.244.244 0 0 1-.175-.073 5.946 5.946 0 0 0-1.24-1.03 1.081 1.081 0 0 0-1.365.34c-.35.465-.41 1.3.5 2.24 1.705 1.79 4.42.7 4.445.69a.248.248 0 0 1 .275.053.248.248 0 0 1 .055.082.258.258 0 0 1-.135.325 5.85 5.85 0 0 1-2.09.405Z" class="shade90"/>
    <path fill="#fff" d="M200.336 30.465s.13 1.11 1.69 1.78Z" class="shade0"/>
    <path fill="#28192D" d="M202.024 32.5a.215.215 0 0 1-.095 0c-1.68-.72-1.84-1.93-1.845-2a.25.25 0 0 1 .467-.153c.015.028.025.06.028.093 0 .04.15 1 1.545 1.58a.24.24 0 0 1 .136.137.247.247 0 0 1-.006.193.245.245 0 0 1-.23.15Z" class="shade90"/>
    <path fill="#fff" d="M211.705 24.265s1.395 1.14 2.325 1.795c.93.655 1.4.82 1.225 1.61-.175.79-1.925 1.215-2.395 1.045" class="shade0"/>
    <path fill="#28192D" d="M213.135 29a1.058 1.058 0 0 1-.36-.05.253.253 0 0 1-.085-.05.252.252 0 0 1-.081-.173.251.251 0 0 1 .336-.247 2.69 2.69 0 0 0 1.55-.35.949.949 0 0 0 .5-.5c.11-.5-.05-.625-.755-1.1l-.37-.255c-.93-.65-2.325-1.79-2.34-1.805a.25.25 0 0 1 .23-.432c.031.01.06.026.085.047 0 0 1.4 1.14 2.315 1.785l.36.245c.695.47 1.155.78.965 1.625a1.394 1.394 0 0 1-.765.845 3.672 3.672 0 0 1-1.585.415Zm-16.076-6.835s-1.035 3.455.67 4.915c1.265 1.095 4.355 2.93 5.85 3.795l.635-.5c-.26-1.205.65-2 .16-3.62-.735-2.39-1.74-6.5-1.74-6.5l-5.575 1.91Z" class="shade90"/>
    <path fill="#fff" d="M215.355 30.04s-2.39.73-3.5.55a10.159 10.159 0 0 1-1.57-.355s.91 1.6 2.32 2.11a2.998 2.998 0 0 0 2.53-.255 2.64 2.64 0 0 1 .125-1.865l.095-.185Z" class="shade0"/>
    <path fill="#28192D" d="M213.605 32.77a3.11 3.11 0 0 1-1.075-.19c-1.5-.535-2.415-2.155-2.455-2.225a.25.25 0 0 1 .025-.28.252.252 0 0 1 .28-.075c.498.152 1.008.266 1.525.34 1.035.18 3.355-.53 3.375-.54a.26.26 0 0 1 .265.075.259.259 0 0 1 .04.27l-.085.185a2.359 2.359 0 0 0-.115 1.685.242.242 0 0 1-.1.28 3.181 3.181 0 0 1-1.68.475Zm-2.725-2.12a4.35 4.35 0 0 0 1.82 1.46 2.708 2.708 0 0 0 2.155-.14 2.857 2.857 0 0 1 .07-1.55c-.775.21-2.26.555-3.1.415-.39-.065-.7-.13-.945-.185Z" class="shade90"/>
    <path fill="#28192D" d="M211.221 31.455a.25.25 0 0 1-.25-.245.26.26 0 0 1 .015-.096.262.262 0 0 1 .051-.082.246.246 0 0 1 .174-.077l3.825-.095a.26.26 0 0 1 .255.245.243.243 0 0 1-.07.178.255.255 0 0 1-.175.077l-3.82.095h-.005Zm-2.387-5.448c.142-.096.154-.324.027-.51-.126-.184-.343-.255-.484-.158-.141.096-.154.324-.027.509.126.185.343.256.484.16Zm6.119-2.444c.142-.097.154-.325.028-.51-.127-.184-.344-.255-.485-.159-.141.097-.153.325-.027.51.126.184.343.256.484.159Z" class="shade90"/>
    <path fill="#fff" d="M206.766 24.585s1.145-1.5 2.5-2Z" class="shade0"/>
    <path fill="#28192D" d="M206.766 24.835a.27.27 0 0 1-.15-.05.253.253 0 0 1-.098-.165.251.251 0 0 1 .048-.185c.05-.065 1.205-1.59 2.63-2.08a.256.256 0 0 1 .305.145.25.25 0 0 1-.155.315c-1.28.445-2.385 1.895-2.395 1.91a.258.258 0 0 1-.185.11Z" class="shade90"/>
    <path fill="#fff" d="M212.404 21.225a7.726 7.726 0 0 1 2.85-.315Z" class="shade0"/>
    <path fill="#28192D" d="M212.406 21.5a.25.25 0 0 1-.24-.18.243.243 0 0 1 .165-.31 7.958 7.958 0 0 1 2.955-.32.25.25 0 0 1 .215.28.256.256 0 0 1-.28.215 7.575 7.575 0 0 0-2.74.3.199.199 0 0 1-.075.015Zm-13.325 1.245s2.42-1.465 4.035-1.745a3.75 3.75 0 0 1 2.66.405s.21-.13-.04-.635a6.891 6.891 0 0 0-.94-1.27c.485.059.961.181 1.415.365.315.18.606.4.865.655a1.252 1.252 0 0 0 .66-1.415l-.235-.94a3.254 3.254 0 0 0 1.785.66c1.16.1 1.5-.13 1.5-.13a1.039 1.039 0 0 1-.96-.2 3.678 3.678 0 0 0-.895-.58s2.16.575 3.445-.045c1.285-.62 1.115-2.45-.335-4.17-1.45-1.72-14.605.965-15.605 5.265s2.165 5.83 2.165 5.83l.48-2.05Z" class="shade90"/>
    <path fill="#fff" d="M186.68 48.94a86.277 86.277 0 0 0-15.06 21.76c-6.025 12.75-28.345 63.21-28.345 63.21s2.22 4.2 10.46 4.4c8.24.2 12.265-1.23 12.265-1.23l29.94-66.38" class="shade0"/>
    <path fill="#28192D" d="M155.326 138.58h-1.595c-8.29-.2-10.58-4.355-10.675-4.535a.247.247 0 0 1 0-.215c.225-.5 22.39-50.61 28.35-63.22a87.298 87.298 0 0 1 15.095-21.845.246.246 0 0 1 .35 0 .249.249 0 0 1 0 .35 86.827 86.827 0 0 0-15 21.69c-5.82 12.3-27.075 60.335-28.295 63.085.405.625 2.92 4 10.19 4.17 7.39.185 11.4-.97 12.07-1.185l29.895-66.28a.248.248 0 0 1 .33-.125.249.249 0 0 1 .148.235.24.24 0 0 1-.023.095l-29.94 66.385a.261.261 0 0 1-.145.13c-.155.055-3.64 1.265-10.755 1.265Z" class="shade90"/>
    <path fill="#F6D4A0" d="M208.084 29.63a3.192 3.192 0 0 1-2.189-5.522 3.192 3.192 0 0 1 3.497-.564 3.188 3.188 0 0 1 1.662 1.786 3.167 3.167 0 0 1-.086 2.435 3.17 3.17 0 0 1-1.784 1.66 3.127 3.127 0 0 1-1.1.205Zm0-5.875a2.692 2.692 0 0 0-2.582 1.874 2.692 2.692 0 0 0 2.632 3.505 2.688 2.688 0 0 0 2.45-3.634 2.674 2.674 0 0 0-2.51-1.745h.01Zm7.056 1.835a3.192 3.192 0 0 1-3.174-3.397 3.185 3.185 0 0 1 1.89-2.71 3.19 3.19 0 0 1 4.284 1.807 3.187 3.187 0 0 1-3 4.3Zm0-5.875a2.682 2.682 0 0 0-2.556 1.887 2.683 2.683 0 0 0 4.21 2.919 2.684 2.684 0 0 0 .871-3.056 2.704 2.704 0 0 0-2.535-1.75h.01Z" class="shade10"/>
    <path fill="#F6D4A0" d="m210.646 25.45-.46-.19a3.102 3.102 0 0 1 2.665-1.83l.03.5a2.611 2.611 0 0 0-2.235 1.52Zm-4.781 2.687-5.64.465.041.499 5.641-.465-.042-.498Z" class="shade10"/>
    <path fill="#fff" d="M168.656 131.185s-15.475 4.39-22.9-2.88Z" class="shade0"/>
    <path fill="#28192D" d="M158.629 132.725c-4.545 0-9.645-.905-13.05-4.24a.257.257 0 0 1-.054-.08.237.237 0 0 1-.019-.095c0-.033.006-.065.019-.095a.257.257 0 0 1 .136-.135.26.26 0 0 1 .192 0c.03.013.058.032.081.055 7.235 7.08 22.5 2.855 22.655 2.81a.258.258 0 0 1 .32.18.26.26 0 0 1-.18.32 41.897 41.897 0 0 1-10.1 1.28Z" class="shade90"/>
    <path fill="#fff" d="M147.748 133.345c.356-.794.277-1.602-.176-1.806-.454-.203-1.11.275-1.466 1.069-.356.793-.277 1.601.176 1.805.454.203 1.11-.275 1.466-1.068Z" class="shade0"/>
    <path fill="#28192D" d="M146.5 134.715a.708.708 0 0 1-.32-.07c-.59-.26-.725-1.2-.305-2.135.42-.935 1.21-1.46 1.8-1.195.59.265.72 1.205.3 2.14-.34.77-.94 1.26-1.475 1.26Zm.845-2.965c-.295 0-.735.35-1 .965-.315.715-.23 1.35.055 1.475.285.125.815-.23 1.135-.94.32-.71.23-1.35-.05-1.475a.263.263 0 0 0-.135-.025h-.005Z" class="shade90"/>
    <path fill="#fff" d="M174.71 127.745h-.69a.249.249 0 0 1-.25-.25.25.25 0 0 1 .25-.25h.665c12.36 0 14.955-15.22 15-15.38a.232.232 0 0 1 .033-.091.239.239 0 0 1 .154-.112.248.248 0 0 1 .098-.002.25.25 0 0 1 .205.187.269.269 0 0 1 .005.098c-.025.16-2.68 15.8-15.47 15.8ZM211.811 51.2s5.425 41.405 1.325 61.705Z" class="shade0"/>
    <path fill="#28192D" d="M213.134 113.155h-.05a.24.24 0 0 1-.16-.106.243.243 0 0 1-.035-.189c4.045-20.025-1.275-61.21-1.33-61.62a.247.247 0 0 1 .122-.25.25.25 0 0 1 .093-.03.245.245 0 0 1 .28.215c.055.415 5.385 41.675 1.325 61.785a.246.246 0 0 1-.245.195Z" class="shade90"/>
  </g>
  <defs>
    <clipPath id="a" class="a">
      <path fill="#fff" d="M0 0h400v300H0z"/>
    </clipPath>
  </defs>
</svg>
